<svg id="Layer_1" data-name="Layer 1" xmlns="http://www.w3.org/2000/svg" viewBox="0 0 1596 1596"><defs><style>.cls-1{fill:#f7ca69;}.cls-1,.cls-2,.cls-3{stroke:#81287f;stroke-miterlimit:10;stroke-width:33px;}.cls-2{fill:#f36f26;}.cls-3{fill:#33b2ba;}.cls-4{fill:#81287f;}</style></defs><path class="cls-1" d="M1387.23,597.93l-179.46,157-18.7,18.21-137.4,119.29c-.45-56.33-.87-109-1.31-163.58-114.48.92-227.6,1.82-341.18,2.71l-54.61.44V475.81l54.61-.44,338.25-2.69c-.44-54.66-.86-107.54-1.32-165.54Z"/><path class="cls-2" d="M861.75,1030.3l-.83-104.44,214.84,183-211.14,186-.82-103.33-247.69,2-1.28-161.22Z"/><path class="cls-3" d="M1189.22,837.26l14-13.62c2.86.76,5.75,2.18,8.62,2.17q78.2-.43,156.4-1.2a65.79,65.79,0,0,0,6.53-.87l-.68-86.06,180,153.47-177,155.89-.69-86.61-186.22,1.48Z"/><path class="cls-4" d="M646,933l-379.43,3c.11,13,.2,24.58.3,37.16l379.42-3c-.1-13.14-.2-25.11-.29-37.16Z"/><path class="cls-4" d="M783.5,397.72l-379.46,3c.1,13,.19,24.57.29,36.5l379.46-3c-.11-12.71-.2-24.28-.29-36.5Z"/><path class="cls-4" d="M605,546l-64.67.52L225.52,549c.11,14.5.21,26.07.31,39.11l379.44-3c-.09-12.5-.19-25-.31-39.11Z"/><path class="cls-4" d="M874,801.89l-378.25,3c.1,13.26.2,25.31.29,36.77l378.25-3c-.1-12.74-.19-24.34-.29-36.77Z"/><path class="cls-4" d="M678.79,1281.32l-378.36,3c.1,13,.2,25,.3,37.05l378.35-3c-.1-12.64-.19-24.24-.29-37Z"/><path class="cls-4" d="M109.41,937.2l-59.57.47C50,951,50,963,50.14,975.1l59.57-.48c-.1-12.53-.19-24.12-.3-37.42Z"/><path class="cls-4" d="M217.88,936l-59.75.47c.1,13.57.2,25.58.3,37.89l59.75-.48c-.1-12.92-.2-25-.3-37.88Z"/><path class="cls-4" d="M446.22,805.38l-60.65.48c.1,13,.19,24.72.29,37.16l60.66-.48c-.1-13-.2-25-.3-37.16Z"/><path class="cls-4" d="M354.9,400.49l-59.82.47c.1,12.89.19,24.91.29,37.11l59.83-.47c-.11-13.26-.2-25.25-.3-37.11Z"/><path class="cls-4" d="M142.55,1285.54,82,1286c.1,12.55.19,24.11.29,36.84l60.57-.49c-.1-12.94-.2-24.52-.29-36.83Z"/><path class="cls-4" d="M337.37,805.82,278,806.3c.11,13,.2,25,.3,37.39l59.33-.47c-.1-12.9-.19-24.91-.29-37.4Z"/><path class="cls-4" d="M250.53,1284.57l-59.65.47c.1,13.08.2,25,.3,37.6l59.65-.48c-.1-12.63-.2-24.69-.3-37.59Z"/><path class="cls-4" d="M246.06,401.46l-59.31.47c.1,12.47.19,24.07.29,37.22l59.31-.47c-.1-12.93-.19-24.91-.29-37.22Z"/><path class="cls-4" d="M176.23,551.1l-59.29.47c.11,12.92.2,24.44.29,36.31l59.29-.47c-.11-13-.2-24.53-.29-36.31Z"/></svg>