<svg id="Layer_1" data-name="Layer 1" xmlns="http://www.w3.org/2000/svg" viewBox="0 0 1596 1596"><defs><style>.cls-1{fill:#f7ca69;}.cls-2{fill:#81287f;}</style></defs><path class="cls-1" d="M253.86,443.59c-38.92.08-79.16.16-118.8-.35-5.93-.08-6.25.12-8.76,5.27A748.75,748.75,0,0,0,57.41,673.06c-2.26,16.14-3.56,32.29-4.93,49.39l-.39,4.82H249a1216.09,1216.09,0,0,1,43.81-283.73Q273.33,443.54,253.86,443.59Z"/><path class="cls-1" d="M243.26,351.71c26,0,51.37.08,76.93.4a17.91,17.91,0,0,0,3.5-.21,20.22,20.22,0,0,0,1.66-3.77c24.19-68.15,57-129.84,97.49-183.37,13.69-18.09,28.25-35.78,42.86-53.08-112.95,55.45-205.27,134.6-280.27,240.1l13.62,0C214,351.73,228.74,351.71,243.26,351.71Z"/><path class="cls-1" d="M1253.91,351.88c.64,0,1.51.06,2.68.05,30.44-.15,61.37-.15,91.27-.14q22.62,0,45.25,0c-57.95-89-178.24-190.94-281-241.73a761.09,761.09,0,0,1,141.74,241.7A1.21,1.21,0,0,1,1253.91,351.88Z"/><path class="cls-1" d="M1322,445.3l-36.27,0h-.88c26.59,96.13,41.19,192.25,43.42,286.05,34.78-.06,70.13-.06,104.32-.07q46.5,0,93,0a726.06,726.06,0,0,0-76.89-284.61,11.85,11.85,0,0,0-3.52-.95C1404.16,445.2,1362.37,445.25,1322,445.3Z"/><path class="cls-1" d="M1155.1,350.54c-16.15-52.1-56.57-117.88-109.62-177.27-45.37-50.79-93.1-89.38-132.29-108,37.74,92.44,53.77,190.11,68.74,285.24Z"/><path class="cls-1" d="M566.92,730.43,582.38,445l-21.42.05c-56.18.14-114.23.28-171.27,1.11a10,10,0,0,0-1.12,2c-23.88,77.54-38.91,161.91-44.64,250.68-.67,10.43-.47,21-.23,32.27Z"/><path class="cls-1" d="M1235.33,730v-.18c-3-93.34-18.39-188-45.78-281.35a28.6,28.6,0,0,0-1.16-3.3,24,24,0,0,0-2.87-.12c-45.07.43-90.86.39-135.13.35q-27.83,0-55.65,0L1011,730Z"/><path class="cls-1" d="M900.64,445.16c-79.38.34-152.54.33-223.61,0-3.38,64.27-7.06,129.55-10.62,192.7q-2.56,45.4-5.1,90.83c0,.51,0,1-.07,1.55H915.67q-2.52-47.57-5-95.12C907.31,572.85,903.89,508.52,900.64,445.16Z"/><path class="cls-1" d="M596,350.24c13.71-89.9,30-189,68.23-283.84C621,87,582,117,543.94,158.68,495.32,212,456,274.83,424.18,350.24Z"/><path class="cls-1" d="M690.45,342.33c-.45,2.77-.89,5.57-1.34,8.4H888.59l-.33-2.18c-2.4-15.75-4.66-30.62-7.32-45.54-12.82-71.76-28-147.78-59.93-219A201.92,201.92,0,0,0,799.94,47.4c-6.71-9.18-10.37-10.78-11.07-11-.72.24-4.5,1.87-11.49,11.45a200.79,200.79,0,0,0-20.26,35.23C730,142.87,714.88,205.82,700.63,281.92,696.91,301.79,693.77,321.48,690.45,342.33Z"/><path class="cls-2" d="M283.4,745.1c2.34-107,18.45-209.71,49.27-314.07l6.61-22.39H297q-21.61,0-43.23.06c-38.79.07-78.9.16-118.28-.35h-.87c-18.81,0-31.44,7.93-39.71,24.88a783.68,783.68,0,0,0-72.08,235c-2.4,17.15-3.8,34.57-5.15,51.42-.62,7.68-1.26,15.63-2,23.46l-1.77,19.06H283ZM52.09,727.27l.39-4.82c1.37-17.1,2.67-33.25,4.93-49.39A748.75,748.75,0,0,1,126.3,448.51c2.51-5.15,2.83-5.35,8.76-5.27,39.64.51,79.88.43,118.8.35q19.47,0,38.95,0A1216.09,1216.09,0,0,0,249,727.27Z"/><path class="cls-2" d="M950.32,746.79a42.69,42.69,0,0,0,.67-9.21q-2.73-52.17-5.53-104.33c-3.36-63.17-6.83-128.5-10.12-192.75-.58-11.3-5.72-30.23-33.62-30.23h-.27c-79.82.34-153.32.33-224.72,0h-.32c-26.84,0-33.38,17.08-34.14,31.44-3.4,64.73-7.11,130.54-10.7,194.19q-2.57,45.43-5.1,90.87c-.28,5-.21,10-.14,14.68,0,2.06.07,4.14.07,6.24v17.45H948.18l1.75-15.49C950.05,748.59,950.19,747.66,950.32,746.79ZM661.24,730.22c0-.52,0-1,.07-1.55q2.52-45.42,5.1-90.83c3.56-63.15,7.24-128.43,10.62-192.7,71.07.35,144.23.36,223.61,0,3.25,63.36,6.67,127.69,10,189.94q2.53,47.56,5,95.12Z"/><path class="cls-2" d="M1270.23,764.88V747.43c0-2.25,0-4.37,0-6.38,0-4.24.06-8.25-.07-12.35-3.07-96.29-18.94-193.88-47.17-290.06-5.7-19.43-17.54-28.49-37.23-28.49h-.61c-44.89.42-90.59.38-134.77.34q-29.58,0-59.15,0c-4.56,0-8.95.37-12.47.66-1.29.11-2.49.21-3.58.28l-17.31,1.09,20.16,352.37ZM1050.39,445.39c44.27,0,90.06.08,135.13-.35a24,24,0,0,1,2.87.12,28.6,28.6,0,0,1,1.16,3.3c27.39,93.35,42.8,188,45.78,281.35V730H1011L994.74,445.37Q1022.57,445.34,1050.39,445.39Z"/><path class="cls-2" d="M309.12,766.11,600,765.22,619.22,410l-18.47.06-39.87.1c-57.91.14-117.78.28-176.62,1.18-15.84.25-26.38,17.93-29,26.45C330.54,518,315,605.1,309.11,696.6c-.78,12.15-.53,24.27-.28,36,.11,5.27.22,10.72.24,16.07Zm34.81-67.27c5.73-88.77,20.76-173.14,44.64-250.68a10,10,0,0,1,1.12-2c57-.83,115.09-1,171.27-1.11l21.42-.05L566.92,730.43l-223.22.68C343.46,719.89,343.26,709.27,343.93,698.84Z"/><path class="cls-2" d="M1321.93,410.41l-36.23,0h-39.39v17.45c0,1.06,0,1.95-.08,2.8a27.19,27.19,0,0,0,.83,9.35c28.88,99.74,44.49,199.52,46.39,296.58.3,15.27,7.56,22.52,13.59,25.9,6.22,3.5,12.6,3.77,18,3.77h2.63c35,0,70.54-.06,104.94-.07q48.81,0,97.63-.05a78.75,78.75,0,0,0,11.35-1c1.37-.2,2.79-.4,4.28-.57l16.09-1.83-.63-16.18a756.91,756.91,0,0,0-82.61-317.91c-6.49-12.76-23.73-17.7-33.07-17.81C1404.35,410.31,1362.45,410.36,1321.93,410.41Zm203.65,320.85q-46.51.06-93,0c-34.19,0-69.54,0-104.32.07-2.23-93.8-16.83-189.92-43.42-286h.88l36.27,0c40.4-.05,82.19-.1,123.2.4a11.85,11.85,0,0,1,3.52.95A726.06,726.06,0,0,1,1525.58,731.26Z"/><path class="cls-2" d="M666.33,275.5c-3.81,20.33-7,40.25-10.34,61.33-1.48,9.31-3,18.93-4.6,28.5l-3.34,20.29H929.34l-3.17-20.16c-1.18-7.51-2.31-14.88-3.41-22.16-2.43-16-4.73-31.06-7.47-46.42-13.2-73.9-28.89-152.3-62.44-227.16a237.08,237.08,0,0,0-24.74-42.9c-4.58-6.28-18.52-25.36-39.24-25.36h0c-20.85,0-35,19.42-39.67,25.8a235.32,235.32,0,0,0-23.83,41.37C696.73,131.64,681.06,196.9,666.33,275.5ZM757.12,83.06a200.79,200.79,0,0,1,20.26-35.23c7-9.58,10.77-11.21,11.49-11.45.7.24,4.36,1.84,11.07,11A201.92,201.92,0,0,1,821,84c31.93,71.24,47.11,147.26,59.93,219,2.66,14.92,4.92,29.79,7.32,45.54l.33,2.18H689.11c.45-2.83.89-5.63,1.34-8.4,3.32-20.85,6.46-40.54,10.18-60.41C714.88,205.82,730,142.87,757.12,83.06Z"/><path class="cls-2" d="M948.79,364.42l3.31,21h246.52l-4-20.74c-11.79-61.31-57.82-141.56-123.13-214.67-30.58-34.24-63.17-64.18-94.25-86.59-34.67-25-66-39.81-93.19-44l-32.81-5.09,14.41,29.9C914.32,145.17,931.84,256.63,948.79,364.42Zm96.69-191.15c53,59.39,93.47,125.17,109.62,177.27H981.93c-15-95.13-31-192.8-68.74-285.24C952.38,83.89,1000.11,122.48,1045.48,173.27Z"/><path class="cls-2" d="M518.17,135.16C461.56,197.21,417,271.2,382,361.38l-9.22,23.76H626l2.25-14.83c16.53-108.9,33.62-221.5,84.9-328.47L731,4.74l-39,13C627.51,39.21,570.67,77.61,518.17,135.16ZM664.25,66.4C626,161.25,609.73,260.34,596,350.24H424.18C456,274.83,495.32,212,543.94,158.68,582,117,621,87,664.25,66.4Z"/><path class="cls-2" d="M1036.86,81a54.94,54.94,0,0,0,4.59,5.19,727.56,727.56,0,0,1,179.6,277.44c8.09,22.35,26,23.21,34.61,23.21h1.09c30.36-.14,61.24-.14,91.11-.14q30.21,0,60.43,0a87.86,87.86,0,0,0,11.8-1c1.47-.2,3-.4,4.59-.57l25.73-2.71-12.16-22.84c-31.13-58.45-92.76-127.13-169.08-188.42-76.5-61.44-155.7-105.71-217.28-121.46L999,36.13l35.21,41.68C1035.31,79.07,1036.15,80.11,1036.86,81Zm356.25,270.79q-22.62,0-45.25,0c-29.9,0-60.83,0-91.27.14-1.17,0-2,0-2.68-.05a1.21,1.21,0,0,0-.05-.14A761.09,761.09,0,0,0,1112.12,110C1214.87,160.83,1335.16,262.79,1393.11,351.77Z"/><path class="cls-2" d="M199.11,386.65c41.67-.07,81-.15,120.64.35h.81c19.11,0,31.1-8.67,37.68-27.21,23-64.78,54.08-123.31,92.42-174,19.28-25.47,39.73-49.42,61.38-74.77,9.48-11.1,19.28-22.58,28.9-34.11l42.88-51.41L521.3,49.47c-79.89,30.6-152.46,72-215.68,123-63.55,51.32-120,114.3-167.84,187.18l-17.72,27h32.31C168.24,386.71,183.79,386.68,199.11,386.65Zm266.59-275c-14.61,17.3-29.17,35-42.86,53.08-40.51,53.53-73.3,115.22-97.49,183.37a20.22,20.22,0,0,1-1.66,3.77,17.91,17.91,0,0,1-3.5.21c-25.56-.32-51-.4-76.93-.4-14.52,0-29.22,0-44.21.05l-13.62,0C260.43,246.28,352.75,167.13,465.7,111.68Z"/><path class="cls-1" d="M1322,1127.27c38.92-.07,79.16-.15,118.8.36,5.93.08,6.25-.12,8.76-5.28a748.78,748.78,0,0,0,68.89-224.54c2.26-16.14,3.56-32.3,4.93-49.4.13-1.59.26-3.2.39-4.82H1326.85A1216.26,1216.26,0,0,1,1283,1127.33Q1302.53,1127.32,1322,1127.27Z"/><path class="cls-1" d="M1332.59,1219.16c-26,0-51.37-.09-76.93-.41a17.91,17.91,0,0,0-3.5.21,20.58,20.58,0,0,0-1.67,3.78c-24.18,68.14-57,129.83-97.48,183.36-13.69,18.09-28.25,35.79-42.86,53.09,112.95-55.46,205.27-134.61,280.27-240.11l-13.62,0C1361.81,1219.13,1347.11,1219.16,1332.59,1219.16Z"/><path class="cls-1" d="M321.93,1219c-.63,0-1.5,0-2.67,0-30.44.14-61.37.14-91.27.13q-22.63,0-45.26,0c58,89,178.25,190.94,281,241.73A760.91,760.91,0,0,1,322,1219.12Z"/><path class="cls-1" d="M253.87,1125.56l36.28,0H291c-26.59-96.14-41.19-192.26-43.42-286-34.79,0-70.13,0-104.32.06q-46.51,0-93,.05a726,726,0,0,0,76.89,284.61,11.88,11.88,0,0,0,3.51,1C171.69,1125.66,213.47,1125.61,253.87,1125.56Z"/><path class="cls-1" d="M420.75,1220.33c16.14,52.09,56.57,117.88,109.62,177.27,45.37,50.79,93.1,89.37,132.29,108-37.74-92.44-53.77-190.11-68.74-285.23Z"/><path class="cls-1" d="M1008.93,840.44l-15.46,285.4,21.42,0c56.18-.14,114.23-.28,171.27-1.11a11.18,11.18,0,0,0,1.12-2c23.88-77.54,38.91-161.91,44.64-250.68.67-10.43.47-21,.23-32.26Z"/><path class="cls-1" d="M340.51,840.88a.91.91,0,0,1,0,.17c3,93.34,18.38,188,45.78,281.35a29.71,29.71,0,0,0,1.16,3.31,27.09,27.09,0,0,0,2.87.11c45.07-.43,90.85-.38,135.13-.34q27.82,0,55.65,0L564.82,840.88Z"/><path class="cls-1" d="M675.21,1125.7c79.38-.34,152.54-.33,223.61,0,3.38-64.28,7.06-129.55,10.62-192.7q2.56-45.42,5.1-90.84c0-.51.05-1,.07-1.55H660.18q2.51,47.57,5.05,95.12C668.54,998,672,1062.34,675.21,1125.7Z"/><path class="cls-1" d="M979.83,1220.62c-13.71,89.91-30,189-68.24,283.85,43.3-20.59,82.25-50.57,120.32-92.29,48.62-53.3,87.94-116.15,119.76-191.56Z"/><path class="cls-1" d="M885.4,1228.54q.66-4.17,1.34-8.4H687.26l.33,2.17c2.39,15.75,4.66,30.62,7.32,45.54,12.82,71.76,28,147.78,59.93,219a202.17,202.17,0,0,0,21.07,36.58c6.71,9.19,10.36,10.79,11.07,11,.72-.23,4.5-1.86,11.49-11.44a200.6,200.6,0,0,0,20.25-35.24c27.18-59.81,42.24-122.75,56.5-198.86C878.94,1269.07,882.08,1249.38,885.4,1228.54Z"/><path class="cls-2" d="M1292.45,825.76c-2.34,107-18.45,209.71-49.27,314.07l-6.61,22.39h42.26q21.62,0,43.23-.06c38.79-.07,78.9-.15,118.28.36h.87c18.81,0,31.44-7.92,39.71-24.88a783.7,783.7,0,0,0,72.08-235c2.39-17.16,3.8-34.58,5.15-51.43.62-7.68,1.26-15.63,2-23.46l1.77-19H1292.83Zm231.31,17.83c-.13,1.62-.26,3.23-.39,4.82-1.37,17.1-2.67,33.26-4.93,49.4a748.78,748.78,0,0,1-68.89,224.54c-2.51,5.16-2.83,5.36-8.76,5.28-39.64-.51-79.88-.43-118.8-.36q-19.47,0-39,.06a1216.26,1216.26,0,0,0,43.81-283.74Z"/><path class="cls-2" d="M625.52,824.07a44.06,44.06,0,0,0-.67,9.21q2.74,52.17,5.53,104.33c3.36,63.18,6.84,128.5,10.13,192.75.58,11.31,5.72,30.24,33.62,30.24h.27c79.81-.35,153.32-.34,224.72,0h.32c26.83,0,33.38-17.08,34.14-31.43,3.4-64.73,7.11-130.55,10.7-194.2q2.57-45.43,5.1-90.86c.28-5.06.21-10,.14-14.69,0-2.06-.07-4.14-.07-6.24V805.75H627.66l-1.74,15.49C625.8,822.27,625.66,823.2,625.52,824.07Zm289.09,16.57c0,.52,0,1-.07,1.55Q912,887.61,909.44,933c-3.56,63.15-7.24,128.42-10.62,192.7-71.07-.36-144.23-.37-223.61,0-3.25-63.36-6.67-127.69-10-189.94q-2.54-47.57-5.05-95.12Z"/><path class="cls-2" d="M305.61,806v17.45c0,2.25,0,4.37,0,6.39,0,4.24-.07,8.24.07,12.34,3.07,96.29,18.94,193.88,47.17,290.07,5.7,19.42,17.54,28.49,37.23,28.49h.61c44.89-.42,90.58-.38,134.77-.34q29.58,0,59.15,0c4.56,0,8.95-.37,12.47-.66,1.28-.1,2.49-.21,3.58-.27l17.31-1.1L597.78,806Zm219.85,319.5c-44.28,0-90.06-.09-135.13.34a27.09,27.09,0,0,1-2.87-.11,29.71,29.71,0,0,1-1.16-3.31c-27.4-93.35-42.8-188-45.78-281.35a.91.91,0,0,0,0-.17H564.82l16.29,284.61Q553.28,1125.52,525.46,1125.48Z"/><path class="cls-2" d="M1266.73,804.76l-290.86.88-19.24,355.2,18.47,0,39.87-.11c57.91-.14,117.78-.28,176.62-1.18,15.84-.24,26.38-17.93,29-26.45,24.71-80.22,40.23-167.29,46.14-258.79.78-12.14.53-24.27.28-36-.11-5.27-.22-10.72-.24-16.07ZM1231.92,872c-5.73,88.77-20.76,173.14-44.64,250.68a11.18,11.18,0,0,1-1.12,2c-57,.83-115.09,1-171.27,1.11l-21.42,0,15.46-285.4,223.22-.68C1232.39,851,1232.59,861.59,1231.92,872Z"/><path class="cls-2" d="M253.91,1160.46l36.24,0h39.39V1143c0-1.06,0-2,.08-2.8a27.21,27.21,0,0,0-.83-9.35c-28.88-99.74-44.49-199.52-46.4-296.58-.3-15.27-7.55-22.51-13.58-25.9-6.22-3.5-12.6-3.77-17.95-3.77h-2.63c-35,.06-70.55.06-104.94.07q-48.82,0-97.63.05a79,79,0,0,0-11.36,1c-1.36.2-2.78.4-4.27.57l-16.09,1.84.63,16.17a756.91,756.91,0,0,0,82.61,317.91c6.49,12.77,23.73,17.7,33.07,17.81C171.5,1160.55,213.4,1160.5,253.91,1160.46ZM50.27,839.6q46.51-.06,93-.05c34.19,0,69.53,0,104.32-.06,2.23,93.79,16.83,189.91,43.42,286h-.88l-36.28,0c-40.4,0-82.18.1-123.2-.4a11.88,11.88,0,0,1-3.51-1A726,726,0,0,1,50.27,839.6Z"/><path class="cls-2" d="M909.51,1295.37c3.81-20.34,7-40.26,10.35-61.34,1.48-9.3,3-18.92,4.59-28.5l3.35-20.29H646.5l3.18,20.17c1.18,7.5,2.3,14.87,3.41,22.15,2.43,16,4.73,31.07,7.47,46.43,13.2,73.89,28.89,152.3,62.44,227.16A237.3,237.3,0,0,0,747.73,1544c4.59,6.28,18.53,25.36,39.25,25.36h0c20.85,0,35-19.42,39.67-25.8a235.84,235.84,0,0,0,23.83-41.36C879.12,1439.22,894.79,1374,909.51,1295.37ZM818.72,1487.8A200.6,200.6,0,0,1,798.47,1523c-7,9.58-10.77,11.21-11.49,11.44-.71-.23-4.36-1.83-11.07-11a202.17,202.17,0,0,1-21.07-36.58c-31.93-71.25-47.11-147.27-59.93-219-2.66-14.92-4.93-29.79-7.32-45.54l-.33-2.17H886.74q-.68,4.23-1.34,8.4c-3.32,20.84-6.46,40.53-10.18,60.4C861,1365.05,845.9,1428,818.72,1487.8Z"/><path class="cls-2" d="M627.06,1206.44l-3.31-21H377.23l4,20.74C393,1267.48,439,1347.73,504.35,1420.84c30.58,34.24,63.17,64.18,94.25,86.59,34.67,25,66,39.82,93.19,44l32.81,5.1-14.42-29.91C661.53,1425.69,644,1314.23,627.06,1206.44ZM530.37,1397.6c-53.05-59.39-93.48-125.18-109.62-177.27H593.92c15,95.12,31,192.79,68.74,285.23C623.47,1487,575.74,1448.39,530.37,1397.6Z"/><path class="cls-2" d="M1057.68,1435.7c56.6-62,101.13-136,136.13-226.22l9.22-23.75H949.84l-2.25,14.83C931.06,1309.45,914,1422.05,862.68,1529l-17.78,37.1,39-13C948.34,1531.66,1005.18,1493.25,1057.68,1435.7Zm-146.09,68.77c38.24-94.85,54.53-193.94,68.24-283.85h171.84c-31.82,75.41-71.14,138.26-119.76,191.56C993.84,1453.9,954.89,1483.88,911.59,1504.47Z"/><path class="cls-2" d="M539,1489.89a55.06,55.06,0,0,0-4.59-5.2,727.37,727.37,0,0,1-179.6-277.44c-8.09-22.35-25.95-23.21-34.61-23.21H319.1c-30.36.14-61.24.14-91.11.14q-30.23,0-60.43,0a87.67,87.67,0,0,0-11.8,1c-1.48.19-3,.39-4.59.56l-25.73,2.72,12.16,22.83c31.13,58.45,92.76,127.13,169.07,188.42,76.51,61.44,155.71,105.71,217.29,121.46l52.86,13.51-35.21-41.67C540.54,1491.79,539.7,1490.76,539,1489.89Zm-356.26-270.8q22.64,0,45.26,0c29.9,0,60.83,0,91.27-.13,1.17,0,2,0,2.67,0l.06.14a760.91,760.91,0,0,0,141.74,241.7C361,1410,240.69,1308.08,182.73,1219.09Z"/><path class="cls-2" d="M1376.74,1184.21c-41.67.08-81,.15-120.64-.35h-.81c-19.11,0-31.1,8.67-37.68,27.22-23,64.77-54.08,123.3-92.42,174-19.28,25.47-39.73,49.41-61.38,74.77-9.48,11.1-19.28,22.57-28.9,34.11L992,1545.33l62.52-23.94c79.89-30.59,152.46-72,215.68-123,63.55-51.32,120-114.3,167.83-187.18l17.73-27h-32.31C1407.61,1184.15,1392.06,1184.18,1376.74,1184.21Zm-266.59,275c14.61-17.3,29.17-35,42.86-53.09,40.5-53.53,73.3-115.22,97.48-183.36a20.58,20.58,0,0,1,1.67-3.78,17.91,17.91,0,0,1,3.5-.21c25.56.32,51,.41,76.93.41,14.52,0,29.22,0,44.21-.06l13.62,0C1315.42,1324.58,1223.1,1403.73,1110.15,1459.19Z"/></svg>