<svg id="Layer_1" data-name="Layer 1" xmlns="http://www.w3.org/2000/svg" viewBox="0 0 1596 1596"><defs><style>.cls-1{fill:#f7ca69;}.cls-2{fill:#81287f;}.cls-3{fill:#f36f26;}.cls-4,.cls-6{fill:#fff;}.cls-5{fill:#33b2ba;}.cls-6{font-size:518.04px;stroke:#81287f;stroke-miterlimit:10;stroke-width:27.64px;font-family:UbuntuMono-Bold, Ubuntu Mono;font-weight:700;}</style></defs><path class="cls-1" d="M1434.29,892.93c-11.42,2.62-24.47,9.35-36.74,18.94-46,35.92-92.29,73-137.09,108.9-19.57,15.68-39.81,31.88-59.76,47.79-27.87,22.21-59.49,33.47-94,33.47H1106c-42.24-.2-85.23.08-126.8.35-25.48.16-51.83.33-77.76.39l-7.44,0c-18.61.07-37.88.15-57-1.51-23.9-2.06-42-21.57-43-46.37-1-24.18,14-43.58,38.14-49.42a92,92,0,0,1,21.7-2.22c19.43-.08,39.18-.07,58.28,0,35.34,0,71.89,0,107.76-.52,28.24-.45,52-21.19,55.32-48.24,3.54-29-12.6-53.47-40.16-60.9-7.44-2-16.13-2.9-28.2-2.93-128.8-.32-236-.39-337.34-.22-59.32.1-112.91,19.15-159.27,56.63-9,7.31-18.27,14.71-27.18,21.86-18.95,15.2-38.55,30.92-57.5,46.66-13.29,11-28.22,16.31-45.67,16-32.46-.5-65.26-.44-97.5.17-17.92.34-24.44,7.07-24.92,25.71-.05,1.7,0,3.46,0,5.33,0,1,0,2,0,3q0,26.39,0,52.78c0,40.83,0,83.05-.3,124.61-.1,15.26,3.13,26.31,9.62,32.84,6.31,6.35,16.88,9.57,31.41,9.57H688.89c112.07,0,225.34,0,337.38,0h.09c56,0,104.06-16.7,147-51.07q36.11-28.9,72.18-57.86c70.54-56.56,143.47-115,215.52-172.19,18.84-14.95,32.57-29,38.07-48.76V936a59.51,59.51,0,0,1-2.56-6.06C1486.82,902,1461.23,886.74,1434.29,892.93Z"/><path class="cls-2" d="M1525.2,924.29c-.66-1.39-1.28-2.7-1.64-3.73-14.44-41.59-54.68-64.93-95.67-55.51-19.77,4.54-37,15.71-48,24.28-46.09,36-92.49,73.18-137.36,109.11-19.56,15.67-39.79,31.87-59.71,47.75-23,18.32-47.9,27.24-76.16,27.24h-.63c-42.4-.2-85.46.08-127.12.35-25.45.17-51.76.34-77.63.4l-7.49,0c-18,.08-36.59.15-54.41-1.39-10.61-.92-16.52-10.27-16.87-19-.42-10.4,5.51-17.86,16.28-20.46a65.1,65.1,0,0,1,15.09-1.43c19.37-.08,39.09-.06,58.15-.05,35.46,0,72.13.05,108.24-.52,42.44-.67,78.24-32.22,83.26-73.38,5.24-43-19.89-80.87-61.13-92-12.73-3.43-25.69-3.89-35.56-3.92-128.84-.32-236.07-.39-337.46-.22-66,.12-125.63,21.31-177.2,63-9,7.28-18.21,14.66-27.1,21.8-19,15.27-38.74,31.07-57.88,47-8.14,6.77-16.19,9.59-26.95,9.42-32.78-.5-65.91-.45-98.48.17-33.29.63-52.1,19.65-53,53.58-.05,2.16,0,4.24,0,6.25,0,.92,0,1.85,0,2.78q0,26.4,0,52.81c0,40.79,0,83-.3,124.42-.16,23.16,5.87,41.06,17.92,53.19,11.88,12,29.28,18,51.71,18H518c166.57,0,338.81,0,508.22,0h.1c61.87,0,117.34-19.29,164.85-57.34q36.11-28.92,72.2-57.87c70.5-56.54,143.4-115,215.39-172.1,20.7-16.42,40.9-35.76,48.47-65.81l.43-1.72V929.77l-1.25-2.79C1526.05,926.08,1525.63,925.18,1525.2,924.29Zm-26.1,31.48c-5.5,19.72-19.23,33.81-38.07,48.76-72,57.15-145,115.63-215.52,172.19q-36.09,28.93-72.18,57.86c-42.91,34.37-91,51.07-147,51.07h-.09c-112,0-225.31,0-337.38,0H298.12c-14.53,0-25.1-3.22-31.41-9.57-6.49-6.53-9.72-17.58-9.62-32.84.28-41.56.29-83.78.3-124.61q0-26.4,0-52.78c0-1,0-2,0-3,0-1.87,0-3.63,0-5.33.48-18.64,7-25.37,24.92-25.71,32.24-.61,65-.67,97.5-.17,17.45.29,32.38-5,45.67-16,19-15.74,38.55-31.46,57.5-46.66,8.91-7.15,18.13-14.55,27.18-21.86,46.36-37.48,99.95-56.53,159.27-56.63,101.35-.17,208.54-.1,337.34.22,12.07,0,20.76.93,28.2,2.93,27.56,7.43,43.7,31.9,40.16,60.9-3.3,27-27.08,47.79-55.32,48.24-35.87.56-72.42.54-107.76.52-19.1,0-38.85,0-58.28,0a92,92,0,0,0-21.7,2.22C808,1011.34,793,1030.74,794,1054.92c1,24.8,19.08,44.31,43,46.37,19.11,1.66,38.38,1.58,57,1.51l7.44,0c25.93-.06,52.28-.23,77.76-.39,41.57-.27,84.56-.55,126.8-.35h.74c34.52,0,66.14-11.26,94-33.47,20-15.91,40.19-32.11,59.76-47.79,44.8-35.88,91.13-73,137.09-108.9,12.27-9.59,25.32-16.32,36.74-18.94,26.94-6.19,52.53,9,62.25,37a59.51,59.51,0,0,0,2.56,6.06Z"/><path class="cls-3" d="M350.28,1025c-.72-8.22-3.76-17.61-20.53-25.35-.67-.1-1.34-.22-2-.34a43.84,43.84,0,0,0-9.88-1c-59.41,4.5-123,9.42-185.32,14.88-17.57,1.54-28.89,14.48-27.53,31.48,7.44,93.17,15.79,191.47,24.81,292.16,1.5,16.78,14.31,27.67,31.15,26.5,63.5-4.42,126.67-9.46,187.77-15,16.82-1.51,27.63-14.35,26.28-31.21C367.33,1221.12,358.93,1124.13,350.28,1025Z"/><path class="cls-2" d="M380,1022.35c-2-23.18-15.54-40.31-40.19-50.91l-2.06-.89-2.22-.24c-.52,0-1.63-.25-2.7-.43a69.21,69.21,0,0,0-17.24-1.32c-59.49,4.51-123.16,9.44-185.67,14.91-33.81,3-57.31,30.29-54.65,63.57,7.45,93.26,15.81,191.65,24.84,292.44,1.43,16,8.58,30.2,20.15,40a56.57,56.57,0,0,0,16.56,9.78,61.55,61.55,0,0,0,26.22,3.76c63.69-4.44,127.07-9.49,188.37-15,33-3,56-30.19,53.33-63.29C397.05,1218.64,388.65,1121.6,380,1022.35Zm-31.27,326c-61.1,5.51-124.27,10.55-187.77,15-16.84,1.17-29.65-9.72-31.15-26.5-9-100.69-17.37-199-24.81-292.16-1.36-17,10-29.94,27.53-31.48,62.34-5.46,125.91-10.38,185.32-14.88a43.84,43.84,0,0,1,9.88,1c.69.12,1.36.24,2,.34,16.77,7.74,19.81,17.13,20.53,25.35,8.65,99.18,17.05,196.17,24.72,292.19C376.35,1334,365.54,1346.84,348.72,1348.35Z"/><path class="cls-4" d="M961.22,484.7c.83-29.57-22.81-52.3-59.07-57.49-17.38-2.49-35.65-3.25-51.73-9.45C807,401,779,369.57,777,321.6c-2-46.41,22.06-79.29,62.63-99.49,16.17-8.06,30.95-12.52,29.94-36.45-.37-8.74,15.78-18.17,24.39-27.28,8.79,8.79,24.89,17.53,24.94,26.37.14,22.65,11.62,29.57,29.44,37,15.88,6.64,32.68,16.11,43,29.13,7,8.83,3.63,26,4.89,39.38-13.24-.84-30.65,3.38-39-3.46-29.11-23.9-60.51-36.92-93-15.56-16.14,10.59-35.64,38.66-31.55,52.12,6,19.62,29.64,37.24,49.85,48.11,17.84,9.6,42.62,5.47,62,13.25,41.75,16.76,67.78,48.05,69.28,94.92,1.45,44.94-20.14,77.86-59.34,97.57C935.62,586.69,919,593,920,619.15c.24,6.42-14.51,18.53-22.59,18.73s-23.54-10.8-23.83-17.41c-1.17-26.65-18.4-34.88-38.44-44.14-12.23-5.66-25.15-14.68-32-25.75-5.84-9.51-3.44-24.09-4.69-36.42,12.33-.9,25.9-5.48,36.68-1.82,15,5.09,26.84,19.41,41.83,24.38C916.17,549.7,960.19,521.33,961.22,484.7Z"/><path class="cls-5" d="M894.31,727.58a323.82,323.82,0,0,1-127-26.56A333.87,333.87,0,0,1,592.64,525.48a322.17,322.17,0,0,1-25.7-127c.15-87.69,34.43-169.93,96.52-231.57S808.27,71.36,896.4,71.36h2.29c87.68.59,169.52,35,230.47,97S1223.45,313,1223,401.13A326.56,326.56,0,0,1,1126.52,632c-61.74,61.62-143.57,95.55-230.4,95.55Z"/><path class="cls-2" d="M896.4,88.31h2.18a309.47,309.47,0,0,1,120.72,25,308.35,308.35,0,0,1,163.22,166,313.9,313.9,0,0,1,23.54,121.74,311.87,311.87,0,0,1-189.91,285.3,306.31,306.31,0,0,1-120.06,24.28H894.4A306.89,306.89,0,0,1,774,685.45,316.91,316.91,0,0,1,608.24,518.86a305.41,305.41,0,0,1-24.35-120.32A310.54,310.54,0,0,1,774.65,112.61,313.47,313.47,0,0,1,896.4,88.31m0-33.9C704.94,54.41,550.32,207.72,550,398.48c-.32,188.89,155,345,344.23,346h1.87C1085,744.53,1239,590.94,1240,401.22c1-191.56-150.5-345.52-341.15-346.8Z"/><text class="cls-6" transform="translate(771.25 550.97)">$</text></svg>