<svg id="Layer_1" data-name="Layer 1" xmlns="http://www.w3.org/2000/svg" viewBox="0 0 1596 1596"><defs><style>.cls-1{fill:#33b2ba;}.cls-2{fill:#81287f;}.cls-3{fill:#f7ca69;}.cls-4{fill:#fff;stroke:#81287f;stroke-linecap:round;stroke-miterlimit:10;stroke-width:33px;}</style></defs><path class="cls-1" d="M815.78,1526.09a15.36,15.36,0,0,1-4.5-.54c-217.74-66.3-379.55-174.43-494.66-330.57a636,636,0,0,1-93.53-181.56c-20.39-62.91-31.43-130.94-32.81-202.19-1.12-57.72-.83-116.53-.55-173.41.13-25.65.26-52.18.26-78.3a16.81,16.81,0,0,0-.17-2.36q0-29.86,0-59.74c0-69.73,0-141.84-.24-212.78,0-.85,0-1.49.05-2,.4-.18.93-.4,1.63-.65C385.29,211.82,587,138.47,808,57.77a27.16,27.16,0,0,1,9.42-1.93,24.77,24.77,0,0,1,8.65,1.73C1052,140.1,1252.92,213.16,1440.3,280.92a18.26,18.26,0,0,1,3.79,1.74,20.1,20.1,0,0,1,.37,4.72l-.16,58.37c-.41,142.16-.84,289.17,0,433.78.39,63.67-6.27,124.89-19.78,181.94a657.5,657.5,0,0,1-60.42,159.7c-26.43,49.16-59.92,96-99.54,139.16-39.15,42.67-85.42,83-137.53,119.92A986.32,986.32,0,0,1,826.8,1524.38,41.93,41.93,0,0,1,815.78,1526.09Z"/><path class="cls-2" d="M817.44,72.34a10.48,10.48,0,0,1,3,.72c223.2,81.55,422,153.85,607.51,220.94q-.06,25.74-.14,51.49c-.41,142.27-.84,289.38,0,434.14.38,62.36-6.12,122.26-19.34,178a640.76,640.76,0,0,1-58.9,155.69c-25.77,48-58.46,93.65-97.16,135.82-38.36,41.8-83.75,81.37-134.91,117.6A979.33,979.33,0,0,1,976,1450.23a970.94,970.94,0,0,1-153.72,58.28,26,26,0,0,1-6.49,1.07h-.31c-213.9-65.24-372.75-171.36-485.57-324.39a619.65,619.65,0,0,1-91.12-176.86c-19.88-61.37-30.65-127.79-32-197.42-1.12-57.52-.83-116.23-.55-173,.13-25.67.26-52.22.26-78.38,0-1.13-.06-2.24-.17-3.34q0-29.38,0-58.77c0-66.59,0-135.35-.21-203.21C397.27,225,596.12,152.71,813.68,73.27a12.83,12.83,0,0,1,3.76-.93m0-33a43.41,43.41,0,0,0-15.08,2.93Q494.17,154.82,185.67,266.51c-9.82,3.55-12.62,8.15-12.57,18.19.38,91.61.22,183.22.22,274.82h.17c0,84-1.34,168.05.29,252,2.8,144.11,43.64,276.69,129.55,393.22C430.4,1377.12,604.85,1480,806.48,1541.34a32.26,32.26,0,0,0,9.3,1.24,57.88,57.88,0,0,0,15.54-2.34,998.88,998.88,0,0,0,305.3-146.53c211.58-149.86,325.84-351.32,324.23-614.28-1-164-.33-328,.11-492,0-12.22-3.29-17.78-15-22Q1138.63,154.29,831.75,42.07a41.1,41.1,0,0,0-14.31-2.73Z"/><path class="cls-3" d="M816,1411.78a10.68,10.68,0,0,1-3.08-.35C628.79,1355.38,492,1264,394.73,1132.05a536.93,536.93,0,0,1-78.94-153.24c-17.21-53.1-26.53-110.54-27.69-170.71-1-48.91-.71-98.77-.47-147,.11-21.76.22-44.25.22-66.4a17.2,17.2,0,0,0-.14-2.17q0-25.23,0-50.47c0-59.11,0-120.24-.2-180.37C452,302.19,623,240,810.24,171.63a20.77,20.77,0,0,1,7.13-1.48,18.51,18.51,0,0,1,6.47,1.31c191.6,70,362,131.94,520.81,189.39.79.28,1.37.53,1.78.72a23.09,23.09,0,0,1,.09,2.39l-.14,49.45c-.34,120.56-.7,245.23,0,367.87.65,106.63-22.13,203.69-67.71,288.49-44.34,82.48-111.71,156.1-200.25,218.81a833.72,833.72,0,0,1-253.86,121.84A32.58,32.58,0,0,1,816,1411.78Z"/><path class="cls-2" d="M817.33,186.68c.18,0,.45.13.85.28,187.9,68.64,355.44,129.57,511.82,186.13l-.12,40.17c-.34,120.63-.7,245.37,0,368.13.32,52.47-5.15,102.86-16.26,149.77A538.76,538.76,0,0,1,1264.19,1062a565.5,565.5,0,0,1-81.66,114.15c-32.29,35.18-70.51,68.5-113.6,99a817.58,817.58,0,0,1-248.84,119.44,19.3,19.3,0,0,1-3.68.7c-179.93-55-313.53-144.33-408.4-273a520.11,520.11,0,0,1-76.52-148.53c-16.71-51.56-25.76-107.39-26.9-165.94-.94-48.71-.7-98.46-.46-146.57.11-21.78.22-44.3.22-66.49,0-1-.05-2.07-.14-3.08q0-24.79,0-49.59c0-55.31,0-112.39-.16-168.78C465.13,315,632.7,254,815.9,187.13a14.11,14.11,0,0,1,1.43-.45M304,361.31h0M817.37,153.65a37,37,0,0,0-12.79,2.48Q543.25,251.56,281.67,346.27c-8.31,3-10.69,6.91-10.65,15.43.32,77.67.19,155.35.19,233h.14c0,71.24-1.13,142.49.25,213.7,2.37,122.19,37,234.61,109.85,333.42C489.19,1288,637.11,1375.16,808.07,1427.22a27.36,27.36,0,0,0,7.89,1.06,49.14,49.14,0,0,0,13.18-2A847.12,847.12,0,0,0,1088,1302c179.4-127.06,276.29-297.89,274.92-520.86-.85-139-.28-278.12.09-417.17,0-10.36-2.79-15.07-12.76-18.68Q1089.71,251.11,829.5,156a34.83,34.83,0,0,0-12.13-2.31Z"/><path class="cls-4" d="M1100.73,526.59c6.57,5.9,9.51,8.31,12.2,11,21,20.8,41.88,41.66,61.81,61.51L728.35,1045.55,490.9,807.75,561,738.05l164,165Z"/></svg>