<svg id="Layer_1" data-name="Layer 1" xmlns="http://www.w3.org/2000/svg" viewBox="0 0 1596 1596"><defs><style>.cls-1{fill:#f36f26;}.cls-2{fill:#81287f;}.cls-3{fill:#e9262a;}.cls-4{fill:#f7ca69;}.cls-5{fill:#33b2ba;}</style></defs><path class="cls-1" d="M1097.58,727l-.59-.85a14.26,14.26,0,0,0-.89-1.16c45.31-9.83,79.63-45.36,91.83-95.18a16.58,16.58,0,0,0,.36-2,112,112,0,0,0-.76-31.79c0-.28-.11-.56-.17-.84-5-22.6-14.92-41.95-29.36-57.51l-.32-.34c-14.82-15.08-33.69-25.83-56.09-31.95l-.93-.23a113.16,113.16,0,0,0-23.29-2.41c-2.79,0-5.61.1-8.39.3a16.69,16.69,0,0,0-2,.27c-50.27,9.89-87.33,42.55-99.27,87.41-.33-.3-.67-.59-1-.86l-.81-.63L867.72,486.85,977.58,381.44a16.44,16.44,0,0,0,4.79-8.86c3-15.7-5.56-30.72-20.24-35.7a74.42,74.42,0,0,1-30.36-19.36C912.2,297,905.71,267,914.85,239.19c10.31-31.36,37.6-53.11,74.86-59.66a22.8,22.8,0,0,1,4-.35,22.48,22.48,0,0,1,4.3.41c35.27,6.82,60.36,27.67,68.9,57.21a31.18,31.18,0,0,0,30.34,22.54c.73,0,1.47,0,2.19-.08a16.49,16.49,0,0,0,10.33-4.55L1219,149.93c.33.28.67.54,1,.8l2.86,2.06,93.47,98.1a17,17,0,0,0,2.16,1.91,32.26,32.26,0,0,0,49.37-15,83.14,83.14,0,0,1,77.76-55.42,76.2,76.2,0,0,1,57,24.94c.17.19.35.37.53.56a76.25,76.25,0,0,1,22.4,55.37,81.57,81.57,0,0,1-25.68,58.49,83,83,0,0,1-33.23,19.42,31.51,31.51,0,0,0-20.72,19.75,32.47,32.47,0,0,0,3.49,28.91,16.21,16.21,0,0,0,1.81,2.25l93.83,97.76,2,3q.35.51.72,1L1438.15,598.2a16.52,16.52,0,0,0-5,9.92,31.15,31.15,0,0,0,20.95,33.68c29.11,9.86,48.8,35.87,54,71.38a.68.68,0,0,1,0,.14,22.44,22.44,0,0,1-.31,8.22c-12.35,55.4-53.42,75.07-84.83,75.07h0a76.22,76.22,0,0,1-55.59-23.44,74.55,74.55,0,0,1-18-31.23c-3.87-13.27-16-22.18-30.17-22.18a33.36,33.36,0,0,0-4.58.32,16.43,16.43,0,0,0-9.1,4.4L1195.35,829.56Z"/><path class="cls-2" d="M1230.84,161.4h0m-11.79,11.32,85.33,89.55a31.92,31.92,0,0,0,4.32,3.81,48.76,48.76,0,0,0,74.71-22.81l0-.08a66.63,66.63,0,0,1,62.17-44.34,59.91,59.91,0,0,1,44.82,19.55c.34.39.7.76,1.07,1.13a59.94,59.94,0,0,1,17.56,43.5,65.26,65.26,0,0,1-20.53,46.7,66.64,66.64,0,0,1-26.69,15.61h0a47.91,47.91,0,0,0-31.45,30,49,49,0,0,0,5.3,43.65,33.33,33.33,0,0,0,3.62,4.5l85.63,89.22-98.17,93.58a33,33,0,0,0-10,19.84,47.49,47.49,0,0,0,32,51.33c23.37,7.91,38.63,28.56,43,58.15,0,.09,0,.19,0,.28a6,6,0,0,1-.12,2.11c-4.5,20.13-14,36.54-27.59,47.48A65.73,65.73,0,0,1,1423,780.11a59.9,59.9,0,0,1-43.7-18.38,58.31,58.31,0,0,1-14.06-24.41c-5.93-20.37-24.41-34.06-46-34.06a49.65,49.65,0,0,0-6.89.48,33,33,0,0,0-18.19,8.79l-98.27,93.69-70.24-73.71c38.54-17.29,67-52.63,78.29-98.82a31.59,31.59,0,0,0,.71-4,128,128,0,0,0-.88-36.49c-.09-.56-.2-1.12-.32-1.67-5.7-25.5-16.92-47.41-33.37-65.14l-.65-.69c-16.89-17.19-38.26-29.4-63.51-36.3-.62-.16-1.24-.32-1.87-.45a129.47,129.47,0,0,0-26.7-2.77c-3.18,0-6.41.11-9.59.35a31.27,31.27,0,0,0-4,.53c-46.64,9.18-83.25,36-102.3,73.72l-70.46-73.47,98-94a33,33,0,0,0,9.59-17.72c4.48-23.86-8.62-46.73-31.16-54.38h0a58.15,58.15,0,0,1-23.66-15.1c-15.37-16.13-20.43-39.81-13.2-61.79,8.36-25.4,31-43.11,62.09-48.58a6.3,6.3,0,0,1,2.18,0l.12,0c29.33,5.67,49.26,21.86,56.11,45.54a47.54,47.54,0,0,0,46.2,34.49c1.1,0,2.2,0,3.29-.1a33,33,0,0,0,20.65-9.12l97.89-93.89m0-39.61a16,16,0,0,0-11.1,4.52L1098.32,242.8c-.37,0-.73,0-1.1,0a14.7,14.7,0,0,1-14.48-10.62c-9.32-32.22-36.12-60-81.57-68.82a39.25,39.25,0,0,0-14.32-.12c-93.07,16.36-117,113.12-67,165.62a91.11,91.11,0,0,0,37,23.6c7.37,2.51,10.65,10,9.33,17L855.89,475.33a15.64,15.64,0,0,0-.79,22.19l99.71,104,1.77,1.38.6.63a14.47,14.47,0,0,0,10.59,4.58,16.44,16.44,0,0,0,15.74-12.58c9.14-35.13,38.19-66.49,86.67-76,2.39-.18,4.79-.26,7.19-.26a96.09,96.09,0,0,1,19.87,2.06c20.41,5.57,36.6,15.31,48.67,27.59,11.71,12.63,20.74,29.24,25.35,49.89a95.31,95.31,0,0,1,.64,27.1c-11.76,48-44.38,75.61-79.88,83.1-12.26,2.62-17.64,17.16-9.15,26l.59.62,1.31,1.88,99.33,104.25a15.2,15.2,0,0,0,11.08,4.72,16.12,16.12,0,0,0,11.15-4.51L1317,736.42a16.31,16.31,0,0,1,2.31-.16c6.33,0,12.37,3.63,14.31,10.28a91.43,91.43,0,0,0,21.94,38.05,93,93,0,0,0,67.5,28.52c43.47,0,87.84-29.28,101-88a39.43,39.43,0,0,0,.5-14.31c-6.74-45.81-33.35-73.87-65.06-84.61a14.74,14.74,0,0,1-9.86-16l110-104.8a15.74,15.74,0,0,0,1.28-21.68l-2.79-4.21-94.86-98.84c-5.6-8.37-1.92-20.61,8.31-23.69a100.09,100.09,0,0,0,39.83-23.27c39.55-37.73,41.31-99.8,3.55-137.48a93.08,93.08,0,0,0-69.2-30.32,99.62,99.62,0,0,0-93.31,66.42,15.76,15.76,0,0,1-24,7.24l-94.53-99.21-4.1-3a15.24,15.24,0,0,0-10.59-4.23Z"/><path class="cls-3" d="M1061.34,1433.88l-1.12-.16c-.42-.07-.84-.11-1.27-.14,24.31-39.54,22.45-88.91-5-132.16a17.16,17.16,0,0,0-1.15-1.58,113.85,113.85,0,0,0-23.33-21.53c-.29-.2-.59-.39-.89-.57-19.9-12-40.68-18.25-61.75-18.6h-.47c-21.2.25-42,6.42-61.92,18.32-.29.17-.56.35-.84.54a113,113,0,0,0-23.45,21.41A17.43,17.43,0,0,0,879,1301c-27.72,43.15-29.87,92.49-5.78,132.14-.39,0-.77.06-1.16.11l-1.1.15-139.38-.09.25-157.67a16.5,16.5,0,0,0-16.5-16.53,16.12,16.12,0,0,0-3.24.33l-1.45.28a30.8,30.8,0,0,0-10.41-1.83,30,30,0,0,0-13.87,3.4l-.15.08c-.52.27-1.08.54-1.67.81l-1.38-.24-3.8-.65-1.22-.2a16.55,16.55,0,0,0-2.72-.23,16.76,16.76,0,0,0-3.23.32l-.91.19a83.57,83.57,0,0,1-11.66,1c-16.52,0-33-5.79-48.85-17l-.09-.06a15.18,15.18,0,0,1-3.71-3.82c-1.9-2.9-3.54-6-5.28-9.27l-.28-.52c-7.6-14.24-11.45-28.39-11.45-42.1a72.69,72.69,0,0,1,.69-9.46c4.53-36.29,34.4-63.65,69.5-63.72a74,74,0,0,1,11.86,1.6l1.53.26a16.54,16.54,0,0,0,2.72.22,15.86,15.86,0,0,0,2.18-.14l1.43-.19c2.82-.41,5.69-.68,8.59-.82a29.74,29.74,0,0,0,12.39,2.68,31.09,31.09,0,0,0,7.17-.85l4.41.88a16.51,16.51,0,0,0,19.71-16.16L732.37,947c0-.29,0-.59,0-.88l1.83-.34,135.57.62a16.6,16.6,0,0,0,2.82-.24,32.49,32.49,0,0,0,23.34-17.42,31.53,31.53,0,0,0,.05-28.62,82.25,82.25,0,0,1-8.88-37.49c0-44.56,35.12-80.85,78.18-80.85l2.07,0h2.42a76.38,76.38,0,0,1,54.42,22.84,81.67,81.67,0,0,1,23.75,58.45,83,83,0,0,1-9,37.38,31.53,31.53,0,0,0-.14,28.61,32.44,32.44,0,0,0,23.26,17.52,17.3,17.3,0,0,0,2.87.26l135.43.08,3.45.66c.45.09.9.15,1.35.2l-.6,151.32a16.42,16.42,0,0,0,3.74,10.53,31.61,31.61,0,0,0,24.45,11.73,30.8,30.8,0,0,0,14.26-3.5,74.79,74.79,0,0,1,34.76-8.51c18.28,0,36.51,6.38,54.17,19a23.79,23.79,0,0,1,5.81,6c20.9,31.49,24,66.26,8.35,95.34-13.8,25.72-40,41.69-68.3,41.69h-.12a74.68,74.68,0,0,1-35-8.65,30.16,30.16,0,0,0-14.13-3.5,32,32,0,0,0-25.66,13.37,16.44,16.44,0,0,0-3.16,9.63l-.62,152.32Z"/><path class="cls-2" d="M965.27,798.24c.54,0,1.09,0,1.63,0h2.85a60,60,0,0,1,42.74,18A65.31,65.31,0,0,1,1031.43,863a66.66,66.66,0,0,1-7.18,30,47.84,47.84,0,0,0-.22,43.43,49,49,0,0,0,35.16,26.44,33.56,33.56,0,0,0,5.74.51l123.68.07-.54,135.63a33,33,0,0,0,7.48,21.06,47.69,47.69,0,0,0,59,12.43l.07,0a58.26,58.26,0,0,1,27.12-6.64c14.78,0,29.79,5.35,44.6,15.89l0,0a7.34,7.34,0,0,1,1.6,1.69c17.42,26.29,20.18,54.87,7.55,78.4-10.92,20.35-31.52,33-53.76,33h-.12a58.32,58.32,0,0,1-27.28-6.75,47.22,47.22,0,0,0-21.82-5.4,48.56,48.56,0,0,0-39,20.15,33.1,33.1,0,0,0-6.31,19.29l-.55,135.81-101.82-.45c14.22-39.8,8.43-84.8-17.07-124.91a35.15,35.15,0,0,0-2.28-3.16,130.16,130.16,0,0,0-26.73-24.66c-.57-.4-1.16-.78-1.76-1.14-22.43-13.51-46-20.57-70-21h-.93c-24.16.29-47.78,7.24-70.21,20.67-.57.34-1.13.7-1.67,1.07a129.12,129.12,0,0,0-26.87,24.54,33.7,33.7,0,0,0-2.3,3.14c-25.7,40-31.75,85-17.75,124.81l-99.25-.07.22-141.16a33,33,0,0,0-33-33.05,34,34,0,0,0-3.63.2,46.61,46.61,0,0,0-29.5,2.23l-.13,0-1.22-.21a32.88,32.88,0,0,0-5.43-.45,33.63,33.63,0,0,0-6.47.64l-.53.11a64.6,64.6,0,0,1-8.84.71c-12.95-.06-26.09-4.72-39.06-13.86-1.4-2.18-2.74-4.7-4.27-7.6l-.26-.47,0-.08c-6.29-11.8-9.49-23.33-9.49-34.3a58.2,58.2,0,0,1,.55-7.35.68.68,0,0,0,0-.14c3.49-28,26.33-49.12,53.12-49.19a74.23,74.23,0,0,1,8.87,1.33l.55.09,1.25.21a33.09,33.09,0,0,0,5.44.45,32.22,32.22,0,0,0,4.38-.29l1.25-.17.34,0c1.23-.18,2.46-.33,3.69-.44a46.54,46.54,0,0,0,22,1.93l1.27.25a32.42,32.42,0,0,0,6.42.63,33,33,0,0,0,33-32.94l.24-141.51,120.76.55h.15a33.17,33.17,0,0,0,5.63-.48,49.09,49.09,0,0,0,35.27-26.26,47.89,47.89,0,0,0,.05-43.47l-.06-.11a65.82,65.82,0,0,1-7-29.95c.07-35.49,27.72-64.35,61.67-64.35h0m0-33c-52.26,0-94.62,43.56-94.67,97.38a99,99,0,0,0,10.63,44.88c4.8,9.53-1.56,20.65-11.47,22.36l-137-.62-5,.91a15.47,15.47,0,0,0-13.26,9.16,22.86,22.86,0,0,1,1.36,7.62l-.26,156.83-8.59-1.7a15.45,15.45,0,0,1-6.2,1.36,13.53,13.53,0,0,1-6.4-1.61l-2.66-1.17a105.92,105.92,0,0,0-14.28,1.09l-1.25.16-1.25-.21c-5.42-1-10.25-1.87-14.89-1.87-44,.08-80.33,34-85.83,78.1a89.91,89.91,0,0,0-.83,11.58c0,15.82,4.24,32.73,13.38,49.84,2,3.7,3.93,7.45,6.4,11.2a31.6,31.6,0,0,0,8,8.19c20.18,14.29,40,20,58.43,20.08a97.83,97.83,0,0,0,14.51-1.21l1.25-.25,1.25.21c4,.66,7.13,1.29,10,1.63,2.43-1,4.89-2,7.25-3.25a13.6,13.6,0,0,1,6.29-1.56,14.87,14.87,0,0,1,8.24,2.6l6.86-1.38-.25,159.21a25.64,25.64,0,0,1-.82,6,15.35,15.35,0,0,0,13.78,9l144,.09,2.2-.3h.92c12.24,0,19-13.87,12.42-24.56-19-30.89-21.45-73.53,5.27-115.12a96.27,96.27,0,0,1,20-18.28c18.16-10.87,36.42-15.78,53.65-16,17.2.29,35.4,5.33,53.51,16.24a97,97,0,0,1,20,18.4c26.52,41.71,23.78,84.34,4.61,115.16-6.59,10.65.14,24.6,12.4,24.6h.84l2.27.34,144,.62h.07a15.75,15.75,0,0,0,15.49-15.9l.62-152.85a15.49,15.49,0,0,1,12.32-6.57,13.94,13.94,0,0,1,6.48,1.62,91.63,91.63,0,0,0,42.62,10.53h.12c72.45,0,125.91-84,73.67-162.7a40.12,40.12,0,0,0-10-10.29c-21.56-15.35-43.42-22-63.74-22a91.55,91.55,0,0,0-42.32,10.35,14.52,14.52,0,0,1-6.7,1.66,15.22,15.22,0,0,1-11.69-5.69l.6-151.89a15.65,15.65,0,0,0-14.73-15.9l-5-1-137-.08c-9.89-1.76-16.19-12.87-11.29-22.41a100.11,100.11,0,0,0,10.77-44.79c.23-54-42.24-97.86-94.67-97.86-.66,0-1.32,0-2,0-.84,0-1.68,0-2.51,0Z"/><path class="cls-4" d="M567.18,906a121.76,121.76,0,0,0,7.72-42.84V863c0-10.88-1.67-21.78-5.25-34.3-14.85-51.51-61.6-87.45-113.71-87.45l-2.1,0-2.44,0c-52.94,0-98.64,35.13-113.72,87.41-3.61,12.64-5.29,23.52-5.29,34.3v.79c0,.35,0,.71,0,1.06A122.41,122.41,0,0,0,340.13,906l-121-.22c-.88,0-1.72,0-2.51.11l.1-136.48a16.48,16.48,0,0,0-3-9.54,31.83,31.83,0,0,0-25.83-13.64,30.27,30.27,0,0,0-14,3.41,74,74,0,0,1-34.6,8.5h-.41c-28.4-.11-54.54-16.22-68.24-42C55.15,687,58.37,652.25,79.43,620.84a23.61,23.61,0,0,1,5.82-6c17.62-12.44,35.76-18.73,53.93-18.73a74.75,74.75,0,0,1,35.09,8.66,30.9,30.9,0,0,0,14.41,3.61A31.76,31.76,0,0,0,213,596.89a16.47,16.47,0,0,0,3.86-10.59L217,435c.44-.05.87-.11,1.3-.19l3.44-.63,135.59.58a16.58,16.58,0,0,0,2.73-.23,32.37,32.37,0,0,0,23.37-17.31,31.51,31.51,0,0,0,.07-28.7A82.42,82.42,0,0,1,374.6,351c.06-44.56,35.13-80.85,78.19-80.85l2,0h.78l1.63,0A76.5,76.5,0,0,1,511.74,293a81.66,81.66,0,0,1,23.72,58.44,82.77,82.77,0,0,1-9,37.39,31.48,31.48,0,0,0-.13,28.63A32.47,32.47,0,0,0,549.61,435a17,17,0,0,0,2.85.25l135.43.09,3.45.66c.45.08.91.15,1.37.2l-.64,151.31A16.45,16.45,0,0,0,695.8,598a31.55,31.55,0,0,0,24.48,11.75,30.87,30.87,0,0,0,14.25-3.49,74.65,74.65,0,0,1,34.77-8.52c18.29,0,36.52,6.38,54.17,18.95a24.25,24.25,0,0,1,5.82,6c20.89,31.53,23.93,66.27,8.34,95.34-13.8,25.71-40,41.68-68.33,41.68h-.11a74.5,74.5,0,0,1-35-8.64,30.38,30.38,0,0,0-14.12-3.49,32,32,0,0,0-25.67,13.34,16.58,16.58,0,0,0-3.17,9.65l-.54,135.31c-.78-.07-1.6-.11-2.47-.11Z"/><path class="cls-2" d="M452.78,286.63l1.62,0H456l1.28,0a60.11,60.11,0,0,1,42.8,18A65.22,65.22,0,0,1,519,351.31a66.5,66.5,0,0,1-7.22,30h0a47.83,47.83,0,0,0-.2,43.47,49,49,0,0,0,35.21,26.42,33,33,0,0,0,5.7.5l123.7.08-.58,135.6a33,33,0,0,0,7.45,21,47.67,47.67,0,0,0,59.08,12.47l.06,0a58.43,58.43,0,0,1,27.14-6.64c14.79,0,29.8,5.35,44.61,15.9a7.59,7.59,0,0,1,1.68,1.79c17.38,26.27,20.11,54.82,7.5,78.33-10.92,20.34-31.53,33-53.79,33h-.11a58.29,58.29,0,0,1-27.29-6.75l-.11-.06a47.21,47.21,0,0,0-21.67-5.32,48.56,48.56,0,0,0-39,20.13,33.06,33.06,0,0,0-6.33,19.3l-.48,118.79-85.39.15a138.71,138.71,0,0,0,2.49-26.3V863c0-12.46-1.87-24.8-5.88-38.84a.19.19,0,0,1,0-.07c-16.87-58.49-70.15-99.34-129.56-99.34h-.66l-1.47,0-1.86,0h-.55C392,724.7,338.69,765.55,321.83,824l0,.07c-4,14.12-5.92,26.44-5.92,38.8v.79c0,.55,0,1.09,0,1.64a139.22,139.22,0,0,0,2.48,24.12l-85.33-.15.09-119.88a33,33,0,0,0-6-19.08,48.35,48.35,0,0,0-39.3-20.62A47.2,47.2,0,0,0,166.31,735l-.15.08a57.73,57.73,0,0,1-26.9,6.59h-.37c-22.28-.09-42.86-12.83-53.7-33.26-12.51-23.58-9.63-52.1,7.89-78.27a7.83,7.83,0,0,1,1.63-1.72l.09-.07c14.75-10.4,29.68-15.67,44.38-15.67a58.51,58.51,0,0,1,27.37,6.74,47.43,47.43,0,0,0,22.13,5.53,48.22,48.22,0,0,0,36.95-17.43,33,33,0,0,0,7.71-21.17l.12-135.64,123.7.53h.14a33.25,33.25,0,0,0,5.46-.46,48.92,48.92,0,0,0,35.36-26.12A47.87,47.87,0,0,0,398.2,381l0-.06a66,66,0,0,1-7.07-30c.07-35.5,27.73-64.38,61.68-64.38M233.47,434.41h0M452.79,253.63c-52.24,0-94.62,43.56-94.69,97.38a99.13,99.13,0,0,0,10.64,44.88c4.8,9.53-1.54,20.66-11.44,22.32l-137-.59-5,.91a15.68,15.68,0,0,0-14.82,15.88l-.13,151.88a15.38,15.38,0,0,1-11.66,5.63,14.22,14.22,0,0,1-6.74-1.72,91.78,91.78,0,0,0-42.76-10.55c-20.2,0-41.93,6.56-63.4,21.71a40.32,40.32,0,0,0-10,10.24c-52.69,78.48.48,162.75,73,163h.5a90.85,90.85,0,0,0,42.15-10.33,14,14,0,0,1,6.41-1.58,15.35,15.35,0,0,1,12.35,6.67l-.12,152.84a16,16,0,0,0,1,5.41,23,23,0,0,1,12.65-4.45v0a21,21,0,0,1,5.3-1l136,.24a8.14,8.14,0,0,0,6.21-7.65l-.8-3.33-.15-.37-.18-.38-.18-.46a106.79,106.79,0,0,1-11-46.63h0v-.79a107.13,107.13,0,0,1,4.65-29.73C366,789.84,404.75,757.7,451.4,757.7l2.46,0,2.08,0c46.6,0,85.35,32.14,97.85,75.48A107.56,107.56,0,0,1,558.4,863v.21a106.56,106.56,0,0,1-11.08,47.25l-.32.83-.14.3-.83,3.28a8.23,8.23,0,0,0,6.25,7.7l136-.24a21.12,21.12,0,0,1,5.29,1v0a22.63,22.63,0,0,1,12.73,4.58l.87-4.29.62-152.84a15.5,15.5,0,0,1,12.34-6.56,13.93,13.93,0,0,1,6.46,1.6,91.34,91.34,0,0,0,42.61,10.53h.11c72.5,0,125.94-84,73.69-162.7a40.33,40.33,0,0,0-9.94-10.28c-21.56-15.36-43.42-22-63.75-22A91.56,91.56,0,0,0,727,591.58a14.48,14.48,0,0,1-6.67,1.65,15.23,15.23,0,0,1-11.71-5.7l.64-151.88a15.71,15.71,0,0,0-14.77-15.9l-5-.95-137-.09c-9.91-1.75-16.22-12.87-11.33-22.4A99.6,99.6,0,0,0,552,351.5c.25-54-42.22-97.85-94.7-97.86l-2,0-2.48,0Z"/><path class="cls-5" d="M560.91,1424.7a123.59,123.59,0,0,0,11.68-52.6c0-25.84-8.05-52.22-23.41-76.25-.17-.27-.34-.53-.53-.78l-.26-.37-.44-.58-.49-.61a120.54,120.54,0,0,0-24.54-22.58,16,16,0,0,0-2.4-1.54c-20.78-12.37-42.65-18.85-65-19.25h-.83c-22.62.41-44.73,7-65.72,19.64-.39.23-.76.48-1.13.75l0,0a121.21,121.21,0,0,0-25.1,22.94l-.23.28c-.36.44-.7.89-1,1.37l-.46.69c-15.33,24-23.44,50.33-23.44,76.22a123.46,123.46,0,0,0,11.72,52.64l-123.37.21L225.63,1278a16.47,16.47,0,0,0-3.07-9.56l-1.49-2.09a39.84,39.84,0,0,0-32.13-16.78,38.51,38.51,0,0,0-17.68,4.35,67.07,67.07,0,0,1-31.33,7.68h-.15c-38.63-.06-70.07-32.89-70.07-73.17,0-17.51,5.72-35,17-51.84l.09-.13a14.46,14.46,0,0,1,3.7-3.75c16.28-11.58,32.93-17.43,49.52-17.43a67.34,67.34,0,0,1,31.24,7.65,38.76,38.76,0,0,0,18.07,4.47A39.54,39.54,0,0,0,219.66,1113c0-.06,1.93-2.37,1.93-2.37a16.56,16.56,0,0,0,3.71-10.45l-.25-147.13,133.12.24a16.12,16.12,0,0,0,3.1-.3l.59-.11a40.26,40.26,0,0,0,32.5-35.19l.22-1.17a16,16,0,0,0,.3-3.09,39.78,39.78,0,0,0-3-14.86c-.13-.41-.29-.82-.46-1.23h0a16.22,16.22,0,0,0-1.14-2.51,74.08,74.08,0,0,1-7.79-33.1v-.25a57.94,57.94,0,0,1,.8-8.53,88.33,88.33,0,0,1,2.59-12.18,74,74,0,0,1,27.34-39.14,66.86,66.86,0,0,1,39.43-13.16l1.91,0h.77l2.17,0c30.9.07,57.72,21,66.77,52.25a75.18,75.18,0,0,1,3.35,20.8v.21a74.88,74.88,0,0,1-7.53,32.72,16.08,16.08,0,0,0-1.15,2.36l-.31.79c-.09.21-.16.42-.24.63a38.72,38.72,0,0,0-3.14,15.18,16.52,16.52,0,0,0,.27,3l.27,1.47a39.83,39.83,0,0,0,32.59,35l.57.11a17.19,17.19,0,0,0,3,.28l133-.24-.15,114.31c-2,.15-4.08.35-6.23.6a97.35,97.35,0,0,0-17.17-1.78h-.08a117.45,117.45,0,0,0-77.85,30,123,123,0,0,0-40.91,91.83,128.1,128.1,0,0,0,2.48,24c1,5,1.93,9.19,3.06,13.07a152.37,152.37,0,0,0,19.65,41.8,64.71,64.71,0,0,0,16,16.53q.52.38,1.08.72l2.13,1.3c23.33,15.73,48.91,24,74,24a113.79,113.79,0,0,0,15-1.06l.19,0c2.26.45,5.05,1,8.31,1.37l-.21,115Z"/><path class="cls-2" d="M452.51,805l1.71,0H456l1.61,0a50.57,50.57,0,0,1,31.3,11.07,58,58,0,0,1,19.47,29.22,59.59,59.59,0,0,1,2.72,16.26v.21a58.41,58.41,0,0,1-5.67,25.08,31.65,31.65,0,0,0-1.88,4l-.31.79c-.09.22-.17.43-.25.64a54.9,54.9,0,0,0-4.26,21.17,33.11,33.11,0,0,0,.54,6l.18,1a56.15,56.15,0,0,0,45.89,48.8l.59.11a33.19,33.19,0,0,0,6,.56h.06l116.47-.21-.11,80.37c-2.19-.16-4.5-.27-6.92-.27h-.13a133.91,133.91,0,0,0-88.77,34.22,139.56,139.56,0,0,0-46.44,104.16,144.81,144.81,0,0,0,2.77,27.11c1.06,5.55,2.14,10.18,3.42,14.58l0,.12A168.58,168.58,0,0,0,554.05,1276a137.67,137.67,0,0,0-21.45-18.48,32.87,32.87,0,0,0-4-2.54c-23.17-13.73-47.68-20.92-72.86-21.37h-1.42c-25.2.45-50.76,8-73.93,22-.72.43-1.42.89-2.11,1.38A137.9,137.9,0,0,0,350,1283l-.22.27a32.55,32.55,0,0,0-2.05,2.74l-.27.41-.38.58c-17,26.64-26,56.07-26,85.11a140.57,140.57,0,0,0,4.72,36.18l-83.4.14-.2-130.42a33,33,0,0,0-6.14-19.12l-1.49-2.09-.09-.12a56.33,56.33,0,0,0-45.47-23.57,55.23,55.23,0,0,0-25.28,6.2l-.08,0a50.61,50.61,0,0,1-23.65,5.79h-.1c-29.57,0-53.62-25.47-53.62-56.67,0-14.1,4.72-28.37,14.05-42.42,13.33-9.44,26.71-14.23,39.75-14.23a51.11,51.11,0,0,1,23.58,5.76,55.23,55.23,0,0,0,25.73,6.36,56,56,0,0,0,43-20.29l.27-.33,1.8-2.21a33,33,0,0,0,7.41-20.89l-.22-130.57,116.53.21h.06a33.44,33.44,0,0,0,6.15-.58l.54-.1a56.82,56.82,0,0,0,45.82-48.9l.11-.6a32.76,32.76,0,0,0,.59-6.18,56.11,56.11,0,0,0-4-20.55c-.17-.51-.36-1-.56-1.51a33,33,0,0,0-1.88-4.15,57.71,57.71,0,0,1-5.94-25.5v-.29a46,46,0,0,1,.61-6l0-.18a70.88,70.88,0,0,1,2.08-9.82s0-.11.05-.16A57.26,57.26,0,0,1,423,815a50.5,50.5,0,0,1,29.56-10M100.6,1145.48h0m463.06,142.39a81.9,81.9,0,0,0,10.51,9c.7.51,1.43,1,2.16,1.43l1.81,1.11c26,17.43,54.63,26.64,82.9,26.64,2.27,0,4.56-.06,6.92-.21l-.15,82.52-83.42-.14a141.05,141.05,0,0,0,4.7-36.08c0-28.71-8.74-57.83-25.43-84.29m25.43,84.23h0M457.33,772l-2,0h-.44l-2.09,0a83.23,83.23,0,0,0-49.3,16.32,90,90,0,0,0-33.45,47.83A104.25,104.25,0,0,0,367,850.5a73.91,73.91,0,0,0-1,11v.29a90.8,90.8,0,0,0,9.69,40.8l.19.34.13.38.2.45-.06,0a23.36,23.36,0,0,1,2.24,9.7l-.36,1.88a23.53,23.53,0,0,1-19.19,21.35l-.66.13-137.69-.25-1.12.21-1.2.25-1.12.41-1.2,0a7.88,7.88,0,0,0-7.3,8l.26,154.71-1.8,2.21a23.1,23.1,0,0,1-17.68,8.45,22.23,22.23,0,0,1-10.41-2.59,84.12,84.12,0,0,0-38.9-9.53c-18.52,0-38.7,6-59,20.44a31.09,31.09,0,0,0-8,8.21c-13.92,20.86-19.77,41.71-19.77,61,0,49.62,38.93,89.59,86.57,89.67h.15a83.71,83.71,0,0,0,38.92-9.53,22,22,0,0,1,10.09-2.5,23.18,23.18,0,0,1,18.7,9.87l1.49,2.08.24,155.34a7.87,7.87,0,0,0,7.62,8.07l143.44-.24,2.28-.34h1.42a6.73,6.73,0,0,0,5.08-2.16,8.62,8.62,0,0,0,2.05-5.63l-1.36-4.78A106.63,106.63,0,0,1,354,1372.06c0-21.69,6.46-44.84,20.84-67.33l.27-.41.28-.33a104.86,104.86,0,0,1,21.68-19.82l.19-.13.17-.12c19.23-11.57,38.89-17,57.51-17.28h.24c18.63.33,38.26,5.71,57.48,17.28l.19.08.2.17A104.5,104.5,0,0,1,534.72,1304l.29.38.27.36c14.36,22.49,20.84,45.64,20.81,67.37a106.47,106.47,0,0,1-15.88,56.21l-1.38,4.74a8.49,8.49,0,0,0,2.08,5.63,6.7,6.7,0,0,0,5.09,2.16h1.38l.55.09,1.71.25,143.49.24a7.9,7.9,0,0,0,7.64-8.07l.25-140.28a77.72,77.72,0,0,1-10.07.72h-.05c-5.93,0-10.6-1.34-14.52-2a103.4,103.4,0,0,1-15.34,1.28c-21,0-43.29-6.65-65.08-21.43l-2.47-1.5a48.6,48.6,0,0,1-11.93-12.33A135.46,135.46,0,0,1,564,1220.59c-1.12-3.86-2-7.74-2.69-11.57a112.19,112.19,0,0,1-2.19-20.94,106.21,106.21,0,0,1,35.4-79.53,100.61,100.61,0,0,1,66.91-25.85l0,7.66v-7.66a93.73,93.73,0,0,1,16.74,2,130.38,130.38,0,0,1,15.49-1.17q3.79,0,7.64.37l.19-138.31a7.76,7.76,0,0,0-6.75-7.94l-.51-.14-1.18,0L692,937l-2.3-.46L552,936.81l-.67-.13a23.54,23.54,0,0,1-19.19-21.18l-.38-2.08a22.6,22.6,0,0,1,2.31-9.79H534l.31-.79.18-.25a91.53,91.53,0,0,0,9.64-40.85v-.21a91.81,91.81,0,0,0-4-25.4C529.34,799,496.48,772,457.33,772Z"/></svg>