<svg id="Layer_1" data-name="Layer 1" xmlns="http://www.w3.org/2000/svg" viewBox="0 0 1596 1596"><defs><style>.cls-1{fill:#f7ca69;}.cls-2{fill:#33b2ba;}.cls-3{fill:#81287f;}</style></defs><path class="cls-1" d="M1460.82,967.86c-13.2,3-28.29,10.82-42.48,21.91-53.13,41.53-106.7,84.42-158.5,125.91-22.63,18.12-46,36.86-69.1,55.25-32.22,25.68-68.78,38.7-108.69,38.7h-.86c-48.83-.23-98.54.09-146.6.4-29.46.19-59.93.39-89.91.46l-8.6,0c-21.52.08-43.79.17-65.89-1.74-27.64-2.39-48.54-24.94-49.7-53.62-1.13-28,16.18-50.38,44.1-57.14,7.17-1.73,14.91-2.52,25.09-2.57,22.47-.09,45.3-.07,67.38-.06,40.87,0,83.12.06,124.6-.6,32.65-.51,60.14-24.49,64-55.78,4.09-33.52-14.57-61.82-46.44-70.4-8.6-2.31-18.65-3.36-32.6-3.4-148.92-.37-272.85-.45-390-.25C508,965.08,446,987.11,392.4,1030.44c-10.46,8.46-21.12,17-31.43,25.28-21.91,17.57-44.56,35.74-66.48,54-15.37,12.77-32.63,18.85-52.8,18.52-37.53-.58-75.45-.51-112.73.19-20.72.39-28.26,8.17-28.82,29.73,0,2,0,4,0,6.16,0,1.16,0,2.32,0,3.48q0,30.51,0,61c0,47.21,0,96-.35,144.07-.12,17.65,3.62,30.43,11.12,38,7.3,7.34,19.52,11.07,36.32,11.07H599c129.57,0,260.53,0,390.08,0h.1c64.74,0,120.32-19.31,169.92-59q41.75-33.44,83.46-66.9c81.55-65.4,165.88-133,249.18-199.09,21.79-17.29,37.66-33.57,44-56.37v-22.87a68,68,0,0,1-3-7C1521.56,978.31,1492,960.71,1460.82,967.86Z"/><path class="cls-2" d="M530,552.74c70.4,87.61,161.78,168.19,287.56,253.58.54-.31,1.3-.78,2.37-1.5C926.06,733.33,1010.84,661.11,1079.08,584,1128.7,528,1159.8,481,1179.91,431.6c33.85-83.07,27.51-154.77-19.38-219.21-30.48-41.89-73.19-68.41-120.25-74.67-46.77-6.22-94.52,8-134.45,40.14-33.85,27.22-56.61,52.5-71.62,79.55L823,277.55l-15.51-17c-7.08-7.77-14-15.66-20.64-23.29-14.61-16.71-28.42-32.49-43.64-46.8-38.38-36.09-79.79-54.21-123.63-54.21a177.48,177.48,0,0,0-55.13,9.16C472.35,175.37,417.2,278.42,438.94,380,454.32,451.84,495.67,510.05,530,552.74Z"/><path class="cls-3" d="M1565.93,1004.13c-.76-1.61-1.48-3.13-1.9-4.32-16.69-48.08-63.22-75.07-110.62-64.18-22.84,5.25-42.75,18.17-55.43,28.08-53.29,41.65-106.94,84.61-158.82,126.15-22.61,18.11-46,36.84-69,55.2-26.59,21.19-55.39,31.5-88.05,31.5h-.73c-49-.23-98.82.1-147,.41-29.42.19-59.85.39-89.76.46-2.89,0-5.77,0-8.66,0-20.8.08-42.3.16-62.91-1.62-12.27-1.06-19.1-11.87-19.51-22-.48-12,6.38-20.65,18.83-23.66,4.57-1.11,10-1.61,17.45-1.64,22.4-.1,45.19-.08,67.23-.07,41,0,83.39.06,125.14-.6,49.08-.77,90.46-37.25,96.27-84.84,6.07-49.77-23-93.5-70.67-106.34-14.72-4-29.71-4.51-41.11-4.54-149-.37-272.95-.45-390.18-.25-76.33.13-145.26,24.63-204.88,72.83-10.41,8.42-21.05,16.95-31.33,25.2-22,17.66-44.79,35.92-66.92,54.31-9.42,7.82-18.72,11.09-31.17,10.89-37.89-.58-76.2-.52-113.86.19-38.48.73-60.24,22.73-61.25,62-.06,2.5,0,4.9,0,7.23,0,1.07,0,2.14,0,3.21q0,30.54,0,61.06c0,47.16,0,95.93-.35,143.86-.18,26.78,6.79,47.47,20.73,61.5C101.13,1448,121.24,1455,147.18,1455H401.45c192.59,0,391.74,0,587.61,0h.11c71.53,0,135.67-22.31,190.6-66.3q41.74-33.43,83.47-66.91c81.52-65.37,165.81-133,249-199,23.93-19,47.28-41.34,56-76.09l.5-2v-34.27l-1.44-3.22C1566.91,1006.19,1566.42,1005.16,1565.93,1004.13Zm-30.18,36.4c-6.36,22.8-22.23,39.08-44,56.37-83.3,66.08-167.63,133.69-249.18,199.09q-41.71,33.45-83.46,66.9c-49.6,39.73-105.18,59-169.92,59h-.1c-129.55,0-260.51,0-390.08,0H147.18c-16.8,0-29-3.73-36.32-11.07-7.5-7.55-11.24-20.33-11.12-38,.33-48,.34-96.86.35-144.07q0-30.51,0-61c0-1.16,0-2.32,0-3.48,0-2.16,0-4.19,0-6.16.56-21.56,8.1-29.34,28.82-29.73,37.28-.7,75.2-.77,112.73-.19,20.17.33,37.43-5.75,52.8-18.52,21.92-18.21,44.57-36.38,66.48-54,10.31-8.27,21-16.82,31.43-25.28C446,987.11,508,965.08,576.55,965c117.18-.2,241.11-.12,390,.25,13.95,0,24,1.09,32.6,3.4,31.87,8.58,50.53,36.88,46.44,70.4-3.82,31.29-31.31,55.27-64,55.78-41.48.66-83.73.63-124.6.6-22.08,0-44.91,0-67.38.06-10.18,0-17.92.84-25.09,2.57-27.92,6.76-45.23,29.18-44.1,57.14,1.16,28.68,22.06,51.23,49.7,53.62,22.1,1.91,44.37,1.82,65.89,1.74l8.6,0c30-.07,60.45-.27,89.91-.46,48.06-.31,97.77-.63,146.6-.4h.86c39.91,0,76.47-13,108.69-38.7,23.06-18.39,46.47-37.13,69.1-55.25,51.8-41.49,105.37-84.38,158.5-125.91,14.19-11.09,29.28-18.87,42.48-21.91,31.14-7.15,60.74,10.45,72,42.8a68,68,0,0,0,3,7Z"/><path class="cls-3" d="M504.19,573.46c72.56,90.3,166.3,173,295,260.39,6.53,4.42,12.64,6,18.08,6,9.84,0,17.43-5.11,21.1-7.58,108.5-73.07,195.34-147.1,265.46-226.32,52.21-59,85.11-108.89,106.7-161.85,18.26-44.82,26.09-87.87,23.27-127.94-3.06-43.53-18.72-85-46.54-123.21-35.86-49.28-86.51-80.53-142.63-88-55.82-7.43-112.48,9.31-159.53,47.15-29.35,23.59-51.31,46.19-67.69,69.81l-5.65-6.45c-14.49-16.57-29.47-33.7-45.87-49.12-30.52-28.69-63.33-47.87-97.55-57-36.46-9.73-74.86-8.19-114.11,4.6-52.84,17.21-97,54.87-124.45,106.06A245.14,245.14,0,0,0,406.6,386.9C423.44,465.56,467.6,527.92,504.19,573.46ZM818.55,806.94ZM564.48,145.37a177.48,177.48,0,0,1,55.13-9.16c43.84,0,85.25,18.12,123.63,54.21,15.22,14.31,29,30.09,43.64,46.8,6.67,7.63,13.56,15.52,20.64,23.29l15.51,17,11.18-20.14c15-27.05,37.77-52.33,71.62-79.55,39.93-32.11,87.68-46.36,134.45-40.14,47.06,6.26,89.77,32.78,120.25,74.67,46.89,64.44,53.23,136.14,19.38,219.21C1159.8,481,1128.7,528,1079.08,584c-68.24,77.1-153,149.32-259.18,220.81-1.07.72-1.83,1.19-2.37,1.5C691.75,720.93,600.37,640.35,530,552.74c-34.3-42.69-75.65-100.9-91-172.76C417.2,278.42,472.35,175.37,564.48,145.37Z"/></svg>