<svg id="Layer_1" data-name="Layer 1" xmlns="http://www.w3.org/2000/svg" viewBox="0 0 1596 1596"><defs><style>.cls-1{fill:#33b2ba;}.cls-2{fill:#f7ca69;}.cls-3{fill:#f36f26;}.cls-4{fill:#81287f;}</style></defs><path class="cls-1" d="M1395.15,238.26c-86.21-36.81-173.82-74.31-258.54-110.58Q1050.81,90.95,965,54.23c-5.94-2.54-10.35-3.79-13.38-3.79a8.06,8.06,0,0,0-1.92.21c-2.92.72-6.74,4.05-11.66,10.18C895,114.36,856.16,162.89,819.3,209.2c-5.24,6.57-7.59,12.57-6.64,16.89s5.45,8.56,12.73,12.2l86.37,43.3c125.19,62.77,254.65,127.67,382.23,191,26.37,13.08,54.54,12.62,77.28-1.25,23.34-14.24,37-39.89,37.42-70.37.22-15,.16-30.25.11-45q0-10.54-.06-21.07h0q0-11.29-.07-22.59c-.08-17.32-.17-35.23.22-52.94C1409.13,248.2,1405.54,242.69,1395.15,238.26Z"/><path class="cls-2" d="M1130.33,498.22C1002,434,869.26,367.63,738.84,302.06c-6.35-3.19-10.36-3.38-17.16-.8-80.3,30.5-186.11,70.54-292.4,109.86-35.55,13.15-62.17,35.25-81.38,67.56C310.8,541.07,272.76,604.28,236,665.42L223.58,686c-28.77,47.83-30.54,95.43-5.39,145.53,12.32,24.56,24.81,49.55,36.89,73.72q12.85,25.71,25.73,51.43c4.35,8.69,8.72,17.37,13.19,26.24,19.92-31.52,48.57-57.32,87-78.43,21.19-11.65,41.87-24.21,63.76-37.5q9-5.46,18.3-11.1l-39.81-92.67,14.47-6.77c42.06-19.7,95.39-47.57,134.69-88.56L580,660l142.34,54.49-11,17.09c0,.08-.15.26-.28.46a64.72,64.72,0,0,1-4.09,6.14c-28.22,36.86-57.41,76.66-77.13,122.13-3.45,8-10.39,13.37-15.61,16.5-25.42,15.28-51.3,30.73-76.33,45.67-41.27,24.63-83.94,50.09-125.66,75.49-41.47,25.25-64.48,77.41-56,126.85,7.57,44,34.56,79.71,74,98.11,39.72,18.5,84.82,16.1,123.74-6.61,21.89-12.77,44-26.15,65.37-39.1,22.43-13.57,45.62-27.61,68.72-41,6.86-4,13.82-8.13,20.55-12.14,30.14-18,61.29-36.51,96.58-49,92.57-32.78,174-94.26,242.05-182.74,66-85.75,115.44-183.55,159.09-269.84,9.38-18.54,18-37.09,27.16-56.74l6-12.9-.06,0Q1184.89,525.5,1130.33,498.22Z"/><path class="cls-3" d="M645.8,1273.16l-4.55,2.71c-15.74,9.39-30.61,18.25-45.54,27C550.2,1329.37,495,1338,440.28,1327c-55.28-11-103.13-40.78-134.73-83.71-8.49-11.54-15.63-23.93-22.47-36a203,203,0,0,0,81.05,301.25c13.19,6,27.64,9.91,42.94,14,6.41,1.73,13,3.51,19.57,5.47h44.87a43.26,43.26,0,0,1,8.59-2.41c107.23-16.51,182.82-113.68,172.08-221.22C651.18,1294.38,648.62,1284,645.8,1273.16Z"/><path class="cls-4" d="M676.94,1261.79c-1.51-5.79-3.07-11.78-4.44-17.79l-5-22.11L648,1233.46c-8.19,4.86-16,9.53-23.64,14.07-15.67,9.34-30.47,18.17-45.27,26.79-80.9,47.19-191.69,24.51-247-50.57-8-10.88-14.8-22.92-22-35.67-3.4-6-6.92-12.27-10.62-18.47l-11.8-19.73-14.92,17.49-2.49,2.87c-2.13,2.44-4.55,5.2-6.88,8.17a235,235,0,0,0-43.59,201.83c17.18,70.58,64.78,128.28,130.59,158.3,15.67,7.15,32.13,11.59,48,15.88,7.25,1.95,14.08,3.8,20.88,5.89l2.37.72h55.22l2.47-.79c1.21-.39,2.31-.8,3.28-1.16s2.07-.76,2.44-.84A235.82,235.82,0,0,0,685,1301.12C683.66,1287.62,680.24,1274.49,676.94,1261.79ZM480.1,1525.62a43.26,43.26,0,0,0-8.59,2.41H426.64c-6.56-2-13.16-3.74-19.57-5.47-15.3-4.13-29.75-8-42.94-14a203,203,0,0,1-81.05-301.25c6.84,12.11,14,24.5,22.47,36C337.15,1286.24,385,1316,440.28,1327c54.72,10.94,109.92,2.35,155.43-24.19,14.93-8.71,29.8-17.57,45.54-27l4.55-2.71c2.82,10.88,5.38,21.22,6.38,31.24C662.92,1411.94,587.33,1509.11,480.1,1525.62Z"/><path class="cls-4" d="M1263.62,528.29c-3.38-1.85-6.3-3.45-9.42-5L1145.09,468.7c-128.33-64.19-261-130.57-391.42-196.12-14.71-7.39-28.19-8.06-43.7-2.17-80.25,30.47-186,70.48-292.13,109.76-42.93,15.87-75.08,42.58-98.31,81.64-37,62.32-75.06,125.5-111.82,186.6L195.3,669c-34.59,57.5-36.81,117.17-6.61,177.34,12.32,24.54,24.8,49.52,36.87,73.67q12.87,25.74,25.74,51.46c6,11.94,12,23.87,18.27,36.29l8.77,17.39,12.41,24.63,15.83-22.58c.52-.75,1-1.34,1.35-1.84a29.8,29.8,0,0,0,3.51-5.6C328,984.2,355.91,956,396.85,933.45c21.82-12,42.79-24.73,65-38.22,9.86-6,20.06-12.19,30.47-18.39l12.42-7.41L466.1,779.49c39.22-19.09,85-44.83,122.3-80.9l83,31.77C645,765.29,618.69,803.08,599.73,846.6a13.92,13.92,0,0,1-2.6,1.95c-25.37,15.25-51.23,30.69-76.24,45.61-41.33,24.67-84.07,50.17-125.91,75.65-52.76,32.12-82.09,98.17-71.33,160.63A166,166,0,0,0,356.22,1205a163.91,163.91,0,0,0,129.42,63.22q3.17,0,6.32-.13a167.71,167.71,0,0,0,78.62-23.24c22.12-12.91,44.34-26.37,65.83-39.38,22.31-13.5,45.37-27.46,68.22-40.75,7-4.08,14-8.27,20.85-12.32,30.08-17.92,58.49-34.84,90.7-46.25A518.21,518.21,0,0,0,959.33,1028c40.91-31.47,79.28-70.35,114.05-115.56,67.84-88.21,118.07-187.48,162.38-275.06,9.62-19,18.78-38.69,27.63-57.71,4.1-8.8,8.33-17.9,12.6-26.9l6.71-14.17-13.81-7.43C1267,530.13,1265.24,529.18,1263.62,528.29Zm-30.15,37.44c-9.14,19.65-17.78,38.2-27.16,56.74-43.65,86.29-93.13,184.09-159.09,269.84-68,88.48-149.48,150-242.05,182.74-35.29,12.49-66.44,31-96.58,49-6.73,4-13.69,8.15-20.55,12.14-23.1,13.44-46.29,27.48-68.72,41-21.38,13-43.48,26.33-65.37,39.1-38.92,22.71-84,25.11-123.74,6.61-39.48-18.4-66.47-54.16-74-98.11-8.51-49.44,14.5-101.6,56-126.85,41.72-25.4,84.39-50.86,125.66-75.49,25-14.94,50.91-30.39,76.33-45.67,5.22-3.13,12.16-8.54,15.61-16.5,19.72-45.47,48.91-85.27,77.13-122.13a64.72,64.72,0,0,0,4.09-6.14c.13-.2.23-.38.28-.46l11-17.09L580,660l-7.58,7.91c-39.3,41-92.63,68.86-134.69,88.56l-14.47,6.77L463,855.93q-9.31,5.63-18.3,11.1c-21.89,13.29-42.57,25.85-63.76,37.5-38.39,21.11-67,46.91-87,78.43-4.47-8.87-8.84-17.55-13.19-26.24Q267.93,931,255.08,905.29c-12.08-24.17-24.57-49.16-36.89-73.72-25.15-50.1-23.38-97.7,5.39-145.53L236,665.42c36.78-61.14,74.82-124.35,111.92-186.74,19.21-32.31,45.83-54.41,81.38-67.56,106.29-39.32,212.1-79.36,292.4-109.86,6.8-2.58,10.81-2.39,17.16.8C869.26,367.63,1002,434,1130.33,498.22q54.56,27.28,109.1,54.58l.06,0Z"/><path class="cls-4" d="M1408.1,207.91c-86.19-36.8-173.79-74.3-258.5-110.57Q1063.79,60.6,978,23.89c-28.15-12-46.56-7.48-65.65,16.27-43.07,53.56-81.93,102.13-118.83,148.48-14.8,18.59-15.26,34.49-13.05,44.55s9.23,24.11,30.17,34.61L897,311.09c125.22,62.78,254.71,127.71,382.35,191a120.35,120.35,0,0,0,53.48,13,106.17,106.17,0,0,0,55.66-15.65c32.72-20,52.62-56.63,53.23-98.06.22-15.26.16-30.71.11-45.64q0-10.47-.06-20.93,0-11.38-.07-22.76c-.08-17.1-.17-34.79.21-52.06C1442.43,235.24,1431.06,217.71,1408.1,207.91Zm.79,51.39c-.39,17.71-.3,35.62-.22,52.94q.06,11.29.07,22.59h0q0,10.53.06,21.07c0,14.78.11,30.07-.11,45-.44,30.48-14.08,56.13-37.42,70.37-22.74,13.87-50.91,14.33-77.28,1.25-127.58-63.29-257-128.19-382.23-191l-86.37-43.3c-7.28-3.64-11.8-8-12.73-12.2s1.4-10.32,6.64-16.89C856.16,162.89,895,114.36,938,60.83c4.92-6.13,8.74-9.46,11.66-10.18a8.06,8.06,0,0,1,1.92-.21c3,0,7.44,1.25,13.38,3.79q85.82,36.71,171.62,73.45c84.72,36.27,172.33,73.77,258.54,110.58C1405.54,242.69,1409.13,248.2,1408.89,259.3Z"/></svg>