<svg id="Layer_1" data-name="Layer 1" xmlns="http://www.w3.org/2000/svg" viewBox="0 0 1596 1596"><defs><style>.cls-1{fill:#f7ca69;}.cls-2{fill:#33b2ba;}.cls-3{fill:#f36f26;}.cls-4{fill:#81287f;}</style></defs><path class="cls-1" d="M258.21,1060.43l16.16,0c-25.31-91.83-38.77-180.18-41.07-269.31-36.44.07-73.45.07-109.26.08q-38.72,0-77.43,0c6.09,94.93,30.47,184.77,72.5,267.19a10.5,10.5,0,0,0,3.33,1.63C167.65,1060.63,213.68,1060.52,258.21,1060.43Z"/><path class="cls-1" d="M366.75,1065.12c37.33-.09,75.27-.1,112-.1q35.07,0,70.15,0L533.41,795.34H321.35c2.64,88.9,17.49,179.6,44.19,269.77Z"/><path class="cls-1" d="M302.46,1153.18c-32.71.21-65.94.2-98.09.18H171.25c24.54,40.49,74.57,93.18,137,143.42,46,37.07,91.91,67.28,130.73,86.72a720.11,720.11,0,0,1-135.36-230.31Z"/><path class="cls-1" d="M861.78,795.51H623.37q2.52,46.77,5.08,93.54c3.14,57.71,6.38,117.35,9.49,176.1,29-.13,55.62-.2,80.44-.2,29.69,0,56.87.1,82.74.28h.19c.35-.54.84-1.36,1.53-2.62,9.81-18,20.4-35.76,30.64-52.94,6-10,12.13-20.35,18-30.55,1.45-2.51,4.84-8.37,5.15-11.81,2.54-29,4.34-53.32,4.89-78,.56-25.28.44-50.14.31-76.46C861.83,807.17,861.8,801.36,861.78,795.51Z"/><path class="cls-1" d="M782.68,1154.47H649.09c10.6,70.47,22.54,139.29,46.25,205.56,9.74,27.22,23.5,55.47,42.06,86.35a22.05,22.05,0,0,0,4.41,5.68c1.15-.55,3.83-2.21,8.08-7l.15-.17c4.77-5.37,9.7-10.92,11.66-15.89,14.58-36.91,28.67-74.81,42.29-111.47l2.73-7.33C788,1257.12,780.06,1206,782.68,1154.47Z"/><path class="cls-1" d="M1426.37,900.87l14.29-105.65h-185.1L1239.21,947C1297.21,911.09,1358.86,895.91,1426.37,900.87Z"/><path class="cls-2" d="M1533.79,1085.87c-22.55-56.86-60.26-89.14-112.09-95.94-62.68-8.21-120.47,12-171.74,60.11-13.18,12.37-24.85,20.6-39,20.6h-.06c-14.36,0-26-8.47-39.1-21.14-27.71-26.83-60.25-45.16-96.71-54.45-20-5.1-37.91-7.67-54.28-7.67-26.34,0-48.67,6.65-69.17,20.19-51.29,33.86-77.8,85-81,156.21-3.33,73.48,19.28,142.51,69.13,211,60.69,83.41,148.69,143.72,269,184.35a9.86,9.86,0,0,0,5,0c103.06-34.73,182.08-84,241.56-150.73,63-70.65,94-149.35,97.59-247.51-1-4.26-2-9.19-3.08-14.76C1546.55,1129.45,1542,1106.51,1533.79,1085.87Z"/><polygon class="cls-3" points="863.81 1419.73 862.62 1422.55 865 1421.46 863.81 1419.73"/><path class="cls-1" d="M1051.92,901.43c33.67,3.89,66.28,13.24,101.1,29.09l13.54-135.15H951V910.7a229.52,229.52,0,0,1,71.1-11A259.16,259.16,0,0,1,1051.92,901.43Z"/><path class="cls-1" d="M399.05,1154.55c43,107.32,128.53,222.85,226.52,268.8-35.48-87.41-50.64-179.25-64.58-268.8Z"/><path class="cls-1" d="M237.57,433.93c-36.81.07-74.87.14-112.36-.34-5.61-.08-5.91.11-8.28,5A708.07,708.07,0,0,0,51.77,650.94c-2.13,15.27-3.36,30.54-4.66,46.72-.12,1.51-.25,3-.37,4.56H233A1149.9,1149.9,0,0,1,274.4,433.87Q256,433.89,237.57,433.93Z"/><path class="cls-1" d="M227.54,347c24.55,0,48.58.09,72.76.39a17.27,17.27,0,0,0,3.31-.2,20,20,0,0,0,1.57-3.57c22.87-64.45,53.89-122.79,92.2-173.42,12.95-17.11,26.72-33.84,40.53-50.2C331.09,172.47,243.78,247.32,172.85,347.1l12.88,0C199.9,347.05,213.81,347,227.54,347Z"/><path class="cls-1" d="M1183.37,347.19c.6,0,1.42.05,2.53,0,28.79-.13,58-.13,86.32-.13q21.4,0,42.8,0c-54.82-84.16-168.58-180.58-265.75-228.62a719.73,719.73,0,0,1,134,228.59S1183.35,347.15,1183.37,347.19Z"/><path class="cls-1" d="M1247.74,435.54q-17.16,0-34.31,0h-.83c25.15,90.91,39,181.83,41.07,270.53,32.89-.05,66.32-.06,98.65-.06q44,0,88,0a686.64,686.64,0,0,0-72.72-269.17,11.34,11.34,0,0,0-3.33-.9C1325.46,435.45,1286,435.5,1247.74,435.54Z"/><path class="cls-1" d="M1089.91,345.92c-15.26-49.27-53.49-111.49-103.67-167.65-42.91-48-88-84.53-125.11-102.11,35.69,87.42,50.85,179.8,65,269.76Z"/><path class="cls-1" d="M533.64,705.2l14.63-269.92-20.26.05c-53.14.13-108,.26-162,1a10,10,0,0,0-1.06,1.88c-22.59,73.33-36.8,153.13-42.22,237.08-.63,9.86-.44,19.91-.22,30.51Z"/><path class="cls-1" d="M1165.8,704.78s0-.1,0-.16c-2.82-88.28-17.38-177.8-43.3-266.09a24.38,24.38,0,0,0-1.09-3.12,20.16,20.16,0,0,0-2.71-.11c-42.63.4-85.93.36-127.81.32q-26.31,0-52.63,0l15.41,269.17Z"/><path class="cls-1" d="M849.26,435.41c-75.07.32-144.26.32-211.48,0-3.2,60.78-6.68,122.52-10,182.24q-2.41,43-4.82,85.91c0,.48,0,1-.06,1.46H863.47q-2.37-45-4.77-90C855.57,556.18,852.33,495.33,849.26,435.41Z"/><path class="cls-1" d="M561.16,345.64c13-85,28.38-178.74,64.54-268.45-41,19.47-77.79,47.83-113.79,87.28-46,50.41-83.17,109.85-113.26,181.17Z"/><path class="cls-1" d="M650.47,338.15q-.63,3.94-1.27,8H837.87c-.11-.69-.21-1.37-.32-2.06-2.26-14.89-4.4-29-6.92-43.07C818.51,233.11,804.15,161.21,774,93.83A190.6,190.6,0,0,0,754,59.23c-6.34-8.69-9.8-10.2-10.47-10.43-.68.23-4.26,1.77-10.86,10.83A189.65,189.65,0,0,0,713.53,93c-25.7,56.57-39.95,116.1-53.43,188.08C656.58,299.82,653.61,318.44,650.47,338.15Z"/><path class="cls-4" d="M207.74,1093.5c17,0,33.87,0,50.54-.07l24.79,0a70.21,70.21,0,0,0,10.59-1c1.29-.19,2.64-.39,4.08-.56l19.34-2.32-5.46-18.69C283,973,268.17,879.63,266.18,785.42c-.31-14.25-7.34-20.94-13.19-24-6.27-3.33-12.8-3.32-18-3.31h-.18c-36.92.08-74.46.08-110.76.09q-40.47,0-80.94,0a90.5,90.5,0,0,0-10.4.77c-1.16.14-2.32.28-3.47.38l-11.94,1.09-2.65,11.68c-.12.53-.26,1-.38,1.4A25.37,25.37,0,0,0,13,782.12c5.15,104,31.12,202.26,77.16,292.21,5.89,11.5,20.65,18.52,31.51,18.67C150.29,1093.39,179.16,1093.5,207.74,1093.5ZM122.55,1060ZM46.61,791.19q38.72,0,77.43,0c35.81,0,72.82,0,109.26-.08,2.3,89.13,15.76,177.48,41.07,269.31l-16.16,0c-44.53.09-90.56.2-135.77-.42a10.5,10.5,0,0,1-3.33-1.63C77.08,976,52.7,886.12,46.61,791.19Z"/><path class="cls-4" d="M265.5,719.08c2.21-101.17,17.46-198.33,46.6-297l6.25-21.18h-40q-20.44,0-40.89.06c-36.68.07-74.62.14-111.86-.34h-.83c-17.79,0-29.73,7.49-37.55,23.53A741,741,0,0,0,19.09,646.38c-2.27,16.22-3.6,32.69-4.88,48.63-.58,7.26-1.19,14.78-1.87,22.18l-1.68,18H265.15ZM46.74,702.22c.12-1.53.25-3.05.37-4.56,1.3-16.18,2.53-31.45,4.66-46.72a708.07,708.07,0,0,1,65.16-212.36c2.37-4.88,2.67-5.07,8.28-5,37.49.48,75.55.41,112.36.34q18.41,0,36.83-.06A1149.9,1149.9,0,0,0,233,702.22Z"/><path class="cls-4" d="M1582.26,1139.74c-3.59-18-8.52-42.63-17.8-66-26.9-67.86-74.78-108.14-138.46-116.49-73-9.58-139.79,13.56-198.62,68.76-11.22,10.52-15.2,11.66-16.39,11.66h0c-1.2,0-5.17-1.16-16.2-11.84-31.89-30.89-69.41-52-111.52-62.73-38.43-9.8-95.77-18.7-149.78,17-59.89,39.54-92.12,100.85-95.81,182.25a333,333,0,0,0,17.65,123.07c12.54,36.8,32,73.42,57.76,108.87,34.29,47.13,77.25,87.94,127.68,121.27,45.28,29.93,96.79,54.44,157.47,74.93a42.36,42.36,0,0,0,26.13,0c108.63-36.6,192.25-89,255.65-160,68.92-77.27,102.61-163.26,106-270.61l.08-2.27-.55-2.21C1584.57,1151.3,1583.5,1145.94,1582.26,1139.74Zm-126.87,268.73c-59.48,66.7-138.5,116-241.56,150.73a9.86,9.86,0,0,1-5,0c-120.34-40.63-208.34-100.94-269-184.35-49.85-68.51-72.46-137.54-69.13-211,3.23-71.25,29.74-122.35,81-156.21,20.5-13.54,42.83-20.19,69.17-20.19,16.37,0,34.29,2.57,54.28,7.67,36.46,9.29,69,27.62,96.71,54.45,13.09,12.67,24.74,21.12,39.1,21.14h.06c14.12,0,25.79-8.23,39-20.6,51.27-48.11,109.06-68.32,171.74-60.11,51.83,6.8,89.54,39.08,112.09,95.94,8.18,20.64,12.76,43.58,16.11,60.33,1.11,5.57,2.1,10.5,3.08,14.76C1549.44,1259.12,1518.4,1337.82,1455.39,1408.47Z"/><path class="cls-4" d="M896.25,720.68a40.93,40.93,0,0,0,.63-8.71q-2.6-49.34-5.23-98.67c-3.18-59.75-6.46-121.53-9.57-182.29-.55-10.7-5.41-28.6-31.8-28.6H850c-75.49.32-145,.32-212.53,0h-.3c-25.39,0-31.58,16.16-32.29,29.74-3.22,61.21-6.73,123.46-10.13,183.66q-2.41,43-4.82,85.93c-.26,4.78-.19,9.41-.13,13.89,0,1.95.06,3.91.06,5.9V738H894.23l1.65-14.65C896,722.38,896.12,721.5,896.25,720.68ZM622.85,705c0-.49,0-1,.06-1.46q2.39-43,4.82-85.91c3.37-59.72,6.85-121.46,10-182.24,67.22.34,136.41.34,211.48,0,3.07,59.92,6.31,120.77,9.44,179.64q2.4,45,4.77,90Z"/><path class="cls-4" d="M593.66,762.51,591.3,776.2c-.13.73-.29,1.45-.46,2.21a30.94,30.94,0,0,0-1,8.81q2.79,51.81,5.62,103.63c3.22,59.12,6.55,120.26,9.72,180.39.43,8.1,4.19,26.92,29.76,26.92h.24c65-.3,117.6-.28,165.68.07h.33c17.37,0,25-9.52,30.59-19.82,9.51-17.44,19.93-34.93,30-51.84,6-10.1,12.25-20.54,18.26-30.93,4.42-7.64,8.62-16,9.45-25.45,2.25-25.62,4.41-53.07,5-80.12.57-25.73.44-52,.32-77.35-.06-11-.11-22.4-.11-33.71v-16.5ZM861.55,889.34c-.55,24.65-2.35,49-4.89,78-.31,3.44-3.7,9.3-5.15,11.81-5.9,10.2-12.06,20.55-18,30.55-10.24,17.18-20.83,34.95-30.64,52.94-.69,1.26-1.18,2.08-1.53,2.62h-.19c-25.87-.18-53-.28-82.74-.28-24.82,0-51.41.07-80.44.2-3.11-58.75-6.35-118.39-9.49-176.1q-2.55-46.77-5.08-93.54H861.78c0,5.85.05,11.66.08,17.37C862,839.2,862.11,864.06,861.55,889.34Z"/><path class="cls-4" d="M288.77,779.65a40.26,40.26,0,0,0-.64,7.31c1.94,95.22,17.48,192.45,46.2,289,6.42,21.57,23.7,22.17,31.79,22.17h.71c37.29-.09,75.21-.1,111.89-.1q38.25,0,76.49,0a80.29,80.29,0,0,0,10.4-.82c.82-.1,1.58-.2,2.24-.26l15.81-1.52-19.09-333H291l-1.79,14.48C289,777.91,288.89,778.83,288.77,779.65Zm244.64,15.69L548.86,1065q-35.07,0-70.15,0c-36.69,0-74.63,0-112,.1h-1.21c-26.7-90.17-41.55-180.87-44.19-269.77Z"/><path class="cls-4" d="M1198.81,737.78v-16.5c0-2.13,0-4.13,0-6,0-4,.06-7.8-.06-11.68-2.91-91.07-17.92-183.37-44.62-274.33-5.39-18.37-16.58-26.94-35.21-26.94h-.58c-42.45.4-85.67.36-127.46.32q-28,0-55.94,0c-4.31,0-8.46.35-11.79.63l-3.39.26-16.37,1,19.07,333.25ZM990.88,435.62c41.88,0,85.18.08,127.81-.32a20.16,20.16,0,0,1,2.71.11,24.38,24.38,0,0,1,1.09,3.12c25.92,88.29,40.48,177.81,43.3,266.09,0,.06,0,.11,0,.16H953.66L938.25,435.61Q964.58,435.58,990.88,435.62Z"/><path class="cls-4" d="M289.83,739l275.08-.84,18.2-335.93-17.47.05-37.71.1c-54.76.13-111.39.26-167,1.12-15,.23-24.95,16.95-27.43,25-23.37,75.87-38.06,158.22-43.64,244.75-.74,11.49-.5,22.95-.27,34,.11,5,.21,10.14.23,15.19Zm32.92-63.62c5.42-84,19.63-163.75,42.22-237.08a10,10,0,0,1,1.06-1.88c54-.78,108.84-.91,162-1l20.26-.05L533.64,705.2l-211.11.64C322.31,695.24,322.12,685.19,322.75,675.33Z"/><path class="cls-4" d="M1247.7,402.54q-17.13,0-34.27,0h-37.25v16.5c0,1,0,1.84-.08,2.65a26.06,26.06,0,0,0,.78,8.84c27.32,94.33,42.09,188.7,43.89,280.49.28,14.44,7.14,21.29,12.84,24.5,5.89,3.3,11.92,3.56,17,3.56h2.48c33.08-.05,66.72-.06,99.26-.06q46.15,0,92.33,0a75.06,75.06,0,0,0,10.74-1c1.29-.18,2.63-.37,4-.54l15.21-1.73-.59-15.3a715.86,715.86,0,0,0-78.13-300.66c-6.14-12.08-22.44-16.74-31.27-16.85C1325.64,402.45,1286,402.5,1247.7,402.54ZM1440.3,706q-44,.06-88,0c-32.33,0-65.76,0-98.65.06-2.12-88.7-15.92-179.62-41.07-270.53h.83q17.16,0,34.31,0c38.21,0,77.72-.09,116.51.38a11.34,11.34,0,0,1,3.33.9A686.64,686.64,0,0,1,1440.3,706Z"/><path class="cls-4" d="M627.66,275c-3.6,19.23-6.6,38.07-9.78,58-1.4,8.8-2.85,17.9-4.35,27l-3.16,19.19h266l-3-19.07q-1.68-10.65-3.22-20.95c-2.3-15.11-4.47-29.38-7.07-43.91-12.48-69.89-27.32-144-59-214.84a225.39,225.39,0,0,0-23.4-40.57c-4.34-5.93-17.52-24-37.12-24h0c-19.72,0-33.11,18.37-37.51,24.4A222.84,222.84,0,0,0,683.49,79.3C656.41,138.9,641.59,200.61,627.66,275ZM713.53,93a189.65,189.65,0,0,1,19.16-33.32c6.6-9.06,10.18-10.6,10.86-10.83.67.23,4.13,1.74,10.47,10.43A190.6,190.6,0,0,1,774,93.83c30.2,67.38,44.56,139.28,56.68,207.14,2.52,14.11,4.66,28.18,6.92,43.07.11.69.21,1.37.32,2.06H649.2q.64-4,1.27-8c3.14-19.71,6.11-38.33,9.63-57.12C673.58,209.05,687.83,149.52,713.53,93Z"/><path class="cls-4" d="M838.08,1320.53a30.89,30.89,0,0,0,0-20.55c-19.5-54.92-26.45-107.38-21.22-160.39l1.78-18.12H614.74V1138c0,1.1,0,2.08-.06,3a45.64,45.64,0,0,0,.29,8.49c11.25,75.65,23.48,149.53,49.3,221.68,10.48,29.3,25.15,59.47,44.84,92.24,8,13.39,18,20.72,29.54,21.79,1,.09,2,.14,2.94.14,11.22,0,22-6,33-18.34l.14-.16c6.37-7.17,13.58-15.29,17.69-25.7,14.69-37.21,28.84-75.27,42.52-112.08Zm-34.09-3c-13.62,36.66-27.71,74.56-42.29,111.47-2,5-6.89,10.52-11.66,15.89l-.15.17c-4.25,4.79-6.93,6.45-8.08,7a22.05,22.05,0,0,1-4.41-5.68c-18.56-30.88-32.32-59.13-42.06-86.35-23.71-66.27-35.65-135.09-46.25-205.56H782.68c-2.62,51.51,5.29,102.65,24,155.73Zm3-6.55,0,0Z"/><path class="cls-4" d="M591.82,1138l-2.56-16.48H352l7.67,21.94c25.25,72.24,66.61,143.89,116.46,201.77,54.78,63.6,115.62,106.19,176,123.17l35.25,9.92-15.92-33C624.43,1348.07,607.85,1241.29,591.82,1138Zm-192.77,16.52H561c13.94,89.55,29.1,181.39,64.58,268.8C527.58,1377.4,442,1261.87,399.05,1154.55Z"/><path class="cls-4" d="M894.8,359.05l3.12,19.87h233.15l-3.77-19.62c-11.15-58-54.68-133.87-116.45-203-28.92-32.38-59.75-60.69-89.13-81.89-32.8-23.64-62.45-37.66-88.14-41.64l-31-4.82,13.63,28.28C862.2,151.7,878.77,257.11,894.8,359.05Zm91.44-180.78c50.18,56.16,88.41,118.38,103.67,167.65H926.14c-14.16-90-29.32-182.34-65-269.76C898.2,93.74,943.33,130.23,986.24,178.27Z"/><path class="cls-4" d="M487.53,142.23C434,200.91,391.89,270.89,358.79,356.17l-8.72,22.47H589.53l2.13-14C607.29,261.63,623.45,155.14,672,54l16.83-35.09-36.92,12.3C590.94,51.48,537.19,87.8,487.53,142.23Zm138.17-65c-36.16,89.71-51.57,183.42-64.54,268.45H398.65c30.09-71.32,67.27-130.76,113.26-181.17C547.91,125,584.75,96.66,625.7,77.19Z"/><path class="cls-4" d="M1048.13,934.21c36.45,4.22,71.84,15.71,111.36,36.16l21.58,11.16,22-219.16H918v198l23.31-10.55C973.88,935,1009.83,929.77,1048.13,934.21ZM951,795.37h215.6L1153,930.52c-34.82-15.85-67.43-25.2-101.1-29.09a259.16,259.16,0,0,0-29.86-1.75,229.52,229.52,0,0,0-71.1,11Z"/><path class="cls-4" d="M1438.64,935.2l16.13,1.91,23.65-174.89h-252.5l-27.47,255.18,30.5-23.24C1293.07,945.32,1361.66,926,1438.64,935.2Zm-183.08-140h185.1l-14.29,105.65c-67.51-5-129.16,10.22-187.16,46.16Z"/><path class="cls-4" d="M510.93,1412.26a28.29,28.29,0,0,0-4.49-5.76,688.35,688.35,0,0,1-171.89-264.71c-7-19.51-21.8-21.64-32.3-21.61-32.6.21-65.78.19-97.87.18q-24.3,0-48.62,0a78,78,0,0,0-9.22.69c-1.07.13-2.16.26-3.28.37l-22.1,2.08,8.36,20.56c19.36,47.64,78.42,114.33,158,178.4S444.57,1429.92,495,1438.68l39.05,6.77L511.39,1413C511.22,1412.74,511.08,1412.49,510.93,1412.26ZM308.21,1296.78c-62.39-50.24-112.42-102.93-137-143.42h33.12c32.15,0,65.38,0,98.09-.18h1.12A720.11,720.11,0,0,0,438.94,1383.5C400.12,1364.06,354.25,1333.85,308.21,1296.78Z"/><path class="cls-4" d="M978.09,91a51.81,51.81,0,0,0,4.34,4.91,688,688,0,0,1,169.86,262.4c7.65,21.13,24.54,21.95,32.73,21.95h1c28.71-.13,57.92-.13,86.17-.13q28.58,0,57.15,0a85.21,85.21,0,0,0,11.16-.95c1.4-.19,2.84-.38,4.34-.54l24.34-2.57-11.51-21.59c-29.44-55.29-87.72-120.24-159.9-178.2-72.36-58.11-147.26-100-205.5-114.87l-50-12.78L975.61,88C976.62,89.18,977.42,90.16,978.09,91ZM1315,347.09q-21.4,0-42.8,0c-28.28,0-57.53,0-86.32.13-1.11,0-1.93,0-2.53,0,0,0,0-.09,0-.13a719.73,719.73,0,0,0-134-228.59C1146.44,166.51,1260.2,262.93,1315,347.09Z"/><path class="cls-4" d="M185.79,380.08c39.41-.08,76.63-.14,114.09.33h.77c18.07,0,29.41-8.19,35.63-25.73,21.74-61.26,51.15-116.62,87.41-164.55,18.23-24.08,37.57-46.73,58.05-70.71,9-10.5,18.24-21.35,27.33-32.26l40.55-48.62L490.5,61.18c-75.56,28.94-144.19,68.09-204,116.37-60.11,48.54-113.51,108.1-158.73,177L111,380.13h30.55C156.59,380.13,171.29,380.1,185.79,380.08ZM437.91,120c-13.81,16.36-27.58,33.09-40.53,50.2-38.31,50.63-69.33,109-92.2,173.42a20,20,0,0,1-1.57,3.57,17.27,17.27,0,0,1-3.31.2c-24.18-.3-48.21-.39-72.76-.39-13.73,0-27.64,0-41.81.06l-12.88,0C243.78,247.32,331.09,172.47,437.91,120Z"/><path class="cls-4" d="M799.26,1487.84l115.1-52.67-57.45-84Zm64.55-68.11,1.19,1.73-2.38,1.09Z"/><path class="cls-3" d="M186.65,1359.48a1.5,1.5,0,0,0,0,3A1.5,1.5,0,0,0,186.65,1359.48Z"/></svg>