<svg id="Layer_1" data-name="Layer 1" xmlns="http://www.w3.org/2000/svg" viewBox="0 0 1596 1596"><defs><style>.cls-1{fill:#02a95c;}.cls-2{fill:#f36f26;}.cls-3{fill:#f7ca69;}.cls-4{fill:#fff;}.cls-5{fill:#81287f;}.cls-6{fill:#33b2ba;}</style></defs><path class="cls-1" d="M368.59,838c13.24,13.11,19.64,13.19,32.63.44,13.61-13.38,27.34-27.15,40.62-40.47l14.89-14.92c20.62-20.61,42.57-42.56,64.21-64.28,18.73-18.78,11.36-26.32,7.41-30.38-4.94-5.06-8.49-5.08-9.66-5.09h-.07c-5.6,0-13.21,4.51-21.43,12.71l-15.73,15.67c-15.57,15.49-31.67,31.5-47.26,47.42-8.09,8.26-16,16.91-24.37,26.06-4,4.34-8,8.79-12.29,13.37l-12.29,13.26-12.08-13.45c-2.69-3-5.1-5.7-7.36-8.24-4.45-5-8.3-9.35-12.16-13.39-5.47-5.76-11.54-11.83-19.09-19.11q-8.74-8.43-16.22-8.44c-3.87,0-7.47,1.71-10.77,5.13-9.93,10.26-.87,21.67,3.48,26.09C327.63,797.24,345.37,815,368.59,838Z"/><path class="cls-1" d="M652.42,386.93c21.82.42,44.11.32,65.66.21q14-.06,28-.09h0q14.49,0,29,.08c22.25.08,45.26.17,67.8-.22,11.9-.2,19.36-6.48,19.49-16.37a15.37,15.37,0,0,0-4.28-11.26c-3.32-3.39-8.41-5.28-14.33-5.32-29.38-.22-58.54-.3-87.7-.3-35.29,0-70.58.12-106.25.26-8,0-12.94,3-16.09,9.73-2.43,5.18-2.31,10.17.35,14.45C637.4,383.47,644.27,386.77,652.42,386.93Z"/><path class="cls-1" d="M513.77,1013.45c-2.25.65-7.12,2.82-14.43,10-25.36,24.89-51,50.59-75.76,75.46q-13,13-26.07,26.13l-9.13,9.13-11.06-6.66-1.49-.88a20.09,20.09,0,0,1-4.55-3.32q-6.36-6.29-12.73-12.61c-7.66-7.59-15.58-15.44-23.41-23.08-7.15-7-12.81-9.12-17.13-9.12-5.28,0-8.56,3.2-10.11,4.71-3.17,3.1-4.73,6.38-4.76,10-.05,5.48,3.27,11.89,9.36,18,16,16.2,33.16,33.33,55.55,55.55,4.71,4.68,11.47,10.26,17,10.27h0c4.38,0,10-3.4,16.74-10.1,31.17-31.06,62.8-62.72,93.39-93.34l28.93-29a60.13,60.13,0,0,0,4.88-5.2c3.53-4.49,6.64-11.48,1.38-19.25C524.55,1011.65,518.44,1012.1,513.77,1013.45Z"/><path class="cls-1" d="M776.06,1144.07c-13.52-.3-27.39-.23-40.81-.16-6.27,0-12.53.06-18.82.06q-9.67,0-19.34,0c-6.3,0-12.71-.05-19.13-.05-8.12,0-16.27,0-24.33.17-7.71.13-14,2.32-17.72,6.18a14.27,14.27,0,0,0-3.84,10.63c.3,15,16.16,16.32,21,16.36,42.2.37,83.5.37,122.77,0,9.21-.09,20.2-3,20.28-16.45S785.26,1144.28,776.06,1144.07Z"/><path class="cls-1" d="M654.09,847.76c75.61.09,157.84.1,251.4,0,10.18,0,22.39-2.79,22.74-16,.11-4.46-1-7.88-3.54-10.45-3.75-3.86-10.58-6-19.24-6-29.37-.1-59.26-.08-88.16-.06l-36.72,0-37.24,0-37.05,0c-17.35,0-34.83,0-52.13.09-8.27,0-22.14,2.18-22.11,16.11C632.06,846.14,647.47,847.76,654.09,847.76Z"/><path class="cls-2" d="M1110.61,320.59c24.44.39,49.36.3,73.56.19L1026.86,163.6c0,3.08-.07,6.15-.1,9.19-.29,24.45-.58,49.74,1.49,74C1032,290.22,1065.05,319.88,1110.61,320.59Z"/><path class="cls-1" d="M1110.85,683.46a74.81,74.81,0,0,0-9.45-.24c-1.32,0-2.64,0-4,0h0q-148.56,0-297.13,0H731.67q-40,0-80.12,0h0c-11.72,0-15.77,4.41-18.23,11-1.95,5.25-1.58,10,1.06,13.86,3.32,4.79,9.77,7.55,17.7,7.58,52.56.21,106,.18,157.7.15q34.51,0,69,0h49q64.19,0,128.38,0h.7q6.89,0,13.77,0c13.29.08,27,.16,40.29-.46,8.36-.4,14.45-6.63,14.82-15.17C1126.1,691.89,1119.56,684.52,1110.85,683.46Z"/><path class="cls-1" d="M369.25,509.48c12.46,12.25,19.28,12.23,31.74-.09,16-15.82,32.22-32.05,47.88-47.75q9.86-9.88,19.72-19.76l16.82-16.76c13.8-13.74,28.07-27.94,41.85-42.07,7.28-7.46,6.56-13.09,4.71-18.05-1.48-4-4.87-10.56-11-10.11-6.58.48-14.92,4.05-19.38,8.3-25.73,24.53-50.63,49.63-77,76.21-9.42,9.5-19.17,19.33-29,29.21l-12.45,12.47-11.62-13.24c-2.35-2.67-4.52-5.18-6.59-7.57-4.3-5-8-9.26-11.84-13.33-5.66-6-11.87-12.22-19-19-2.42-2.3-8.94-7.76-16.13-7.76a14.19,14.19,0,0,0-10.24,4.51c-8.47,8.4-4.07,19,2.86,26.08C327.92,468.51,346.55,487.16,369.25,509.48Z"/><path class="cls-1" d="M646.58,485.92c-8.75,1.29-15.1,8.79-14.45,17.06.79,10.07,7.9,15.2,21.13,15.23,52.23.11,105.35.1,156.72.08h109.9q51.79,0,103.59,0h1.63c7.29,0,14.58,0,21.88.05,20.53.06,41.75.13,62.51-.34,9.56-.22,16.25-6.75,16.27-15.87,0-8.92-6.92-15.65-16.88-16.36-1.3-.1-2.89-.08-4.58-.07h-2q-223.71,0-447.4,0c-.58,0-1.26,0-1.9,0A48.31,48.31,0,0,0,646.58,485.92Z"/><path class="cls-3" d="M881.57,1283c-24.42-69.91-26.77-144-6.77-214.14C902.27,972.41,951.13,899,1020,850.75c62.35-43.69,141.6-67.12,235.73-69.74V420.1l-26.66,0c-37.31.06-72.56.12-108.49-.24-14.8-.15-32.23-.81-49.33-4.59-41.43-9.16-77-30.87-102.8-62.81s-39.63-71.2-40-113.67c-.34-36.86-.26-73-.17-111.29q0-18.11.07-36.47c-3.38-.26-6.51-.43-9.55-.43-124.68,0-254.22-.1-385.94-.1-91.24,0-183.52,0-276,.08-50.46,0-85.71,35.19-85.73,85.51-.09,391.1-.09,787.72,0,1178.82,0,50.3,35.29,85.44,85.79,85.47,231.37.13,466.62.08,694.12,0h35.14C938,1395.84,902.22,1342.09,881.57,1283Z"/><path class="cls-1" d="M1158.71,701.68a48.49,48.49,0,0,1-46.24,46.7c-9.46.44-19,.55-28.3.55q-6.93,0-13.73,0c-4.76,0-9.5,0-14.26,0q-64.2,0-128.41,0h-49q-34.5,0-69,0c-51.73,0-105.22.06-157.85-.15-18.87-.07-35.16-8-44.7-21.8-8.79-12.7-10.56-28.79-4.86-44.14,7.8-21,25.26-32.53,49.17-32.53h.07q40,0,80.09,0h68.62q148.56,0,297.13,0c1.2,0,2.35,0,3.53,0a102.79,102.79,0,0,1,13.86.48C1140.53,653.81,1159.82,676.2,1158.71,701.68Z"/><path class="cls-1" d="M1102.34,452.69h1.71c2.14,0,4.57,0,7.17.15,27.18,1.94,47.62,23.16,47.54,49.37-.07,27.18-20.93,48.14-48.52,48.77-13.84.31-27.8.39-41.6.39-7.31,0-14.58,0-21.76,0-7.8,0-15.58-.05-23.39-.05q-51.81,0-103.61,0h-43q-33.46,0-66.93,0c-51.39,0-104.53,0-156.81-.08-30.6-.07-51.78-18-53.95-45.65-2-25.5,16.68-48.47,42.52-52.29a74.57,74.57,0,0,1,11.48-.58h1.71Q878.64,452.67,1102.34,452.69Z"/><path class="cls-4" d="M284.5,401.3c20-19.85,49.74-18.72,72.34,2.74,7.56,7.18,14.2,13.81,20.29,20.28,2.58,2.74,5.09,5.54,7.62,8.43,5.57-5.6,11.07-11.15,16.46-16.59,26.53-26.74,51.59-52,77.66-76.85,9.95-9.5,25.56-16.3,39.75-17.33,19.51-1.44,36.49,10.64,44.27,31.48,7,18.8,2.75,37.49-12,52.63-14,14.31-28.31,28.6-42.19,42.42q-8.4,8.34-16.77,16.71-9.85,9.86-19.69,19.72c-15.7,15.75-31.94,32-48.05,47.93-12.8,12.65-25.56,18.81-39,18.84h-.1c-13.42,0-26.17-6.12-39-18.7-22.87-22.48-41.65-41.27-59.11-59.16C265.44,451.78,264.39,421.26,284.5,401.3Z"/><path class="cls-4" d="M283.84,731.35c20.5-21.21,50.09-20.2,73.63,2.49,7.9,7.62,14.28,14,20.1,20.12,2.69,2.84,5.31,5.71,8.05,8.77,8.52-9.31,16.56-18.1,25-26.72,15.74-16.07,31.92-32.16,47.56-47.73q7.86-7.81,15.7-15.63c14.87-14.83,29.92-22.35,44.74-22.35h.29c12.1.08,23.53,5.28,33.06,15.05,13.87,14.22,15.14,29,13.75,38.84-1.77,12.67-9,25.41-21.41,37.88-21.66,21.73-43.61,43.69-64.24,64.32l-14.86,14.88c-13.34,13.38-27.13,27.21-40.86,40.7-13,12.75-26.07,19.13-39.17,19.13q-19.92,0-39.81-19.65c-23.32-23.1-41.16-41-57.85-57.93C265.71,781.34,264.2,751.66,283.84,731.35Z"/><path class="cls-4" d="M555,1059.91a89.31,89.31,0,0,1-7.58,8.23l-1.11,1.11L518.54,1097c-30.6,30.63-62.25,62.31-93.45,93.4-13.25,13.2-26.63,19.8-40,19.8s-26.89-6.64-40.27-19.93c-22.46-22.29-39.66-39.49-55.76-55.76-12.49-12.64-19-27-18.9-41.56.11-12.54,5.2-24.08,14.72-33.36,20.9-20.39,49.68-18.66,73.33,4.41,7.92,7.73,15.89,15.63,23.59,23.27l3.42,3.39,15-15.05c24.85-24.93,50.54-50.7,76-75.71,9.52-9.34,19.06-15.45,28.36-18.14,20.73-6,40.59,1.47,53.14,20C570,1019.88,568.9,1042.16,555,1059.91Z"/><path class="cls-1" d="M603.85,349.62c8.53-18.16,25.24-28.62,45.83-28.7,65.25-.26,129.2-.44,194.32,0,14.77.11,28.15,5.51,37.66,15.22A48.34,48.34,0,0,1,895.37,371c-.36,27.85-22.19,48.44-51.93,49-22.88.39-46.07.3-68.49.22q-14.43-.06-28.85-.08-13.94,0-27.86.09c-9.62.05-19.38.09-29.2.09-12.39,0-24.86-.07-37.25-.3-19.38-.38-36.49-9.5-45.75-24.41C597.44,381.69,596.64,365,603.85,349.62Z"/><path class="cls-1" d="M654,782.26c29.8-.12,60.07-.09,89.35-.07q36.95,0,73.9,0c28.94,0,58.86,0,88.31.06,17.87.07,32.67,5.62,42.8,16,8.75,9,13.2,20.88,12.85,34.3-.75,28.79-23.14,48.15-55.7,48.17-44.82,0-87,.06-127.18.06-43.68,0-84.88,0-124.29-.07-32.34,0-55-20.32-55-49.33C599,802.61,621.59,782.4,654,782.26Z"/><path class="cls-1" d="M776.17,1210.2c-19.93.19-40.37.28-61.18.28-20.42,0-41.2-.09-62.19-.27-31.06-.27-53.16-20.3-53.73-48.7a47.46,47.46,0,0,1,13.08-34.2c9.86-10.22,24.4-16,40.94-16.26,14.77-.24,29.69-.19,44.13-.13q9.62,0,19.22,0h0q9.33,0,18.64-.06c13.64-.07,27.74-.15,41.72.17,15.05.34,28,5.13,37.4,13.85,9.71,9,15,21.78,14.93,36C829,1189.64,807.19,1209.9,776.17,1210.2Z"/><path class="cls-1" d="M815.66,1063.29c-9.28,9.51-22.5,14.82-37.24,15-21.17.18-42.39.27-63.5.27-21.8,0-43.48-.1-64.89-.29-14.75-.13-28.11-5.63-37.59-15.48a48.11,48.11,0,0,1-13.36-35.07c.76-27.11,22.17-47.2,50.91-47.75,15.23-.3,30.63-.23,45.52-.16q9.81,0,19.61.06c6.26,0,12.51,0,18.77-.07,14.67-.07,29.84-.15,44.86.16,14.3.29,26.66,5,35.74,13.48s14.41,20.91,14.64,34.56S824.58,1054.14,815.66,1063.29Z"/><path class="cls-1" d="M778.07,1012.9c-14.6-.3-29.55-.22-44-.15-6.31,0-12.61.07-18.92.07h0q-9.89,0-19.77-.06c-6.43,0-13-.06-19.53-.06-8.41,0-16.86,0-25.2.21-11.18.22-18.3,6.23-18.56,15.69a15.13,15.13,0,0,0,4.13,11.24c3.29,3.42,8.31,5.33,14.13,5.38,42,.38,85,.39,127.81,0,6,0,10.76-1.78,13.89-5,2.77-2.84,4.19-6.9,4.11-11.74C795.92,1015.91,786.19,1013.07,778.07,1012.9Z"/><path class="cls-1" d="M1241.39,880.82h-.16c-154.23,0-279.76,125.38-279.88,279.58a277.92,277.92,0,0,0,81.93,197.84c52.89,53,123.08,82.18,197.66,82.23h.18a278,278,0,0,0,197.68-81.94c53-52.88,82.16-123.08,82.2-197.69a280.07,280.07,0,0,0-279.61-280Z"/><path class="cls-1" d="M1429.77,1072.69c-2,12.76-9.41,25.33-22.51,38.43-54.37,54.41-112.6,112.66-170,170-14.81,14.81-28.79,22.21-42.73,22.22-13.78,0-27.52-7.23-42-21.68q-18.54-18.51-37-37c-15-15-30.5-30.53-45.78-45.75-14.74-14.69-20.3-30.95-16.53-48.33,3.86-17.77,16.25-31.53,33.15-36.81,17.29-5.4,35.87-.91,49.69,12,15.58,14.55,30.67,29.9,45.27,44.74q6.54,6.64,13.1,13.29l.2.2,31.54-31.56c37.65-37.69,74.23-74.31,110.83-110.91,15.81-15.82,30.86-23.51,46-23.51h.41c8.38.08,20.9,2.79,32.92,15.28C1430.32,1047.84,1431.36,1062.75,1429.77,1072.69Z"/><path class="cls-1" d="M1383.06,1051c-3.34,0-10.65,1.73-22.76,13.84-36.6,36.6-73.18,73.22-110.83,110.9l-57.5,57.54-11.52-14.38c-1.54-1.93-2.91-3.73-4.12-5.31a69.57,69.57,0,0,0-5.39-6.59q-6.6-6.66-13.18-13.37c-14.36-14.6-29.2-29.69-44.27-43.77a18.44,18.44,0,0,0-12.56-5.35,15.85,15.85,0,0,0-4.76.73c-5.5,1.72-9.41,6.2-10.74,12.31-1,4.44-.71,9.69,7.57,18,15.3,15.25,30.83,30.79,45.84,45.81q18.5,18.51,37,37c8,8,14.29,12,18.71,12h.07c4.53,0,11-4.25,19.32-12.53,57.38-57.34,115.61-115.59,170-170,19.89-19.9,12.82-27.24,8.59-31.63C1388.09,1051.56,1385,1051,1383.06,1051Z"/><path class="cls-5" d="M906.53,1077.88C956.34,903,1079.4,814.18,1272.28,813.77l16.47,0V387.09h-16.5q-21.82,0-43.22.05c-37.21.06-72.35.12-108.1-.24-13.1-.13-28.4-.69-42.54-3.81-69.29-15.31-116.29-73.41-117-144.57-.34-36.67-.26-72.73-.17-110.91q.06-25.59.08-51.76V60.44l-15.38-1c-3.11-.21-6.09-.47-9-.72-6.21-.53-12.07-1-18.2-1-211-.09-436-.16-661.95,0-68.77,0-118.69,49.88-118.71,118.5-.09,391.11-.09,787.73,0,1178.84,0,68.6,50,118.42,118.77,118.46,107.69.06,216.17.08,324.36.08,124.28,0,248.16,0,369.78,0l66.56,0a71.9,71.9,0,0,0,9.8-.84c1.35-.18,2.81-.38,4.44-.55l41.43-4.5L1040,1442.46C919.49,1351.61,868.35,1211.91,906.53,1077.88Zm44.52,362.57c-227.5,0-462.75.1-694.12,0-50.5,0-85.77-35.17-85.79-85.47-.09-391.1-.09-787.72,0-1178.82,0-50.32,35.27-85.48,85.73-85.51,92.46-.06,184.74-.08,276-.08,131.72,0,261.26,0,385.94.1,3,0,6.17.17,9.55.43q0,18.39-.07,36.47c-.09,38.27-.17,74.43.17,111.29.4,42.47,14.24,81.77,40,113.67s61.37,53.65,102.8,62.81c17.1,3.78,34.53,4.44,49.33,4.59,35.93.36,71.18.3,108.49.24l26.66,0V781c-94.13,2.62-173.38,26-235.73,69.74C951.13,899,902.27,972.41,874.8,1068.84c-20,70.18-17.65,144.23,6.77,214.14,20.65,59.11,56.47,112.86,104.62,157.46Z"/><path class="cls-5" d="M653.23,452.69a74.57,74.57,0,0,0-11.48.58c-25.84,3.82-44.52,26.79-42.52,52.29,2.17,27.66,23.35,45.58,53.95,45.65,52.28.11,105.42.1,156.81.08q33.46,0,66.93,0h43q51.79,0,103.61,0c7.81,0,15.59,0,23.39.05,7.18,0,14.45,0,21.76,0,13.8,0,27.76-.08,41.6-.39,27.59-.63,48.45-21.59,48.52-48.77.08-26.21-20.36-47.43-47.54-49.37-2.6-.19-5-.17-7.17-.15h-1.71q-223.69,0-447.4,0Z"/><path class="cls-5" d="M1114.81,650.7a102.79,102.79,0,0,0-13.86-.48c-1.18,0-2.33,0-3.53,0q-148.56,0-297.13,0H731.67q-40,0-80.09,0h-.07c-23.91,0-41.37,11.55-49.17,32.53-5.7,15.35-3.93,31.44,4.86,44.14,9.54,13.78,25.83,21.73,44.7,21.8,52.63.21,106.12.18,157.85.15q34.5,0,69,0h49q64.2,0,128.41,0c4.76,0,9.5,0,14.26,0q6.8,0,13.73,0c9.35,0,18.84-.11,28.3-.55a48.49,48.49,0,0,0,46.24-46.7C1159.82,676.2,1140.53,653.81,1114.81,650.7Z"/><path class="cls-5" d="M651.79,419.93c12.39.23,24.86.3,37.25.3,9.82,0,19.58,0,29.2-.09q13.93-.06,27.86-.09,14.43,0,28.85.08c22.42.08,45.61.17,68.49-.22,29.74-.51,51.57-21.1,51.93-49a48.34,48.34,0,0,0-13.71-34.78c-9.51-9.71-22.89-15.11-37.66-15.22-65.12-.48-129.07-.3-194.32,0-20.59.08-37.3,10.54-45.83,28.7-7.21,15.34-6.41,32.07,2.19,45.9C615.3,410.43,632.41,419.55,651.79,419.93Z"/><path class="cls-5" d="M814.2,1124.93c-9.42-8.72-22.35-13.51-37.4-13.85-14-.32-28.08-.24-41.72-.17q-9.32,0-18.64.06h0q-9.62,0-19.22,0c-14.44-.06-29.36-.11-44.13.13-16.54.27-31.08,6-40.94,16.26a47.46,47.46,0,0,0-13.08,34.2c.57,28.4,22.67,48.43,53.73,48.7,21,.18,41.77.27,62.19.27,20.81,0,41.25-.09,61.18-.28,31-.3,52.8-20.56,53-49.26C829.21,1146.71,823.91,1133.92,814.2,1124.93Z"/><path class="cls-5" d="M654.05,880.76c39.41,0,80.61.07,124.29.07,40.13,0,82.36,0,127.18-.06,32.56,0,55-19.38,55.7-48.17.35-13.42-4.1-25.28-12.85-34.3-10.13-10.43-24.93-16-42.8-16-29.45-.1-59.37-.08-88.31-.06q-36.94,0-73.9,0c-29.28,0-59.55-.05-89.35.07-32.42.14-55,20.35-55,49.17C599.09,860.44,621.71,880.72,654.05,880.76Z"/><path class="cls-5" d="M814.49,993.39c-9.08-8.52-21.44-13.19-35.74-13.48-15-.31-30.19-.23-44.86-.16-6.26,0-12.51.07-18.77.07q-9.79,0-19.61-.06c-14.89-.07-30.29-.14-45.52.16-28.74.55-50.15,20.64-50.91,47.75a48.11,48.11,0,0,0,13.36,35.07c9.48,9.85,22.84,15.35,37.59,15.48,21.41.19,43.09.29,64.89.29,21.11,0,42.33-.09,63.5-.27,14.74-.13,28-5.44,37.24-15,8.92-9.15,13.7-21.7,13.47-35.34S823.7,1002,814.49,993.39Z"/><path class="cls-4" d="M1102.34,485.69h2c1.69,0,3.28,0,4.58.07,10,.71,16.91,7.44,16.88,16.36,0,9.12-6.71,15.65-16.27,15.87-20.76.47-42,.4-62.51.34-7.3,0-14.59-.05-21.88-.05h-1.63q-51.79,0-103.59,0H810c-51.37,0-104.49,0-156.72-.08-13.23,0-20.34-5.16-21.13-15.23-.65-8.27,5.7-15.77,14.45-17.06a48.31,48.31,0,0,1,6.46-.23c.64,0,1.32,0,1.9,0Q878.64,485.67,1102.34,485.69Z"/><path class="cls-4" d="M1110.92,715.42c-13.26.62-27,.54-40.29.46q-6.89,0-13.77,0h-.7q-64.2,0-128.38,0h-49q-34.51,0-69,0c-51.69,0-105.14.06-157.7-.15-7.93,0-14.38-2.79-17.7-7.58-2.64-3.82-3-8.61-1.06-13.86,2.46-6.62,6.51-11,18.23-11h0q40.07,0,80.12,0h68.62q148.56,0,297.13,0h0c1.32,0,2.64,0,4,0a74.81,74.81,0,0,1,9.45.24c8.71,1.06,15.25,8.43,14.89,16.79C1125.37,708.79,1119.28,715,1110.92,715.42Z"/><path class="cls-4" d="M633.72,363.65c3.15-6.7,8.11-9.7,16.09-9.73,35.67-.14,71-.26,106.25-.26,29.16,0,58.32.08,87.7.3,5.92,0,11,1.93,14.33,5.32a15.37,15.37,0,0,1,4.28,11.26c-.13,9.89-7.59,16.17-19.49,16.37-22.54.39-45.55.3-67.8.22q-14.49-.06-29-.08h0q-14,0-28,.09c-21.55.11-43.84.21-65.66-.21-8.15-.16-15-3.46-18.35-8.83C631.41,373.82,631.29,368.83,633.72,363.65Z"/><path class="cls-4" d="M775.85,1177.2c-39.27.38-80.57.38-122.77,0-4.85,0-20.71-1.35-21-16.36a14.27,14.27,0,0,1,3.84-10.63c3.71-3.86,10-6,17.72-6.18,8.06-.13,16.21-.17,24.33-.17,6.42,0,12.83,0,19.13.05s12.89,0,19.34,0c6.29,0,12.55,0,18.82-.06,13.42-.07,27.29-.14,40.81.16,9.2.21,20.15,3.27,20.07,16.68S785.06,1177.11,775.85,1177.2Z"/><path class="cls-4" d="M654.15,815.26c17.3-.07,34.78-.09,52.13-.09l37.05,0,37.24,0,36.72,0c28.9,0,58.79,0,88.16.06,8.66,0,15.49,2.18,19.24,6,2.5,2.57,3.65,6,3.54,10.45-.35,13.24-12.56,16-22.74,16-93.56.09-175.79.08-251.4,0-6.62,0-22-1.62-22.05-16.39C632,817.44,645.88,815.3,654.15,815.26Z"/><path class="cls-4" d="M792,1040.25c-3.13,3.21-7.94,4.94-13.89,5-42.84.37-85.85.36-127.81,0-5.82,0-10.84-2-14.13-5.38a15.13,15.13,0,0,1-4.13-11.24c.26-9.46,7.38-15.47,18.56-15.69,8.34-.16,16.79-.21,25.2-.21,6.56,0,13.1,0,19.53.06q9.89,0,19.77.06h0c6.31,0,12.61,0,18.92-.07,14.46-.07,29.41-.15,44,.15,8.12.17,17.85,3,18.07,15.61C796.22,1033.35,794.8,1037.41,792,1040.25Z"/><path class="cls-5" d="M346.12,533c12.79,12.58,25.54,18.7,39,18.7h.1c13.44,0,26.2-6.19,39-18.84,16.11-15.91,32.35-32.18,48.05-47.93q9.84-9.85,19.69-19.72,8.37-8.37,16.77-16.71c13.88-13.82,28.24-28.11,42.19-42.42,14.76-15.14,19-33.83,12-52.63-7.78-20.84-24.76-32.92-44.27-31.48-14.19,1-29.8,7.83-39.75,17.33-26.07,24.84-51.13,50.11-77.66,76.85-5.39,5.44-10.89,11-16.46,16.59-2.53-2.89-5-5.69-7.62-8.43-6.09-6.47-12.73-13.1-20.29-20.28-22.6-21.46-52.34-22.59-72.34-2.74s-19.06,50.48,2.51,72.55C304.47,491.74,323.25,510.53,346.12,533ZM307.75,424.72A14.19,14.19,0,0,1,318,420.21c7.19,0,13.71,5.46,16.13,7.76,7.11,6.75,13.32,12.95,19,19,3.83,4.07,7.54,8.36,11.84,13.33,2.07,2.39,4.24,4.9,6.59,7.57l11.62,13.24,12.45-12.47c9.87-9.88,19.62-19.71,29-29.21,26.36-26.58,51.26-51.68,77-76.21,4.46-4.25,12.8-7.82,19.38-8.3,6.09-.45,9.48,6.14,11,10.11,1.85,5,2.57,10.59-4.71,18.05-13.78,14.13-28.05,28.33-41.85,42.07l-16.82,16.76q-9.87,9.87-19.72,19.76C433.21,477.34,417,493.57,401,509.39c-12.46,12.32-19.28,12.34-31.74.09-22.7-22.32-41.33-41-58.64-58.68C303.68,443.7,299.28,433.12,307.75,424.72Z"/><path class="cls-5" d="M345.37,861.45q19.85,19.65,39.81,19.65c13.1,0,26.19-6.38,39.17-19.13,13.73-13.49,27.52-27.32,40.86-40.7l14.86-14.88c20.63-20.63,42.58-42.59,64.24-64.32,12.43-12.47,19.64-25.21,21.41-37.88,1.39-9.87.12-24.62-13.75-38.84-9.53-9.77-21-15-33.06-15.05h-.29c-14.82,0-29.87,7.52-44.74,22.35q-7.83,7.82-15.7,15.63c-15.64,15.57-31.82,31.66-47.56,47.73-8.44,8.62-16.48,17.41-25,26.72-2.74-3.06-5.36-5.93-8.05-8.77-5.82-6.11-12.2-12.5-20.1-20.12-23.54-22.69-53.13-23.7-73.63-2.49-19.64,20.31-18.13,50,3.68,72.17C304.21,820.49,322.05,838.35,345.37,861.45Zm-37.8-107.16c3.3-3.42,6.9-5.13,10.77-5.13q7.46,0,16.22,8.44c7.55,7.28,13.62,13.35,19.09,19.11,3.86,4,7.71,8.38,12.16,13.39,2.26,2.54,4.67,5.26,7.36,8.24l12.08,13.45,12.29-13.26c4.25-4.58,8.32-9,12.29-13.37,8.37-9.15,16.28-17.8,24.37-26.06,15.59-15.92,31.69-31.93,47.26-47.42L497.19,696c8.22-8.2,15.83-12.71,21.43-12.71h.07c1.17,0,4.72,0,9.66,5.09,3.95,4.06,11.32,11.6-7.41,30.38-21.64,21.72-43.59,43.67-64.21,64.28L441.84,798c-13.28,13.32-27,27.09-40.62,40.47-13,12.75-19.39,12.67-32.63-.44-23.22-23-41-40.76-57.54-57.62C306.7,776,297.64,764.55,307.57,754.29Z"/><path class="cls-5" d="M504.58,981.76c-9.3,2.69-18.84,8.8-28.36,18.14-25.48,25-51.17,50.78-76,75.71l-15,15.05-3.42-3.39c-7.7-7.64-15.67-15.54-23.59-23.27-23.65-23.07-52.43-24.8-73.33-4.41-9.52,9.28-14.61,20.82-14.72,33.36-.13,14.55,6.41,28.92,18.9,41.56,16.1,16.27,33.3,33.47,55.76,55.76,13.38,13.29,26.84,19.94,40.27,19.93s26.77-6.6,40-19.8c31.2-31.09,62.85-62.77,93.45-93.4l27.72-27.75,1.11-1.11a89.31,89.31,0,0,0,7.58-8.23c13.95-17.75,15-40,2.77-58.13C545.17,983.23,525.31,975.75,504.58,981.76Zm-110.1,118.07,0,0ZM529,1039.52a60.13,60.13,0,0,1-4.88,5.2l-28.93,29C464.6,1104.3,433,1136,401.8,1167c-6.73,6.7-12.36,10.1-16.74,10.1h0c-5.51,0-12.27-5.59-17-10.27-22.39-22.22-39.52-39.35-55.55-55.55-6.09-6.16-9.41-12.57-9.36-18,0-3.66,1.59-6.94,4.76-10,1.55-1.51,4.83-4.71,10.11-4.71,4.32,0,10,2.15,17.13,9.12,7.83,7.64,15.75,15.49,23.41,23.08q6.36,6.32,12.73,12.61a20.09,20.09,0,0,0,4.55,3.32l1.49.88,11.06,6.66,9.13-9.13q13.08-13.1,26.07-26.13c24.78-24.87,50.4-50.57,75.76-75.46,7.31-7.18,12.18-9.35,14.43-10,4.67-1.35,10.78-1.8,16.61,6.82C535.64,1028,532.53,1035,529,1039.52Z"/><path class="cls-5" d="M1241.41,847.82h-.18c-172.4,0-312.75,140.18-312.88,312.56a312.86,312.86,0,0,0,312.57,313.09h.2c83.36,0,161.85-32.53,221-91.58s91.83-137.61,91.88-221a310.83,310.83,0,0,0-91.56-221.2C1403.35,880.48,1324.85,847.86,1241.41,847.82Z"/><path class="cls-6" d="M1438.8,1358.53a278,278,0,0,1-197.68,81.94h-.18c-74.58,0-144.77-29.25-197.66-82.23a277.92,277.92,0,0,1-81.93-197.84c.12-154.2,125.65-279.58,279.88-279.58h.16a280.07,280.07,0,0,1,279.61,280C1521,1235.45,1491.76,1305.65,1438.8,1358.53Z"/><path class="cls-5" d="M1031.75,324.47c20.82,18.57,47.91,28.64,78.34,29.12,13.64.21,27.38.28,41.05.28,12.34,0,24.63-.05,36.71-.11q12.9-.06,25.8-.1a55.33,55.33,0,0,0,9.25-1c.69-.12,1.37-.24,2-.32l33.27-4.32L993.93,84v39.82c0,2,0,3.89,0,5.63,0,3.46,0,6.48,0,9.49.09,11.08,0,22.44-.17,33.42-.29,25.25-.59,51.35,1.61,77.21C997.94,279.65,1010.52,305.54,1031.75,324.47Zm-5-151.68c0-3,.07-6.11.1-9.19l157.31,157.18c-24.2.11-49.12.2-73.56-.19-45.56-.71-78.65-30.37-82.36-73.79C1026.18,222.53,1026.47,197.24,1026.76,172.79Z"/><path class="cls-5" d="M1383.36,1018H1383c-15.13,0-30.18,7.69-46,23.51-36.6,36.6-73.18,73.22-110.83,110.91L1194.59,1184l-.2-.2q-6.57-6.63-13.1-13.29c-14.6-14.84-29.69-30.19-45.27-44.74-13.82-12.92-32.4-17.41-49.69-12-16.9,5.28-29.29,19-33.15,36.81-3.77,17.38,1.79,33.64,16.53,48.33,15.28,15.22,30.78,30.74,45.78,45.75q18.51,18.53,37,37c14.48,14.45,28.22,21.68,42,21.68,13.94,0,27.92-7.41,42.73-22.22,57.4-57.34,115.63-115.59,170-170,13.1-13.1,20.46-25.67,22.51-38.43,1.59-9.94.55-24.85-13.49-39.42C1404.26,1020.78,1391.74,1018.07,1383.36,1018Z"/><path class="cls-4" d="M1383.92,1087.79c-54.37,54.4-112.6,112.65-170,170-8.29,8.28-14.79,12.5-19.32,12.53h-.07c-4.42,0-10.72-4-18.71-12q-18.51-18.48-37-37c-15-15-30.54-30.56-45.84-45.81-8.28-8.26-8.53-13.51-7.57-18,1.33-6.11,5.24-10.59,10.74-12.31a15.85,15.85,0,0,1,4.76-.73,18.44,18.44,0,0,1,12.56,5.35c15.07,14.08,29.91,29.17,44.27,43.77q6.59,6.69,13.18,13.37a69.57,69.57,0,0,1,5.39,6.59c1.21,1.58,2.58,3.38,4.12,5.31l11.52,14.38,57.5-57.54c37.65-37.68,74.23-74.3,110.83-110.9,12.11-12.11,19.42-13.89,22.76-13.84,1.94,0,5,.57,9.45,5.17C1396.74,1060.55,1403.81,1067.89,1383.92,1087.79Z"/></svg>