<svg id="Layer_1" data-name="Layer 1" xmlns="http://www.w3.org/2000/svg" viewBox="0 0 1596 1596"><defs><style>.cls-1{fill:#02a95c;}.cls-2{fill:#f7ca69;}.cls-3{fill:#fff;}.cls-4{fill:#f36f26;}.cls-5{fill:#81287f;}.cls-6{fill:#33b2ba;}.cls-7{fill:#e9262a;}</style></defs><path class="cls-1" d="M618.25,560.56c-3.43,2.69-6.79,5.79-10.34,9.08-1.36,1.26-2.72,2.52-4.1,3.76l-69,62.55-37.68,34.16-11-12.87c-2.61-3-5.1-6-7.51-9-5-6-9.73-11.75-14.74-16.82-3.8-3.85-11.67-10.59-20.2-10.59-3.94,0-8,1.44-11.91,5.27s-5.85,7.86-5.88,12.18c0,6,3.69,13.12,10.49,20,15.14,15.29,30.12,30.25,44.52,44.46,13.92,13.74,22.14,14,36.65,1C535,688,552.73,671.88,569.84,656.27l16.47-15q8.27-7.53,16.59-15c13.68-12.31,27.83-25,41.16-38,8.25-8,8.8-18.49,1.39-26.72C638.28,553.62,627.61,553.22,618.25,560.56Z"/><path class="cls-2" d="M1293.25,225.54c-32.45-.25-65.49-.16-97.44-.08l-20.87.06c0,1.73,0,3.46,0,5.18,0,14.92,0,29,0,43.42-.23,36.93-12.18,68.2-34.56,90.45s-53.8,34.06-90.8,34.08c-172.92.12-347.54.12-519,0-37,0-68.36-11.83-90.77-34.14S405.44,310.93,405.23,274c-.09-14.38-.06-28.48,0-43.4v-5.13l-24.75-.06c-15.14,0-30.55-.08-46-.08-15.88,0-31.82,0-47.62.17-34.54.27-54.35,20.22-54.35,54.74-.07,405-.07,809.89,0,1203.59,0,34.17,20.35,54.57,54.42,54.58,333.91.07,672.51.07,1006.41,0,34,0,54.37-20.44,54.38-54.65.08-399.32.08-804.27,0-1203.59C1347.66,245.73,1327.83,225.8,1293.25,225.54ZM812.94,582.16c35.41-.07,71.4-.06,106.2,0h88c34.6,0,70.37,0,105.57,0,34.3.08,57.55,20.77,57.86,51.51.15,14.52-4.72,27.2-14.08,36.68-10.36,10.49-25.23,16.06-43,16.1-50.11.13-100.73.19-151.5.19-49.93,0-100-.06-149.89-.18-17.4,0-32.71-5.89-43.13-16.47-9.32-9.46-14.35-22.39-14.18-36.42C755.21,602.9,778.57,582.24,812.94,582.16ZM665.6,1240.93c-23.13,21.47-46.87,43-69.83,63.79q-12.94,11.73-25.88,23.47-4.67,4.24-9.29,8.52c-8.1,7.45-16.47,15.16-25.14,22.49-11.58,9.78-24,14.66-36.36,14.66-13.21,0-26.26-5.6-37.91-16.78-18.14-17.41-35.58-34.84-51.81-51.8-21.76-22.73-22.06-54.4-.7-75.29,21.11-20.64,52.71-19.64,75.16,2.37,5.86,5.75,11.2,11.9,16.33,18l15.58-14.19c25.58-23.3,49.73-45.31,74.36-67.11,6.91-6.12,17.83-14.14,30.58-17.58,22.22-6,46.28,5.35,57.2,27C688.72,1199.9,684,1223.85,665.6,1240.93ZM407.45,917.59c20-21,51-21.74,73.66-1.85a174.41,174.41,0,0,1,17.22,17.17c.87,1,1.7,2,2.5,3q9.93-9,19.58-17.78c25.51-23.18,49.6-45.08,74.06-66.87,13-11.63,28.86-16.85,44.56-14.71,14.79,2,27.59,10.38,36.06,23.54,14.11,21.93,10.46,48.76-9.08,66.77-44.93,41.42-89.36,81.7-132.06,119.74-10.37,9.23-22.42,13.83-34.48,13.84-12.72,0-25.44-5.12-36.21-15.31-18.1-17.13-36.67-35.69-55.2-55.18C387.9,968.77,387.64,938.33,407.45,917.59ZM667,612c-13.76,13.34-28.14,26.28-42,38.79q-8.24,7.43-16.45,14.87t-16.45,15c-17.17,15.66-34.92,31.86-52.55,47.65-13.53,12.11-26.7,18-40.22,18l-1.23,0c-13.9-.37-27.11-6.93-40.41-20.06-14.49-14.3-29.55-29.35-44.77-44.72-13.2-13.32-20.13-28.33-20-43.39.07-13.16,5.5-25.43,15.7-35.49,10.95-10.79,25.05-16,39.7-14.57,13.82,1.31,27.33,8.31,39.08,20.21,4.59,4.66,8.83,9.58,12.92,14.45l12.38-11.22,69-62.57c1.29-1.16,2.56-2.35,3.84-3.53,3.89-3.59,7.9-7.31,12.39-10.82,23-18,53.3-16,72.08,4.91C689.37,561.05,688.13,591.54,667,612Zm447.28,701.68c-50.32.11-101,.16-151.8.16-50.46,0-100.94,0-151.13-.16-32.93-.06-56.19-21.2-56.55-51.39-.17-14.17,4.66-26.66,14-36.12,10.5-10.66,25.48-16.32,43.34-16.38,35.74-.11,72.07-.08,107.21-.06l44.27,0h0q22.18,0,44.41,0c34.56,0,70.31,0,105.49.06,17.87,0,32.78,5.63,43.14,16.13,9.28,9.41,14.1,22,13.95,36.35C1170.28,1293,1147.65,1313.61,1114.3,1313.68Zm.79-313.43c-21.11.11-42.41.15-63.55.15-14.72,0-29.35,0-43.79,0l-43.94,0H809.46c-21.36,0-38.5-9.85-48.26-27.71-11-20.07-9.14-41.13,4.76-55,5-5,22.92-21.27,43-21.52,101.69-1.23,203.42-1,307.37-.56,31.39.12,54.26,22,54.38,52.13C1170.79,978,1147.41,1000.08,1115.09,1000.25Z"/><path class="cls-3" d="M812.21,653.46c100.54.24,201.89.24,301.23,0,8.66,0,15.63-2.25,19.61-6.28,3.08-3.13,4.62-7.56,4.56-13.17-.13-12.46-8.51-18.8-24.93-18.84-35.15-.07-70.91-.06-105.48,0q-22.17,0-44.35,0H875.67c-20.85,0-41.86,0-62.66,0-11.38,0-25,3.31-25.19,18.83-.07,5.3,1.51,9.62,4.69,12.84C796.7,651.09,803.69,653.44,812.21,653.46Z"/><path class="cls-3" d="M1113.42,1242.79c-35.11-.1-70.83-.08-105.38-.06l-44.42,0-44.3,0-44,0c-21,0-42.12,0-63,.08-8.73,0-15.81,2.35-19.93,6.54-3,3.09-4.56,7.31-4.49,12.56.2,16.92,16.59,18.78,23.62,18.79,100.61.21,202.49.21,302.79,0,15.38,0,23.25-6.34,23.38-18.76.06-5.46-1.43-9.78-4.44-12.82C1129.18,1245.06,1122.17,1242.82,1113.42,1242.79Z"/><path class="cls-3" d="M1116.17,928.57c-103.82-.41-205.41-.67-306.85.56-4,0-12.65,4.52-20.08,11.91-4.62,4.59-.47,13.21.92,15.75,2.68,4.9,7.29,10.53,19.3,10.53H963.81l44,0c35.12,0,71.43.08,107.12-.11,14.3-.07,22.81-7.33,22.76-19.42C1137.62,936,1129.38,928.62,1116.17,928.57Z"/><path class="cls-4" d="M527.69,294.53c177.23.19,353.83.18,524.91,0,13.12,0,17.36-4.4,17.46-18,.19-23.07.14-46.57.1-69.3q0-12.57,0-25.14c0-15.26-2.27-19.83-3.62-21.19s-5.8-3.59-20.83-3.6q-44.49,0-88.9,0H906.59L902.8,146c-20-59.31-56.7-88.27-112.12-88.53h-.75c-55.43,0-92.32,29-112.79,88.61l-3.82,11.14H644.59l-34.43,0c-10.91,0-22,0-33.08,0-16.33,0-32.78,0-49.05.12-14,.07-17.85,3.76-18,17.13-.25,32.57-.25,67,0,102.22C510.16,290.17,514.44,294.51,527.69,294.53Z"/><path class="cls-5" d="M812.13,686.46c49.88.12,100,.18,149.89.18,50.77,0,101.39-.06,151.5-.19,17.78,0,32.65-5.61,43-16.1,9.36-9.48,14.23-22.16,14.08-36.68-.31-30.74-23.56-51.43-57.86-51.51-35.2-.07-71-.06-105.57,0h-88c-34.8,0-70.79,0-106.2,0-34.37.08-57.73,20.74-58.12,51.41-.17,14,4.86,27,14.18,36.42C779.42,680.57,794.73,686.42,812.13,686.46Zm.88-71.3c20.8,0,41.81,0,62.66,0h87.18q22.2,0,44.35,0c34.57,0,70.33,0,105.48,0,16.42,0,24.8,6.38,24.93,18.84.06,5.61-1.48,10-4.56,13.17-4,4-11,6.26-19.61,6.28-99.34.25-200.69.25-301.23,0-8.52,0-15.51-2.37-19.7-6.63-3.18-3.22-4.76-7.54-4.69-12.84C788,618.47,801.63,615.19,813,615.16Z"/><path class="cls-5" d="M1116.29,895.57c-103.95-.41-205.68-.67-307.37.56-20,.25-37.95,16.53-43,21.52-13.9,13.83-15.72,34.89-4.76,55,9.76,17.86,26.9,27.71,48.26,27.71H963.81l43.94,0c14.44,0,29.07,0,43.79,0,21.14,0,42.44,0,63.55-.15,32.32-.17,55.7-22.27,55.58-52.55C1170.55,917.62,1147.68,895.69,1116.29,895.57Zm-1.38,71.68c-35.69.19-72,.15-107.12.11l-44,0H809.46c-12,0-16.62-5.63-19.3-10.53-1.39-2.54-5.54-11.16-.92-15.75,7.43-7.39,16-11.86,20.08-11.91,101.44-1.23,203-1,306.85-.56,13.21,0,21.45,7.43,21.5,19.26C1137.72,959.92,1129.21,967.18,1114.91,967.25Z"/><path class="cls-5" d="M1113.52,1209.79c-35.18-.1-70.93-.08-105.49-.06q-22.21,0-44.41,0h0l-44.27,0c-35.14,0-71.47,0-107.21.06-17.86.06-32.84,5.72-43.34,16.38-9.32,9.46-14.15,21.95-14,36.12.36,30.19,23.62,51.33,56.55,51.39,50.19.11,100.67.16,151.13.16,50.75,0,101.48,0,151.8-.16,33.35-.07,56-20.73,56.31-51.41.15-14.37-4.67-26.94-13.95-36.35C1146.3,1215.42,1131.39,1209.84,1113.52,1209.79Zm.71,70.89c-100.3.21-202.18.21-302.79,0-7,0-23.42-1.87-23.62-18.79-.07-5.25,1.45-9.47,4.49-12.56,4.12-4.19,11.2-6.51,19.93-6.54,20.92-.06,42.06-.08,63-.08l44,0,44.3,0,44.42,0c34.55,0,70.27,0,105.38.06,8.75,0,15.76,2.27,19.75,6.31,3,3,4.5,7.36,4.44,12.82C1137.48,1274.34,1129.61,1280.65,1114.23,1280.68Z"/><path class="cls-5" d="M1293.5,192.54c-32.62-.25-65.74-.16-97.78-.08q-11.91,0-23.84.06a87.44,87.44,0,0,0-10.38.81c-1.45.17-3,.35-4.66.51l-14.92,1.44v15q0,10.35,0,20.48c0,14.86,0,28.89,0,43.16-.36,57.41-34.9,91.71-92.38,91.74-172.91.12-347.51.12-519,0-57.49,0-92-34.35-92.33-91.8-.09-14.26-.06-28.3,0-43.16,0-6.82,0-13.71,0-20.71V194.54l-15.41-1c-1.9-.12-3.65-.27-5.31-.4-3.69-.31-7.18-.59-10.9-.6l-26.07-.06c-30.78-.08-62.62-.16-94,.09-25.84.2-47.73,8.59-63.29,24.27s-23.8,37.62-23.8,63.47c-.07,405-.07,809.9,0,1203.6,0,25.79,8.31,47.74,24,63.49s37.64,24.07,63.39,24.08c167,0,335.08,0,503.21,0s336.25,0,503.21,0c52.25,0,87.36-35.23,87.37-87.65.08-399.32.08-804.27,0-1203.6C1380.66,227.36,1346.44,193,1293.5,192.54Zm54.17,1291.26c0,34.21-20.34,54.64-54.38,54.65-333.9.07-672.5.07-1006.41,0-34.07,0-54.42-20.41-54.42-54.58-.07-393.7-.07-798.64,0-1203.59,0-34.52,19.81-54.47,54.35-54.74,15.8-.13,31.74-.17,47.62-.17,15.46,0,30.87,0,46,.08l24.75.06v5.13c0,14.92-.05,29,0,43.4.21,36.89,12.15,68.18,34.54,90.47s53.8,34.12,90.77,34.14c171.46.12,346.08.12,519,0,37,0,68.4-11.81,90.8-34.08s34.33-53.52,34.56-90.45c.09-14.4.07-28.5,0-43.42,0-1.72,0-3.45,0-5.18l20.87-.06c32-.08,65-.17,97.44.08,34.58.26,54.41,20.19,54.42,54.67C1347.75,679.53,1347.75,1084.48,1347.67,1483.8Z"/><path class="cls-5" d="M620.69,1151.44c-12.75,3.44-23.67,11.46-30.58,17.58-24.63,21.8-48.78,43.81-74.36,67.11l-15.58,14.19c-5.13-6.06-10.47-12.21-16.33-18-22.45-22-54-23-75.16-2.37-21.36,20.89-21.06,52.56.7,75.29,16.23,17,33.67,34.39,51.81,51.8,11.65,11.18,24.7,16.78,37.91,16.78,12.32,0,24.78-4.88,36.36-14.66,8.67-7.33,17-15,25.14-22.49q4.64-4.28,9.29-8.52,12.93-11.75,25.88-23.47c23-20.81,46.7-42.32,69.83-63.79,18.41-17.08,23.12-41,12.29-62.5C667,1156.79,642.91,1145.44,620.69,1151.44Zm22.46,65.31c-23,21.33-46.65,42.77-69.54,63.51q-13,11.74-25.92,23.51c-3.16,2.87-6.3,5.77-9.45,8.66-7.84,7.22-16,14.69-24.09,21.57-11.08,9.37-19.81,9.16-30.11-.73-17.81-17.09-34.91-34.18-50.82-50.81-9.24-9.65-9.8-20.72-1.46-28.87a17.75,17.75,0,0,1,12.56-5.46c5.43,0,11.14,2.62,16.41,7.79,5.83,5.72,11.28,12.18,17,19,2.72,3.23,5.54,6.57,8.46,9.91l11.07,12.64,12.44-11.29c9.62-8.73,19-17.28,28.23-25.69,25.49-23.22,49.57-45.15,74-66.79,6-5.34,12.18-9,17.31-10.43,8.06-2.18,15.87,3.52,19.14,10C652.66,1201.68,650.88,1209.57,643.15,1216.75Z"/><path class="cls-5" d="M463.26,1045.16c10.77,10.19,23.49,15.31,36.21,15.31,12.06,0,24.11-4.61,34.48-13.84,42.7-38,87.13-78.32,132.06-119.74,19.54-18,23.19-44.84,9.08-66.77C666.62,847,653.82,838.6,639,836.58c-15.7-2.14-31.52,3.08-44.56,14.71C570,873.08,545.92,895,520.41,918.16q-9.66,8.79-19.58,17.78c-.8-1-1.63-2-2.5-3a174.41,174.41,0,0,0-17.22-17.17c-22.66-19.89-53.64-19.12-73.66,1.85-19.81,20.74-19.55,51.18.61,72.39C426.59,1009.47,445.16,1028,463.26,1045.16ZM431.31,940.38c3.89-4.07,8.5-6.11,13.31-6.11s10,2.09,14.72,6.27a141.72,141.72,0,0,1,14,13.92,118.35,118.35,0,0,1,7.43,10.07c1.27,1.85,2.58,3.76,4,5.72l10.78,15,13.7-12.41c11.41-10.34,22.49-20.41,33.36-30.29,25.45-23.12,49.49-45,73.83-66.66,5.72-5.1,12.16-7.47,18.14-6.64,5.14.7,9.56,3.71,12.77,8.7,5.53,8.6,4.22,17.35-3.7,24.64C598.85,943.92,554.56,984.08,512,1022c-8.62,7.67-17.38,7.41-26.06-.8-17.68-16.73-35.83-34.88-54-54C424,958.85,423.74,948.31,431.31,940.38Z"/><path class="cls-5" d="M597.89,534.59c-4.49,3.51-8.5,7.23-12.39,10.82-1.28,1.18-2.55,2.37-3.84,3.53l-69,62.57-12.38,11.22c-4.09-4.87-8.33-9.79-12.92-14.45-11.75-11.9-25.26-18.9-39.08-20.21-14.65-1.39-28.75,3.78-39.7,14.57-10.2,10.06-15.63,22.33-15.7,35.49-.09,15.06,6.84,30.07,20,43.39,15.22,15.37,30.28,30.42,44.77,44.72,13.3,13.13,26.51,19.69,40.41,20.06l1.23,0c13.52,0,26.69-5.91,40.22-18,17.63-15.79,35.38-32,52.55-47.65q8.22-7.5,16.45-15T625,650.79c13.9-12.51,28.28-25.45,42-38.79,21.11-20.46,22.35-51,3-72.5C651.19,518.64,620.87,516.57,597.89,534.59Z"/><path class="cls-6" d="M485.94,1021.19c8.68,8.21,17.44,8.47,26.06.8,42.56-37.91,86.85-78.07,131.64-119.37,7.92-7.29,9.23-16,3.7-24.64-3.21-5-7.63-8-12.77-8.7-6-.83-12.42,1.54-18.14,6.64-24.34,21.69-48.38,43.54-73.83,66.66-10.87,9.88-22,19.95-33.36,30.29l-13.7,12.41-10.78-15c-1.41-2-2.72-3.87-4-5.72a118.35,118.35,0,0,0-7.43-10.07,141.72,141.72,0,0,0-14-13.92c-4.76-4.18-9.84-6.27-14.72-6.27s-9.42,2-13.31,6.11c-7.57,7.93-7.31,18.47.67,26.86C450.11,986.31,468.26,1004.46,485.94,1021.19Z"/><path class="cls-6" d="M629.29,1183.3c-5.13,1.38-11.28,5.09-17.31,10.43-24.44,21.64-48.52,43.57-74,66.79-9.23,8.41-18.61,17-28.23,25.69L497.3,1297.5l-11.07-12.64c-2.92-3.34-5.74-6.68-8.46-9.91-5.76-6.85-11.21-13.31-17-19-5.27-5.17-11-7.79-16.41-7.79a17.75,17.75,0,0,0-12.56,5.46c-8.34,8.15-7.78,19.22,1.46,28.87,15.91,16.63,33,33.72,50.82,50.81,10.3,9.89,19,10.1,30.11.73,8.14-6.88,16.25-14.35,24.09-21.57,3.15-2.89,6.29-5.79,9.45-8.66q12.94-11.76,25.92-23.51c22.89-20.74,46.56-42.18,69.54-63.51,7.73-7.18,9.51-15.07,5.28-23.46C645.16,1186.82,637.35,1181.12,629.29,1183.3Z"/><path class="cls-6" d="M644.06,588.3c-13.33,12.92-27.48,25.65-41.16,38q-8.31,7.49-16.59,15l-16.47,15C552.73,671.88,535,688,517.51,703.71c-14.51,13-22.73,12.79-36.65-1-14.4-14.21-29.38-29.17-44.52-44.46-6.8-6.86-10.52-14-10.49-20,0-4.32,1.95-8.3,5.88-12.18s8-5.27,11.91-5.27c8.53,0,16.4,6.74,20.2,10.59,5,5.07,9.74,10.78,14.74,16.82,2.41,2.91,4.9,5.92,7.51,9l11,12.87L534.81,636l69-62.55c1.38-1.24,2.74-2.5,4.1-3.76,3.55-3.29,6.91-6.39,10.34-9.08,9.36-7.34,20-6.94,27.2,1C652.86,569.81,652.31,580.3,644.06,588.3Z"/><path class="cls-5" d="M527.66,327.53c87.26.09,174.36.14,260.74.14,89.07,0,177.37-.05,264.24-.15,31.33,0,50.17-19,50.42-50.77.19-23.23.14-46.81.1-69.62q0-12.56,0-25.1c0-15.39-1.58-32.69-13.19-44.4s-28.9-13.36-44.23-13.37q-44.51,0-88.93,0H930c-25.62-65-73.51-99.44-139.12-99.75h-.9c-35.69,0-66.3,10.07-91,29.94-20.62,16.59-37,40-48.9,69.81h-5.46l-34.4,0c-27,0-54.88-.06-82.34.09-32,.17-50.53,18.35-50.77,49.87-.26,32.74-.26,67.3,0,102.71C477.29,308.57,496.2,327.49,527.66,327.53ZM510.07,174.45c.11-13.37,4-17.06,18-17.13,16.27-.09,32.72-.12,49.05-.12,11.11,0,22.17,0,33.08,0l34.43,0h28.73l3.82-11.14C697.61,86.49,734.5,57.5,789.93,57.5h.75c55.42.26,92.09,29.22,112.12,88.53l3.79,11.22h50.19q44.38,0,88.9,0c15,0,19.5,2.26,20.83,3.6s3.61,5.93,3.62,21.19q0,12.57,0,25.14c0,22.73.09,46.23-.1,69.3-.1,13.63-4.34,18-17.46,18-171.08.19-347.68.2-524.91,0-13.25,0-17.53-4.36-17.62-17.86C509.82,241.42,509.82,207,510.07,174.45Z"/><path class="cls-7" d="M1030.71,1393.61a1.5,1.5,0,0,0,0-3,1.5,1.5,0,0,0,0,3Z"/></svg>