<?xml version="1.0" encoding="utf-8"?>
<!-- Generator: Adobe Illustrator 24.1.2, SVG Export Plug-In . SVG Version: 6.00 Build 0)  -->
<svg version="1.1" id="Layer_1" xmlns="http://www.w3.org/2000/svg" xmlns:xlink="http://www.w3.org/1999/xlink" x="0px" y="0px"
	 viewBox="0 0 606.6 309.4" style="enable-background:new 0 0 606.6 309.4;" xml:space="preserve">
<style type="text/css">
	.st0{fill:#E9262A;}
	.st1{fill:#81287F;}
	.st2{fill:#F36F26;}
	.st3{fill:#33B2BA;}
	.st4{fill:#F6BA18;}
	.st5{fill:#FFFFFF;}
	.st6{fill:#33B3BB;}
	.st7{fill:#F7BA16;}
	.st8{fill:#F26E24;}
	.st9{fill:#EB2027;}
	.st10{fill:#812880;}
</style>
<polygon class="st0" points="197.5,106.1 197.4,203.3 197.4,203.3 154.2,228.7 154.2,80.1 "/>
<polygon class="st1" points="240,81.1 197.5,106.1 154.2,80.1 197.4,54.7 197.4,54.7 "/>
<polygon class="st2" points="240,229.7 197.5,254.7 154.2,228.7 197.4,203.3 197.4,203.3 "/>
<polygon class="st3" points="111.7,105.1 111.6,202.3 111.6,202.3 68.4,227.7 68.4,79 "/>
<polygon class="st4" points="154.2,228.7 111.7,253.7 68.4,227.7 111.6,202.3 111.6,202.3 "/>
<g>
	<g>
		<path class="st5" d="M269.3,104.9v30.4c0,3.3,0.9,5.9,2.6,7.6c1.7,1.8,4.2,2.6,7.3,2.6c3.2,0,5.6-0.9,7.4-2.6
			c1.7-1.8,2.6-4.3,2.6-7.6v-30.4h9.9v30.3c0,4.2-0.9,7.7-2.7,10.6c-1.8,2.9-4.2,5.1-7.2,6.5c-3,1.5-6.4,2.2-10.1,2.2s-7-0.7-10-2.2
			s-5.3-3.6-7.1-6.5c-1.7-2.9-2.6-6.4-2.6-10.6v-30.3C259.4,104.9,269.3,104.9,269.3,104.9z"/>
		<path class="st5" d="M341.5,118.9c2.9,2.9,4.3,7,4.3,12.3V154H336v-21.5c0-3.1-0.8-5.5-2.3-7.1c-1.5-1.7-3.7-2.5-6.3-2.5
			c-2.7,0-4.9,0.8-6.4,2.5c-1.6,1.7-2.4,4-2.4,7.1V154h-9.8v-39h9.8v4.9c1.3-1.7,3-3,5-4s4.3-1.4,6.7-1.4
			C334.8,114.5,338.6,115.9,341.5,118.9z"/>
		<path class="st5" d="M355.8,108.7c-1.1-1.1-1.7-2.5-1.7-4.1s0.6-3,1.7-4.1s2.6-1.7,4.3-1.7c1.7,0,3.2,0.6,4.3,1.7
			c1.1,1.1,1.7,2.5,1.7,4.1s-0.6,3-1.7,4.1s-2.6,1.7-4.3,1.7C358.4,110.4,356.9,109.9,355.8,108.7z M364.9,115v39h-9.8v-39H364.9z"
			/>
		<path class="st5" d="M386.1,123.1V142c0,1.3,0.3,2.3,0.9,2.8c0.6,0.6,1.7,0.9,3.2,0.9h4.6v8.3h-6.2c-8.3,0-12.4-4-12.4-12.1v-18.8
			h-4.6V115h4.6v-9.6h9.9v9.6h8.7v8.1H386.1z"/>
		<path class="st5" d="M437.9,137.5h-28.5c0.2,2.8,1.2,5,3,6.6c1.7,1.6,3.9,2.4,6.4,2.4c3.7,0,6.3-1.6,7.8-4.7h10.6
			c-1.1,3.8-3.3,6.8-6.5,9.2s-7.1,3.6-11.7,3.6c-3.8,0-7.1-0.8-10.1-2.5s-5.3-4-7-7.1c-1.7-3-2.5-6.6-2.5-10.5c0-4,0.8-7.6,2.5-10.6
			c1.6-3,3.9-5.4,6.9-7s6.4-2.5,10.2-2.5c3.7,0,7,0.8,10,2.4c2.9,1.6,5.2,3.9,6.8,6.8c1.6,2.9,2.4,6.3,2.4,10.1
			C438.1,135.1,438.1,136.4,437.9,137.5z M428,130.9c0-2.5-1-4.6-2.7-6.1c-1.8-1.5-4-2.3-6.5-2.3c-2.4,0-4.5,0.7-6.2,2.2
			s-2.7,3.5-3.1,6.2H428z"/>
		<path class="st5" d="M445.1,123.9c1.6-3,3.7-5.4,6.4-7c2.7-1.6,5.7-2.5,9.1-2.5c2.5,0,4.9,0.6,7.2,1.7c2.3,1.1,4.1,2.6,5.5,4.4
			V102h10v52h-10v-5.8c-1.2,1.9-2.9,3.5-5.1,4.6c-2.2,1.2-4.8,1.8-7.7,1.8c-3.3,0-6.3-0.8-9-2.5s-4.9-4.1-6.4-7.1
			c-1.6-3.1-2.4-6.6-2.4-10.6C442.8,130.4,443.6,127,445.1,123.9z M472,128.4c-0.9-1.7-2.2-3-3.8-3.9c-1.6-0.9-3.3-1.4-5.1-1.4
			c-1.8,0-3.5,0.4-5.1,1.3c-1.5,0.9-2.8,2.2-3.8,3.9s-1.4,3.7-1.4,6.1c0,2.3,0.5,4.4,1.4,6.2c1,1.8,2.2,3.1,3.8,4
			c1.6,0.9,3.2,1.4,5,1.4s3.5-0.5,5.1-1.4s2.9-2.2,3.8-3.9s1.4-3.8,1.4-6.2C473.5,132.1,473,130.1,472,128.4z"/>
	</g>
	<g>
		<path class="st5" d="M260.5,180.3c2.2-3.8,5.2-6.8,8.9-8.9c3.8-2.1,8-3.2,12.7-3.2c5.5,0,10.3,1.4,14.4,4.2s7,6.7,8.7,11.7h-11.3
			c-1.1-2.3-2.7-4.1-4.7-5.3s-4.4-1.8-7.1-1.8c-2.9,0-5.4,0.7-7.6,2s-4,3.2-5.2,5.7c-1.2,2.4-1.9,5.3-1.9,8.6c0,3.2,0.6,6.1,1.9,8.5
			c1.2,2.5,3,4.4,5.2,5.7s4.8,2,7.6,2c2.7,0,5-0.6,7.1-1.8c2-1.2,3.6-3,4.7-5.3h11.3c-1.6,5-4.5,8.9-8.6,11.7s-8.9,4.2-14.5,4.2
			c-4.7,0-8.9-1.1-12.7-3.2c-3.8-2.1-6.8-5.1-8.9-8.9c-2.2-3.8-3.3-8.1-3.3-12.9C257.2,188.4,258.3,184.1,260.5,180.3z"/>
		<path class="st5" d="M343.4,180.3c2.3,1.3,4.1,3.2,5.4,5.7s1.9,5.5,1.9,9v22.9h-9.8v-21.5c0-3.1-0.8-5.5-2.3-7.1
			c-1.5-1.7-3.7-2.5-6.3-2.5c-2.7,0-4.9,0.8-6.4,2.5c-1.6,1.7-2.4,4-2.4,7.1v21.5h-9.8v-52h9.8v17.9c1.3-1.7,3-3,5.1-4
			s4.5-1.4,7-1.4C338.5,178.4,341.1,179,343.4,180.3z"/>
		<path class="st5" d="M359.9,187.8c1.6-3,3.7-5.4,6.4-7s5.7-2.5,9-2.5c2.9,0,5.5,0.6,7.6,1.8c2.2,1.2,3.9,2.6,5.2,4.4v-5.6h9.9v39
			h-9.9v-5.7c-1.3,1.8-3,3.3-5.2,4.5s-4.8,1.8-7.7,1.8c-3.3,0-6.3-0.8-9-2.5s-4.8-4.1-6.4-7.1c-1.6-3.1-2.4-6.6-2.4-10.6
			C357.6,194.3,358.3,190.8,359.9,187.8z M386.8,192.3c-0.9-1.7-2.2-3-3.8-3.9c-1.6-0.9-3.3-1.4-5.1-1.4s-3.5,0.4-5.1,1.3
			c-1.5,0.9-2.8,2.2-3.8,3.9s-1.4,3.7-1.4,6.1c0,2.3,0.5,4.4,1.4,6.2c1,1.8,2.2,3.1,3.8,4c1.6,0.9,3.2,1.4,5,1.4s3.5-0.5,5.1-1.4
			s2.9-2.2,3.8-3.9s1.4-3.8,1.4-6.2C388.2,196,387.7,194,386.8,192.3z"/>
		<path class="st5" d="M440.6,182.8c2.9,2.9,4.3,7,4.3,12.3V218h-9.8v-21.5c0-3.1-0.8-5.5-2.3-7.1c-1.5-1.7-3.7-2.5-6.3-2.5
			c-2.7,0-4.9,0.8-6.4,2.5c-1.6,1.7-2.4,4-2.4,7.1V218h-9.8v-39h9.8v4.9c1.3-1.7,3-3,5-4s4.3-1.4,6.7-1.4
			C434,178.4,437.8,179.8,440.6,182.8z"/>
		<path class="st5" d="M477.2,180c2.2,1.1,3.9,2.6,5.2,4.5v-5.6h9.9v39.2c0,3.6-0.7,6.8-2.2,9.7c-1.5,2.8-3.6,5.1-6.5,6.8
			s-6.4,2.5-10.5,2.5c-5.5,0-10.1-1.3-13.6-3.9c-3.5-2.6-5.5-6.1-6-10.5h9.8c0.5,1.8,1.6,3.2,3.3,4.3c1.7,1.1,3.8,1.6,6.2,1.6
			c2.9,0,5.2-0.9,7-2.6c1.8-1.7,2.7-4.3,2.7-7.8v-6c-1.3,1.8-3,3.4-5.2,4.6c-2.2,1.2-4.8,1.8-7.6,1.8c-3.3,0-6.3-0.8-9-2.5
			s-4.9-4.1-6.4-7.1c-1.6-3.1-2.4-6.6-2.4-10.6c0-3.9,0.8-7.4,2.4-10.5c1.6-3,3.7-5.4,6.4-7c2.7-1.6,5.7-2.5,9-2.5
			C472.4,178.3,475,178.9,477.2,180z M481,192.3c-0.9-1.7-2.2-3-3.8-3.9c-1.6-0.9-3.3-1.4-5.1-1.4c-1.8,0-3.5,0.4-5.1,1.3
			c-1.5,0.9-2.8,2.2-3.8,3.9s-1.4,3.7-1.4,6.1c0,2.3,0.5,4.4,1.4,6.2c1,1.8,2.2,3.1,3.8,4c1.6,0.9,3.2,1.4,5,1.4s3.5-0.5,5.1-1.4
			s2.9-2.2,3.8-3.9s1.4-3.8,1.4-6.2C482.4,196,481.9,194,481,192.3z"/>
		<path class="st5" d="M537.9,201.4h-28.5c0.2,2.8,1.2,5,3,6.6c1.7,1.6,3.9,2.4,6.4,2.4c3.7,0,6.3-1.6,7.8-4.7h10.6
			c-1.1,3.8-3.3,6.8-6.5,9.2s-7.1,3.6-11.7,3.6c-3.8,0-7.1-0.8-10.1-2.5s-5.3-4-7-7.1c-1.7-3-2.5-6.6-2.5-10.5c0-4,0.8-7.6,2.5-10.6
			c1.6-3,3.9-5.4,6.9-7s6.4-2.5,10.2-2.5c3.7,0,7,0.8,10,2.4c2.9,1.6,5.2,3.9,6.8,6.8c1.6,2.9,2.4,6.3,2.4,10.1
			C538.1,199,538.1,200.2,537.9,201.4z M528,194.7c0-2.5-1-4.6-2.7-6.1c-1.8-1.5-4-2.3-6.5-2.3c-2.4,0-4.5,0.7-6.2,2.2
			s-2.7,3.5-3.1,6.2L528,194.7L528,194.7z"/>
	</g>
</g>
<g>
	<g>
		<polygon class="st6" points="531.8,102 531.8,112.7 512.4,112.7 519.8,102 		"/>
	</g>
	<g>
		<g>
			<polygon class="st7" points="531.8,112.7 531.8,123.2 522.2,123.2 522.2,113 515.3,123.2 505,123.2 512.4,112.7 			"/>
		</g>
	</g>
	<g>
		<g>
			<polygon class="st8" points="515.3,123.2 508.2,133.8 497.6,133.8 505,123.2 			"/>
			<rect x="522.2" y="123.2" class="st8" width="9.6" height="10.6"/>
		</g>
	</g>
	<polygon class="st9" points="538.2,135.4 538.2,144.3 495.9,144.3 495.9,136.3 497.6,133.8 508.2,133.8 507.2,135.4 522.2,135.4 
		522.2,133.8 531.8,133.8 531.8,135.4 	"/>
	<polygon class="st10" points="538.2,144.3 538.2,144.3 531.8,144.3 531.8,154.7 521.5,154.7 521.5,144.3 495.9,144.3 495.9,144.3 	
		"/>
</g>
</svg>
