<svg id="Layer_1" data-name="Layer 1" xmlns="http://www.w3.org/2000/svg" viewBox="0 0 1596 1596"><defs><style>.cls-1{fill:#33b2ba;}.cls-2{fill:#f36f26;}.cls-3{fill:#f7ca69;}.cls-4{fill:#fff;}.cls-5{fill:#81287f;}</style></defs><path class="cls-1" d="M342.58,1023.81a38.5,38.5,0,1,0-.42,77c21.93.13,38.88-17,38.61-39.06A38.19,38.19,0,0,0,342.58,1023.81Z"/><path class="cls-1" d="M1255.57,1100.81a38.5,38.5,0,1,0-38.62-39.06C1216.68,1083.83,1233.63,1100.94,1255.57,1100.81Z"/><path class="cls-1" d="M110.7,564.53a38.22,38.22,0,0,0-38,38.06c-.25,21.68,17.33,39.52,38.7,39.25,20.63-.22,38-17.51,38.35-38.25C150.11,582.29,132.19,564.35,110.7,564.53Z"/><path class="cls-1" d="M1448,296.74c-.57-20.77-18.1-37.78-38.82-37.61A38.71,38.71,0,0,0,1371,299a38.51,38.51,0,0,0,77-2.23Z"/><path class="cls-1" d="M1254.61,182.24c21.65.35,39.51-17.08,39.45-38.55a38.89,38.89,0,0,0-38-38.46,38.17,38.17,0,0,0-39.11,37C1216.26,164.3,1232.79,181.87,1254.61,182.24Z"/><path class="cls-1" d="M226.76,299a38.72,38.72,0,0,0-38.17-39.84c-20.72-.17-38.25,16.84-38.82,37.61a38.51,38.51,0,0,0,77,2.23Z"/><path class="cls-1" d="M341.65,105.23a38.89,38.89,0,0,0-38,38.46c-.06,21.47,17.8,38.9,39.45,38.55,21.82-.37,38.36-17.94,37.64-40A38.17,38.17,0,0,0,341.65,105.23Z"/><path class="cls-1" d="M149.77,909.38A38.5,38.5,0,1,0,188,869.85,38.48,38.48,0,0,0,149.77,909.38Z"/><path class="cls-1" d="M1487,564.53c-21.49-.18-39.41,17.76-39,39.06.39,20.74,17.72,38,38.36,38.25,21.36.27,38.94-17.57,38.69-39.25A38.22,38.22,0,0,0,1487,564.53Z"/><path class="cls-1" d="M1371,907.26a38.49,38.49,0,1,0,38.69-37.41A38.39,38.39,0,0,0,1371,907.26Z"/><path class="cls-1" d="M918.81,1250.1c-39.73-.2-79.46,0-119.19,0H798.1c-39.73,0-79.46-.16-119.18,0-34.38.18-58,21.57-58.7,52.66-.76,32.36,22.1,56,56.94,56.21q60.86.46,121.7.45t121.7-.45c34.84-.26,57.7-23.85,57-56.21C976.79,1271.67,953.18,1250.28,918.81,1250.1Z"/><path class="cls-2" d="M858.66,1392.09q-29.91-.69-59.8-.74t-59.8.74c-30.68.71-54.15,25.38-54.21,54.58-.08,30,24.12,54.07,55.66,54.72,19.18.43,38.39.09,57.59.08h1.52c19.2,0,38.41.35,57.59-.08,31.54-.65,55.74-24.69,55.66-54.72C912.81,1417.47,889.34,1392.8,858.66,1392.09Z"/><path class="cls-2" d="M799.62,1107.38H798.1q-90.93,0-181.9,0c-36.6.06-62.17,23.06-61.76,55.37.43,31.67,25.65,54.36,61.29,54.4q91.59.12,183.13.1t183.13-.1c35.64,0,60.86-22.73,61.29-54.4.41-32.31-25.16-55.31-61.76-55.37Q890.58,1107.31,799.62,1107.38Z"/><path class="cls-3" d="M874.87,182.51a456,456,0,0,0-152,0C500.66,220.33,344.79,437.34,379.1,660.25Q401.48,805.8,507.45,907.16c47.18,45.22,86.32,95.77,109.61,157.57,1.44,3.83,5.91,9,9.29,9.21,14.68,1,29.49.43,44.06.43,3.65-46.14-9.44-84.59-39.77-115.38-48.12-48.83-67.72-106.69-63.43-174.43,1.87-29.91.3-60,.3-89.64-55.09-24.84-77.74-58.7-69.18-102.5,8.14-41.55,43.08-71,84.78-71.48,40.45-.43,75.4,27,85,66.75C678.77,631.51,655.88,678,600.7,695.1c0,40.39.15,81-.06,121.6-.16,37.14,11.3,69.83,35.79,98,11.31,13,22.06,26.54,32.66,40.14a155.16,155.16,0,0,1,32.74,82.57c1.12,12,2.37,24,3.61,36.4H781c.25-5.65.59-9.48.59-13.32q-.06-280.56.23-561.11c0-12.6-5.75-15.36-15.34-19-38.59-14.64-61.63-55.73-54.13-95,8.12-42.53,43.57-72.62,85.59-72.62h1.8c42,0,77.47,30.09,85.59,72.62,7.5,39.25-15.54,80.34-54.13,95-9.59,3.64-15.36,6.4-15.34,19q.74,280.56.23,561.11c0,3.84.34,7.67.59,13.32h75.58c1.24-12.4,2.49-24.39,3.61-36.4a155.16,155.16,0,0,1,32.74-82.57c10.6-13.6,21.35-27.14,32.67-40.14,24.48-28.18,35.94-60.87,35.78-98-.21-40.6-.06-81.21-.06-121.6C941.84,678,919,631.51,929.57,587.69c9.64-39.78,44.59-67.18,85-66.75,41.7.45,76.64,29.93,84.78,71.48,8.56,43.8-14.09,77.66-69.18,102.5,0,29.62-1.57,59.73.31,89.64,4.28,67.74-15.32,125.6-63.43,174.43-30.34,30.79-43.43,69.24-39.78,115.38,14.58,0,29.38.59,44.06-.43,3.38-.22,7.85-5.38,9.3-9.21,23.28-61.8,62.43-112.35,109.6-157.57q106-101.56,128.35-246.91C1252.94,437.34,1097.06,220.33,874.87,182.51Z"/><path class="cls-4" d="M637.83,607.41a54.22,54.22,0,0,0-53.89-54.09c-29.46-.17-53.66,24.07-53.94,54-.31,30.58,24.38,55.35,54.68,54.9C614.32,661.8,637.91,637.48,637.83,607.41Z"/><path class="cls-4" d="M798,345.74c-29.89,0-53.81,24-53.89,54.17s23.66,53.83,54,53.91v0h1.52v0c30.35-.08,54.08-23.76,54-53.91s-24-54.21-53.88-54.17h-.12v0l-.75,0c-.26,0-.51,0-.77,0v0Z"/><path class="cls-4" d="M1067.73,607.33c-.29-29.94-24.49-54.18-54-54a54.22,54.22,0,0,0-53.89,54.09c-.08,30.07,23.51,54.39,53.15,54.82C1043.34,662.68,1068,637.91,1067.73,607.33Z"/><path class="cls-5" d="M1502.88,533.48c-34-7.75-66.51,9.15-82.12,42.14-2,4.24-6.61,10.32-10.08,10.36-51.09.67-102.21.47-151.91.47-7.3-43.1-14.34-84.53-21.7-128h19.23c47.87,0,95.74.08,143.62,0,21.26-.06,25.42-4.31,25.61-25.35.12-15.57.73-31.21-.21-46.73-.75-12.5,2.39-19.43,15.21-24.85,27.47-11.6,43.47-42.12,40.13-70.69-3.67-31.42-25.92-56-56.48-62.49a71.1,71.1,0,0,0-81.7,44.88c-12.43,34,1.7,72.74,34.6,87.59,13.91,6.27,17.64,13.78,16.39,27.5-1,11.52-.22,23.2-.22,36.07-6,.51-10.81,1.22-15.56,1.22-47.87.1-95.74-.18-143.61.27-9.08.08-13.71-2.47-17.44-11.08A444.18,444.18,0,0,0,1135.84,291c-3.57-3.88-7.81-9.18-7.89-13.89-.63-38.27-.34-76.54-.34-116.89,18,0,34.66-.94,51.07.63,4.38.41,9.22,7.85,11.83,13.09,13.72,27.55,42.89,44.43,72.23,41,30.56-3.58,55.13-25.44,61.92-55.11a71.14,71.14,0,0,0-45-83.08c-34.67-12.54-73.24,2.59-88.25,36.46-5.18,11.66-11,15.74-23.34,14.86-16.07-1.12-32.26-.37-48.41-.25-20.2.15-24.67,4.39-24.79,24.33-.18,31.62-.06,63.22-.06,96.76q-144.4-107.08-295.2-106.14H798.1q-151.05-.92-295.2,106.14c0-33.54.12-65.14-.06-96.76-.12-19.94-4.59-24.18-24.79-24.33-16.15-.12-32.34-.87-48.41.25-12.37.88-18.16-3.2-23.34-14.86-15-33.87-53.58-49-88.24-36.46a71.14,71.14,0,0,0-45,83.08c6.79,29.67,31.36,51.53,61.92,55.11,29.34,3.45,58.51-13.43,72.24-41,2.61-5.24,7.44-12.68,11.82-13.09,16.41-1.57,33-.63,51.08-.63,0,40.35.28,78.62-.35,116.89-.08,4.71-4.32,10-7.89,13.89a444.18,444.18,0,0,0-80.8,123.75c-3.73,8.61-8.36,11.16-17.43,11.08-47.88-.45-95.75-.17-143.62-.27-4.75,0-9.5-.71-15.56-1.22,0-12.87.84-24.55-.22-36.07-1.25-13.72,2.48-21.23,16.39-27.5,32.91-14.85,47-53.63,34.6-87.59a71.1,71.1,0,0,0-81.7-44.88c-30.56,6.46-52.81,31.07-56.48,62.49-3.34,28.57,12.67,59.09,40.13,70.69,12.82,5.42,16,12.35,15.21,24.85-.94,15.52-.33,31.16-.2,46.73.18,21,4.34,25.29,25.6,25.35,47.88.12,95.75,0,143.62,0h19.23c-7.36,43.45-14.4,84.88-21.7,128-49.7,0-100.82.2-151.91-.47-3.47,0-8.08-6.12-10.07-10.36-15.62-33-48.12-49.89-82.13-42.14-31.62,7.19-55,36.37-55.23,68.89-.25,33.38,23.57,63.57,55.48,70.34,34.64,7.34,67.07-9.07,81.43-42.69,3.85-9,8.68-10.75,17.33-10.67,41.18.35,82.39.15,123.57.15h21.72c8.3,44.24,16,85.49,24,127.81-4.59.21-10,.66-15.44.66-50.11.06-100.21,0-150.3.08-21.35,0-25.06,3.93-25.23,25.5-.1,16.68-.61,33.42.21,50.08.49,10.29-2.57,15.47-12.6,19.74-30.4,12.94-47.63,45.2-42.15,75.68,6.31,34.92,35.09,60.14,69.49,60.82,33.56.65,63.08-23.08,70.83-57,7.54-32.91-9.4-65-41.94-80.43-4.38-2.1-10.66-6.36-10.91-10-1.16-17-.53-34-.53-51.91,57.31,0,111.83-.27,166.35.49,4.63.08,10.46,6.3,13.52,11.09,18.43,29,32.36,62,55.25,86.85,25.9,28.06,33.81,57.22,30.85,93.14-2,24.1-.36,48.48-.36,74.17-13.46,0-24.57-.87-35.5.21-14.84,1.49-23.33-2.2-30.14-17.6-12.9-29.13-46.18-43.1-76.8-36.17-32.23,7.28-54.52,33.09-56.8,65.8-2.14,30.38,18.31,60.84,47.79,71.17,29.83,10.46,67.06,1.64,80.51-26.28,12.2-25.3,29.4-26.62,51.44-24.85,6.63.53,13.36.08,20,.08,30,0,32.19-2.22,32.21-32.32V948.82c38.05,40,66.18,80,83,128.53-40.12,15.12-64.12,42.55-63.63,84.32.63,52,32.6,79.58,81.8,89.53-38.72,59.37-7,131.47,65.3,141.6-1.85,3.61-3.54,7-5.34,10.38-32.27,59.57,6.75,128.83,74.65,131,19.76.64,39.56.87,59.36.82h1.52c19.8,0,39.61-.18,59.36-.82,67.9-2.16,106.92-71.42,74.65-131-1.8-3.35-3.49-6.77-5.34-10.38,72.29-10.13,104-82.23,65.3-141.6,49.2-10,81.17-37.49,81.8-89.53.49-41.77-23.51-69.2-63.63-84.32,16.86-48.49,45-88.57,83-128.53v97.53c0,30.1,2.2,32.28,32.21,32.32,6.67,0,13.4.45,20-.08,22-1.77,39.25-.45,51.44,24.85,13.45,27.92,50.68,36.74,80.51,26.28,29.48-10.33,49.93-40.79,47.79-71.17-2.28-32.71-24.57-58.52-56.8-65.8-30.62-6.93-63.9,7-76.8,36.17-6.81,15.4-15.3,19.09-30.14,17.6-10.93-1.08-22-.21-35.49-.21,0-25.69,1.61-50.07-.37-74.17-3-35.92,5-65.08,30.85-93.14,22.89-24.81,36.82-57.82,55.25-86.85,3.06-4.79,8.89-11,13.52-11.09,54.52-.76,109-.49,166.35-.49,0,17.9.63,35-.53,51.91-.25,3.63-6.53,7.89-10.91,10-32.54,15.47-49.48,47.52-41.94,80.43,7.75,33.89,37.27,57.62,70.83,57,34.4-.68,63.19-25.9,69.49-60.82,5.48-30.48-11.75-62.74-42.15-75.68-10-4.27-13.09-9.45-12.6-19.74.82-16.66.31-33.4.21-50.08-.17-21.57-3.88-25.46-25.22-25.5-50.1-.12-100.19,0-150.31-.08-5.42,0-10.85-.45-15.43-.66,8-42.32,15.7-83.57,24-127.81h21.72c41.18,0,82.39.2,123.57-.15,8.65-.08,13.48,1.62,17.33,10.67,14.36,33.62,46.8,50,81.44,42.69,31.9-6.77,55.72-37,55.47-70.34C1557.89,569.85,1534.5,540.67,1502.88,533.48ZM1371,299a38.71,38.71,0,0,1,38.16-39.84c20.72-.17,38.25,16.84,38.82,37.61a38.51,38.51,0,0,1-77,2.23ZM1217,142.2a38.17,38.17,0,0,1,39.11-37,38.89,38.89,0,0,1,38,38.46c.06,21.47-17.8,38.9-39.45,38.55C1232.79,181.87,1216.26,164.3,1217,142.2Zm-873.86,40c-21.65.35-39.51-17.08-39.45-38.55a38.89,38.89,0,0,1,38-38.46,38.17,38.17,0,0,1,39.1,37C381.47,164.3,364.93,181.87,343.11,182.24ZM188,336.24a38.11,38.11,0,0,1-38.25-39.5c.57-20.77,18.1-37.78,38.82-37.61A38.72,38.72,0,0,1,226.76,299,38,38,0,0,1,188,336.24Zm-76.66,305.6c-21.37.27-38.95-17.57-38.7-39.25a38.22,38.22,0,0,1,38-38.06c21.49-.18,39.41,17.76,39,39.06C149.32,624.33,132,641.62,111.36,641.84ZM226.74,907.26A38.5,38.5,0,1,1,188,869.85,38.4,38.4,0,0,1,226.74,907.26Zm115.42,193.55a38.5,38.5,0,1,1,38.61-39.06C381,1083.83,364.09,1100.94,342.16,1100.81Zm913-77a38.5,38.5,0,1,1,.43,77c-21.94.13-38.89-17-38.62-39.06A38.2,38.2,0,0,1,1255.14,1023.81ZM857.21,1501.39c-19.18.43-38.39.09-57.59.08H798.1c-19.2,0-38.41.35-57.59-.08-31.54-.65-55.74-24.69-55.66-54.72.06-29.2,23.53-53.87,54.21-54.58q29.91-.69,59.8-.74t59.8.74c30.68.71,54.15,25.38,54.21,54.58C913,1476.7,888.75,1500.74,857.21,1501.39ZM920.56,1359q-60.85.46-121.7.45t-121.7-.45c-34.84-.26-57.7-23.85-56.94-56.21.71-31.09,24.32-52.48,58.7-52.66,39.72-.2,79.45,0,119.18,0h1.52c39.73,0,79.46-.16,119.19,0,34.37.18,58,21.57,58.7,52.66C978.26,1335.12,955.4,1358.71,920.56,1359Zm122.72-196.2c-.43,31.67-25.65,54.36-61.29,54.4q-91.59.12-183.13.1t-183.13-.1c-35.64,0-60.86-22.73-61.29-54.4-.41-32.31,25.16-55.31,61.76-55.37q91-.09,181.9,0h1.52q90.93,0,181.9,0C1018.12,1107.46,1043.69,1130.46,1043.28,1162.77Zm-244.41-817,.75,0v0h.12c29.89,0,53.8,24,53.88,54.17s-23.65,53.83-54,53.91v0H798.1v0c-30.34-.08-54.08-23.76-54-53.91s24-54.21,53.89-54.17h.11v0C798.36,345.76,798.61,345.75,798.87,345.75Zm419.75,314.5q-22.38,145.54-128.35,246.91c-47.17,45.22-86.32,95.77-109.6,157.57-1.45,3.83-5.92,9-9.3,9.21-14.68,1-29.48.43-44.06.43-3.65-46.14,9.44-84.59,39.78-115.38,48.11-48.83,67.71-106.69,63.43-174.43-1.88-29.91-.31-60-.31-89.64,55.09-24.84,77.74-58.7,69.18-102.5-8.14-41.55-43.08-71-84.78-71.48-40.45-.43-75.4,27-85,66.75C919,631.51,941.84,678,997,695.1c0,40.39-.15,81,.06,121.6.16,37.14-11.3,69.83-35.78,98-11.32,13-22.07,26.54-32.67,40.14a155.16,155.16,0,0,0-32.74,82.57c-1.12,12-2.37,24-3.61,36.4H816.7c-.25-5.65-.59-9.48-.59-13.32q.06-280.56-.23-561.11c0-12.6,5.75-15.36,15.34-19,38.59-14.64,61.63-55.73,54.13-95-8.12-42.53-43.57-72.62-85.59-72.62H798c-42,0-77.47,30.09-85.59,72.62-7.5,39.25,15.54,80.34,54.13,95,9.59,3.64,15.36,6.4,15.34,19q-.74,280.56-.23,561.11c0,3.84-.34,7.67-.59,13.32H705.44c-1.24-12.4-2.49-24.39-3.61-36.4a155.16,155.16,0,0,0-32.74-82.57c-10.6-13.6-21.35-27.14-32.66-40.14-24.49-28.18-35.95-60.87-35.79-98,.21-40.6.06-81.21.06-121.6,55.18-17.15,78.07-63.59,67.45-107.41-9.64-39.78-44.59-67.18-85-66.75-41.7.45-76.64,29.93-84.78,71.48-8.56,43.8,14.09,77.66,69.18,102.5,0,29.62,1.57,59.73-.3,89.64-4.29,67.74,15.31,125.6,63.43,174.43,30.33,30.79,43.42,69.24,39.77,115.38-14.57,0-29.38.59-44.06-.43-3.38-.22-7.85-5.38-9.29-9.21-23.29-61.8-62.43-112.35-109.61-157.57Q401.48,805.6,379.1,660.25C344.79,437.34,500.66,220.33,722.85,182.51a456,456,0,0,1,152,0C1097.06,220.33,1252.94,437.34,1218.62,660.25Zm-205.58,2c-29.64-.43-53.23-24.75-53.15-54.82a54.22,54.22,0,0,1,53.89-54.09c29.46-.17,53.66,24.07,54,54C1068,637.91,1043.34,662.68,1013,662.23Zm-428.36,0c-30.3.45-55-24.32-54.68-54.9.28-29.94,24.48-54.18,53.94-54a54.22,54.22,0,0,1,53.89,54.09C637.91,637.48,614.32,661.8,584.68,662.23Zm825,207.62A38.53,38.53,0,1,1,1371,907.26,38.23,38.23,0,0,1,1409.68,869.85Zm76.69-228c-20.64-.22-38-17.51-38.36-38.25-.4-21.3,17.52-39.24,39-39.06a38.22,38.22,0,0,1,38,38.06C1525.31,624.27,1507.73,642.11,1486.37,641.84Z"/></svg>