<svg id="Layer_1" data-name="Layer 1" xmlns="http://www.w3.org/2000/svg" viewBox="0 0 1596 1596"><defs><style>.cls-1{fill:#33b2ba;}.cls-2{fill:#f7ca69;}.cls-3{fill:#f36f26;}.cls-4{fill:#81287f;}</style></defs><path class="cls-1" d="M510.93,203.9c2.36,37.22,4.81,75.7,11.84,112.09,17.06,88.28,56.24,155,119.78,203.82,53.61,41.23,120.13,65.32,203.38,73.65,19.49,1.95,38.82,2.78,59.27,3.65,9.13.39,18.57.79,27.93,1.3l12.22.67,3.4,11.76C963.12,660.5,966.82,714.19,960.08,775c-1.25,11.31-10.4,21.56-18.91,26.7-9.06,5.46-18.37,10.3-27.37,15-6.18,3.22-12,6.25-17.82,9.49C848.31,852.79,806.5,880,771.4,907.09l4.23,4.2c17.3,17.13,35.19,34.85,53.06,51.71a10.43,10.43,0,0,0,4.89,1.38c19.91-.51,40.24-1.47,59.9-2.39,12.15-.57,24.7-1.16,37.09-1.65,9.72-.37,19.67-.88,29.28-1.37,20.32-1,41.18-2.09,62.08-2.09,5.85,0,11.7.08,17.54.27,38.61,1.26,72.71,16.76,101.56,46.14l75.84-56.81c-1.42-1.2-2.83-2.4-4.24-3.58-14.28-12.09-27.78-23.51-41.66-34.26-49.73-38.53-107.4-74.2-176.31-109.06-7.51-3.8-20.33-13.88-20.75-27.55-1-33.44-.93-67.33-.81-100.11v-2c.06-17.08,6.82-38,38.69-40.73q6.72-.57,13.45-1.1c21.58-1.75,43.9-3.55,64.91-7.62,79-15.3,134.71-51.68,170.22-111.21,31.06-52.07,44.47-113.17,42.19-192.28-.28-9.62-8.25-11.43-14.9-11.26-23.42.61-47,2.28-70,5-123.52,14.43-203.82,89.93-226.09,212.58-1.27,7-2.6,13.91-3.78,20-.49,2.58-1,5-1.38,7.24L967,652.94,952.38,549.71c-1.6-11.31-3-23-4.4-34.28-3-24.85-6.16-50.54-11.45-75.22-24.67-115-83.61-192.78-180.17-237.72-62.08-28.88-132.91-41.82-223-40.63-7.68.1-13.91,2.5-18,6.94s-6,10.9-5.5,18.66Q510.41,195.67,510.93,203.9Z"/><path class="cls-2" d="M1456.47,995.18a137.73,137.73,0,0,0-162.82-3.85c-16.42,11.4-32.77,23.81-48.58,35.81-6.73,5.1-13.69,10.39-20.6,15.55q-32,23.89-64,47.89L1120,1120.91l-10.39-13.42c-.28-.37-.58-.71-1-1.15a24.43,24.43,0,0,1-5-8c-16.48-45.79-39.22-61.49-86.94-60q-13,.42-26,.81c-46.7,1.42-95,2.89-142.11,6.54q-5.34.4-10.43.41c-32.27,0-57.34-12.56-80.24-39.86-44.45-53-104.09-75.79-177.25-67.76-42.15,4.63-76.55,26.77-113,50.2-9.32,6-18.86,12.14-28.65,18l27.83,57.79c35.69,74,69.39,144,103.4,215.77,7.19,15.17,10.66,19.9,19.82,22,10.92,2.55,19.6,8.95,27.26,14.6,1.9,1.4,3.69,2.72,5.41,3.91,12.62,8.69,25.3,17.66,37.56,26.33,8.58,6.07,17.44,12.34,26.18,18.44,49.28,34.41,103.43,49.74,160.93,45.57,67.23-4.87,131.16-19.86,184.83-33.88,36.45-9.52,68-24.88,96.53-46.95l61-47.25c88.18-68.23,179.37-138.8,268.66-208.65,12.9-10.1,20-23.78,19.89-38.54C1478.23,1020.61,1470.27,1005.75,1456.47,995.18Z"/><path class="cls-3" d="M354.73,1020.47c-4.15-8.58-11.31-17.48-32.61-18.93l-2.33.46c-3.52.68-7.91,1.54-11.08,3-62.33,29.31-129,60.78-194.12,92.33-18.35,8.88-25.26,27.53-16.8,45.34,46.38,97.61,95.84,200.38,147,305.47,8.53,17.52,26.85,24,44.57,15.82,66.79-30.9,133-62.33,196.73-93.41,17.55-8.56,24-26.87,15.56-44.54C453.86,1225.43,404.88,1124.09,354.73,1020.47Z"/><path class="cls-4" d="M1477.44,967.81A172.68,172.68,0,0,0,1274,963c-17,11.81-33.66,24.44-49.76,36.66-6.68,5.07-13.59,10.31-20.4,15.4q-32,23.91-64,47.91l-10.22,7.66c-9.93-21.74-22.26-37.28-38.12-48.24-19.44-13.44-44.25-19.49-75.87-18.47l-26,.81c-47.1,1.43-95.8,2.91-143.72,6.62-26.2,2-43.46-5.61-61.59-27.23-26.39-31.45-57.74-54.14-93.19-67.42-34.24-12.83-72.67-17-114.25-12.45-50.21,5.51-89.69,30.91-127.86,55.48-13.28,8.54-27,17.38-40.85,25.11L394,992.76l7,14.61q17.44,36.28,34.75,72.17c35.66,74,69.34,143.89,103.3,215.56,6.92,14.61,16.4,34.62,43.15,40.86,4,.93,9.4,4.92,14.62,8.77,2,1.5,4.14,3,6.32,4.56,12.45,8.57,25,17.47,37.21,26.08,8.62,6.1,17.53,12.4,26.35,18.56,49.93,34.86,104.39,52.46,162.16,52.46q10.42,0,21-.77c70-5.07,135.86-20.49,191-34.91,40.47-10.57,77.12-28.42,108.93-53l61-47.24c88.22-68.26,179.44-138.85,268.81-208.77,21.17-16.57,33.24-40.57,33.12-65.87C1512.65,1009.69,1499.77,984.92,1477.44,967.81Zm-19,106.69c-89.29,69.85-180.48,140.42-268.66,208.65l-61,47.25c-28.51,22.07-60.08,37.43-96.53,46.95-53.67,14-117.6,29-184.83,33.88-57.5,4.17-111.65-11.16-160.93-45.57-8.74-6.1-17.6-12.37-26.18-18.44-12.26-8.67-24.94-17.64-37.56-26.33-1.72-1.19-3.51-2.51-5.41-3.91-7.66-5.65-16.34-12-27.26-14.6-9.16-2.14-12.63-6.87-19.82-22-34-71.78-67.71-141.72-103.4-215.77L439,1006.78c9.79-5.91,19.33-12,28.65-18,36.43-23.43,70.83-45.57,113-50.2,73.16-8,132.8,14.77,177.25,67.76,22.9,27.3,48,39.86,80.24,39.86q5.08,0,10.43-.41c47.12-3.65,95.41-5.12,142.11-6.54q13-.39,26-.81c47.72-1.53,70.46,14.17,86.94,60a24.43,24.43,0,0,0,5,8c.38.44.68.78,1,1.15l10.39,13.42,40.51-30.33q32.05-24,64-47.89c6.91-5.16,13.87-10.45,20.6-15.55,15.81-12,32.16-24.41,48.58-35.81a137.73,137.73,0,0,1,162.82,3.85c13.8,10.57,21.76,25.43,21.84,40.78C1478.38,1050.72,1471.32,1064.4,1458.42,1074.5Z"/><path class="cls-4" d="M476.51,206.09c2.44,38.29,5,77.89,12.41,116.44C507.38,418.09,552,493.66,621.54,547.14c58.85,45.26,131.12,71.64,221,80.63,20.47,2.05,41.2,2.93,61.24,3.79l15.07.66c10.32,41.6,12.66,86.74,7.17,137.51a11.49,11.49,0,0,1-2.62,2.44c-8.12,4.89-16.54,9.27-25.45,13.91-6.14,3.19-12.49,6.49-18.74,10-56.43,31.53-105.09,63.93-144.63,96.3l-14.85,12.15L733.36,918q9,8.91,18,17.8c17.47,17.31,35.55,35.21,53.75,52.38,7.17,6.77,18.65,11,29.34,10.69,20.28-.52,40.8-1.49,60.64-2.42,12.08-.57,24.56-1.15,36.81-1.63,9.93-.39,20-.9,29.69-1.39,25.3-1.29,51.46-2.61,76.76-1.79,33.37,1.08,62.7,16.53,87.19,45.92l10.48,12.58L1272.42,948l-16.8-14c-7.11-5.91-14-11.76-20.72-17.42-14.58-12.33-28.35-24-42.81-35.19-51.48-39.88-111-76.7-181.86-112.56a11.51,11.51,0,0,1-2-1.4c-.91-31.72-.79-64.06-.68-95.37v-2a15.4,15.4,0,0,1,.62-5.15c.56-.28,2.34-1,6.51-1.34q6.64-.57,13.31-1.1c22.52-1.82,45.8-3.7,68.69-8.13,42.07-8.14,79.1-22.16,110.08-41.67a253.89,253.89,0,0,0,83.2-85.72c34.57-58,49.51-125,47-210.94-.77-26.66-21.91-45.5-50.25-44.74-24.46.63-49.07,2.38-73.15,5.19-69.36,8.11-126.86,33.23-170.9,74.67-30,28.18-52.78,63.06-68.24,104.16-1.26-7.43-2.66-14.86-4.25-22.27-12.92-60.24-35.38-112.38-66.75-155C870,232.5,825.37,196.57,770.9,171.23c-66.94-31.15-142.56-45.08-238-43.85-17.14.22-32.37,6.62-42.9,18s-15.72,27.15-14.58,44.34Q476,197.9,476.51,206.09ZM828.65,963ZM1008.3,664.64ZM515.37,168.8c4.1-4.44,10.33-6.84,18-6.94,90.07-1.19,160.9,11.75,223,40.63,96.56,44.94,155.5,122.7,180.17,237.72,5.29,24.68,8.42,50.37,11.45,75.22,1.38,11.29,2.8,23,4.4,34.28L967,652.94l19.43-102.43c.42-2.23.89-4.66,1.38-7.24,1.18-6.11,2.51-13,3.78-20,22.27-122.65,102.57-198.15,226.09-212.58,23-2.69,46.61-4.36,70-5,6.65-.17,14.62,1.64,14.9,11.26,2.28,79.11-11.13,140.21-42.19,192.28-35.51,59.53-91.19,95.91-170.22,111.21-21,4.07-43.33,5.87-64.91,7.62q-6.74.54-13.45,1.1c-31.87,2.72-38.63,23.65-38.69,40.73v2c-.12,32.78-.24,66.67.81,100.11.42,13.67,13.24,23.75,20.75,27.55,68.91,34.86,126.58,70.53,176.31,109.06,13.88,10.75,27.38,22.17,41.66,34.26,1.41,1.18,2.82,2.38,4.24,3.58L1141,1003.29c-28.85-29.38-63-44.88-101.56-46.14-5.84-.19-11.69-.27-17.54-.27-20.9,0-41.76,1.06-62.08,2.09-9.61.49-19.56,1-29.28,1.37-12.39.49-24.94,1.08-37.09,1.65-19.66.92-40,1.88-59.9,2.39a10.43,10.43,0,0,1-4.89-1.38c-17.87-16.86-35.76-34.58-53.06-51.71l-4.23-4.2C806.5,880,848.31,852.79,896,826.16c5.8-3.24,11.64-6.27,17.82-9.49,9-4.68,18.31-9.52,27.37-15,8.51-5.14,17.66-15.39,18.91-26.7,6.74-60.8,3-114.49-11.33-164.15l-3.4-11.76-12.22-.67c-9.36-.51-18.8-.91-27.93-1.3-20.45-.87-39.78-1.7-59.27-3.65-83.25-8.33-149.77-32.42-203.38-73.65C579,470.94,539.83,404.27,522.77,316c-7-36.39-9.48-74.87-11.84-112.09q-.53-8.24-1.06-16.44C509.35,179.7,511.26,173.25,515.37,168.8Z"/><path class="cls-4" d="M385.77,1005.45c-11.72-24.22-33.38-37.16-64.38-38.48l-2.58-.11-2.51.65c-.58.16-1.86.4-3.09.64-4.82.94-12.12,2.36-19.17,5.67-62.43,29.35-129.2,60.87-194.48,92.5-35.33,17.11-49.47,56.3-32.91,91.16,46.42,97.71,95.93,200.59,147.14,305.78,8.12,16.67,21.71,29.1,38.25,35A65.36,65.36,0,0,0,274,1502a71.12,71.12,0,0,0,29.87-6.72c67-31,133.4-62.53,197.37-93.72,34.48-16.81,48.06-55.64,31.58-90.32C485,1210.53,436,1109.13,385.77,1005.45Zm100.32,365.12c-63.75,31.08-129.94,62.51-196.73,93.41-17.72,8.2-36,1.7-44.57-15.82-51.16-105.09-100.62-207.86-147-305.47-8.46-17.81-1.55-36.46,16.8-45.34,65.12-31.55,131.79-63,194.12-92.33,3.17-1.48,7.56-2.34,11.08-3l2.33-.46c21.3,1.45,28.46,10.35,32.61,18.93,50.15,103.62,99.13,205,146.92,305.56C510,1343.7,503.64,1362,486.09,1370.57Z"/></svg>