<svg id="Layer_1" data-name="Layer 1" xmlns="http://www.w3.org/2000/svg" viewBox="0 0 1596 1596"><defs><style>.cls-1{fill:#f7ca69;}.cls-2{fill:#fff;}.cls-3{fill:#f36f26;}.cls-4{fill:#81287f;}.cls-5{fill:#33b2ba;}</style></defs><path class="cls-1" d="M711.9,166.34h-1.65c-154.35.44-299.16,61.17-407.76,171s-168.15,255.81-167.62,411c1.07,316.26,258.93,572.84,575.18,572.84H712c155.31-.51,301.1-61.55,410.52-171.88,108.67-109.59,168.1-254.49,167.32-408C1288.18,423.92,1029.08,166.34,711.9,166.34Zm455.28,845.31q-50.21,26.85-100,54.52c-7.69,4.27-14.18,4.24-21.81,0-26.86-15.08-54.06-29.56-81-44.56-4.9-2.72-8.46-3.14-13.43.21q-53.4,36.08-107.29,71.42c-5.49,3.59-7.19,7.58-7,13.76.36,13.38-.22,26.8.22,40.18.3,9.24-3.42,15-11.54,19.33-35.89,19.3-71.56,39-107.31,58.57h-7.47c-35.46-19.43-70.8-39.1-106.47-58.15-8.87-4.73-12.72-10.73-12.33-20.71.55-13.68.51-27.42-.11-41.11-.16-3.63-2.4-8.53-5.29-10.48q-54.48-37-109.62-73c-2.75-1.79-8.38-1.73-11.4-.14q-41.7,22-82.86,45c-7,3.9-13.05,4-20.1.13q-51-28.29-102.4-55.95c-7.32-3.92-10.14-9.17-10.09-17.18q.27-50.94,0-101.88c-.05-8.12,3.15-13.21,10.22-17.19,30.92-17.39,61.55-35.3,92.47-52.69,5.07-2.84,6.74-6.06,6.71-11.73q-.33-67.29,0-134.59c0-5.83-2-8.82-7-11.52-30.17-16.16-60-32.87-90.27-48.92-8.4-4.46-12.35-10-12.23-19.79.42-33,.34-66.06,0-99.08-.08-8.74,2.78-14.48,10.61-18.88Q311,448.87,360.92,419.65c8.31-4.88,15.15-4.59,23.36.22,32.21,18.9,64.56,37.58,97.25,55.63,10.11,5.58,14.64,12.63,13.49,24-.53,5.22-.09,10.53-.09,17.58,3.68-2,6.26-3.31,8.69-4.83,27.18-17,54.25-34.2,81.6-50.92,5.33-3.26,6.75-6.91,6.71-12.82-.28-32.4.08-64.81-.27-97.2-.1-9.49,3.18-15.52,11.65-20.24q49.74-27.73,98.84-56.58c8.54-5,15.53-5.3,24.15-.24q49.1,28.86,98.82,56.64c8.35,4.67,11.92,10.6,11.82,20.18q-.54,49.07.08,98.14c0,3.61,2.08,8.74,4.88,10.54,28.77,18.57,57.89,36.59,86.92,54.75,1,.63,2.11,1.09,4.89,2.51,0-8.13.18-15.09-.05-22-.26-8,3.1-13.35,10.15-17.34q51.63-29.14,102.92-58.86c6.7-3.88,12.53-3.93,19.2-.07q51.72,29.91,103.69,59.4c6.38,3.63,9.11,8.66,9.07,16-.16,34.27-.23,68.54,0,102.81.07,8.7-3.86,13.65-11.17,17.58-30.43,16.34-60.59,33.17-91.08,49.41-5.52,2.94-7.2,6.27-7.16,12.34.26,44.24.32,88.49,0,132.72,0,7,2.49,10.41,8.29,13.66,29.86,16.74,59.36,34.12,89.26,50.77,8.32,4.64,12.1,10.29,12,20q-.63,49.53,0,99.07C1178.89,1001.75,1175.28,1007.32,1167.18,1011.65Z"/><path class="cls-2" d="M1158.89,301.62C1040.37,182,883.89,115.71,718.28,114.88H715c-346.36,0-629.39,278-631.64,621.31-2.29,348.17,278.47,633.71,625.85,636.53l5.14,0c164.58,0,320-64,438.21-180.7,120.87-119.29,187.92-278.55,188.78-448.45C1342.21,578.16,1277.4,421.2,1158.89,301.62Zm-14.24,869.66a610.51,610.51,0,0,1-432.6,181.12h-2a595,595,0,0,1-233-47.3A616.51,616.51,0,0,1,152.53,983a594,594,0,0,1-48.9-234.51A610.92,610.92,0,0,1,473.27,183.81,609,609,0,0,1,1321,741.1a600.52,600.52,0,0,1-46.74,236.4A607.08,607.08,0,0,1,1144.65,1171.28Z"/><path class="cls-3" d="M1462.69,1428.55c-46-45.87-92.65-92.56-137.79-137.71q-31.37-31.38-62.73-62.74L1247.26,1243l-50.42,50.49c66.07,66.08,133.88,133.88,200.74,200.61a73.25,73.25,0,0,0,9.62,8.16,46.74,46.74,0,0,0,26.88,8.46c17.05,0,37.19-9.58,43.76-31,3-9.73,3.27-18.41.87-26.53S1470.89,1436.74,1462.69,1428.55Z"/><path class="cls-1" d="M500.11,607.23q49.77,33,100.13,65.12c2.62,1.67,7.86,1.84,10.56.34C639.05,657,667,640.63,695.17,624.8c4.8-2.7,6.3-5.81,6.18-11.07-.33-14-.11-28-.11-42s-.21-28,.11-42c.12-5.25-1.29-8.4-6.19-11-25.25-13.44-50.19-27.45-75.51-40.76-3.08-1.62-8.68-1.71-11.54,0Q554,511.1,500.55,545.29c-2.9,1.85-5.21,6.77-5.37,10.38-.62,14-.57,28,0,42C495.28,601,497.44,605.46,500.11,607.23Z"/><path class="cls-1" d="M591.57,786.86c.72-13.36.28-26.78.28-40.18,0-13.71.44-27.45-.29-41.12-.2-3.84-2.91-8.92-6.07-11-35.53-23.6-71.41-46.66-107.06-70.09-4.44-2.91-7.75-3.29-12.56-.59q-36.64,20.52-73.75,40.24c-5.05,2.69-6.93,5.75-6.9,11.54q.38,67.3,0,134.61c0,5.26,1.4,8.36,6.23,11.07q41.53,23.26,82.63,47.35c5.21,3.06,8.61,2.33,13.2-.94,32.72-23.3,65.73-46.21,98.34-69.66C588.78,795.82,591.36,790.76,591.57,786.86Z"/><path class="cls-1" d="M733.53,518.7c-4.85,2.59-6.27,5.7-6.23,11q.36,42,0,84.06c0,5.3,1.48,8.35,6.24,11q41.9,23.52,83.4,47.75c4.65,2.71,7.9,2.72,12.5-.34,26.95-17.9,53.67-36.25,81.47-52.73,17-10,29.61-20.4,22.8-42.31,0-6.54-.45-13.12.13-19.61.6-6.8-2.09-10.54-7.86-14.08q-52.46-32.26-104.41-65.36c-4.55-2.89-7.94-3.12-12.7-.46Q771.4,498.52,733.53,518.7Z"/><path class="cls-1" d="M701,967.12q.66-46.7,0-93.42c0-2.84-2.69-6.83-5.26-8.27q-41.94-23.46-84.38-46c-2.75-1.46-8.06-1.2-10.6.55q-50.31,34.75-100,70.46c-3.07,2.21-5.51,7.47-5.57,11.35-.47,31.76-.37,63.53-.2,95.3,0,2.32,1.31,5.59,3.1,6.79,30.38,20.52,60.95,40.78,93.67,62.56,0-6.15.39-10.18-.07-14.12-1.4-12,3.23-19.44,14.16-25.36C636,1010.67,665.47,993.32,695,976,697.84,974.36,700.93,970.18,701,967.12Z"/><path class="cls-1" d="M928.32,890.61c-32.9-23.56-66.15-46.64-99.08-70.14-4.81-3.43-8.34-3.49-13.37-.69q-40.77,22.68-81.93,44.67c-5.12,2.73-6.73,5.93-6.67,11.64q.47,43.9,0,87.83c-.07,6.38,1.82,9.87,7.56,13.08,30.15,16.83,59.86,34.45,90,51.23,8.76,4.87,12.84,11.07,12,21-.41,4.89-.07,9.86-.07,15.42,2.16-.26,2.88-.14,3.33-.44q45.14-29.91,90.14-60a9.28,9.28,0,0,0,3.4-6.66c.19-32.39.23-64.79-.18-97.17A14,14,0,0,0,928.32,890.61Z"/><path class="cls-1" d="M1043,810.89c.51-22.74.26-45.49.26-68.24,0-22.43.24-44.87-.24-67.3-.07-3.5-2.44-8.54-5.29-10.16-25.15-14.32-50.58-28.15-76.15-41.71a11.62,11.62,0,0,0-9.86.42q-55.05,35.26-109.6,71.33c-2.58,1.7-5.06,5.76-5.11,8.76q-.57,42,0,84.12a13,13,0,0,0,4.75,9q50.52,36.17,101.59,71.56c2.31,1.6,7.21,1.85,9.66.49q42.4-23.65,84.25-48.29C1040.22,819.14,1043,814.34,1043,810.89Z"/><path class="cls-4" d="M1318.7,1003.18a661.74,661.74,0,0,0,53.9-259.44,642.92,642.92,0,0,0-50.89-254.53,668.8,668.8,0,0,0-349-352.16A644.65,644.65,0,0,0,718.44,83.64H715C351.56,83.63,54.5,375.59,52.14,736c-.59,89.9,16.23,177.07,50,259.07A660.77,660.77,0,0,0,451.2,1350c81.33,35,168.06,53.17,257.78,53.9,1.81,0,3.61,0,5.42,0a647.56,647.56,0,0,0,250.16-49.89,665.26,665.26,0,0,0,354.14-350.89ZM1152.58,1192c-118.2,116.65-273.63,180.7-438.21,180.7l-5.14,0c-347.38-2.82-628.14-288.36-625.85-636.53C85.63,392.91,368.66,114.87,715,114.87h3.26c165.61.83,322.09,67.15,440.61,186.74s183.32,276.54,182.47,442C1340.5,913.48,1273.45,1072.74,1152.58,1192Z"/><path class="cls-4" d="M1272,504.75A608.83,608.83,0,0,0,103.63,748.44,594,594,0,0,0,152.53,983a616.51,616.51,0,0,0,324.53,322.16,595,595,0,0,0,233,47.3h2a612.15,612.15,0,0,0,562.23-374.9A607.6,607.6,0,0,0,1272,504.75Zm-149.56,644.54C1013.05,1259.62,867.26,1320.66,712,1321.17l0,15.62,0-15.62h-1.9c-316.25,0-574.11-256.58-575.18-572.84-.53-155.18,59-301.14,167.62-411s253.41-170.56,407.76-171h1.65c317.18,0,576.28,257.58,577.89,574.92C1290.57,894.8,1231.14,1039.7,1122.47,1149.29Z"/><path class="cls-4" d="M1262.63,1184.4c-2-2-4.31-3.66-6.49-5.48l4.84,6.17q-53.71,53.79-107.42,107.57l-5.93-5c1.9,2.19,3.69,4.5,5.74,6.56q111,111,222.14,222a105.2,105.2,0,0,0,13.81,11.66,77.85,77.85,0,0,0,44.76,14.09c32.31,0,63.41-19.8,73.62-53.07,9.83-32.06.38-59.21-23-82.49Q1373.59,1295.53,1262.63,1184.4Zm215.21,295.37c-6.57,21.41-26.71,31-43.76,31a46.74,46.74,0,0,1-26.88-8.46,73.25,73.25,0,0,1-9.62-8.16c-66.86-66.73-134.67-134.53-200.74-200.61l50.42-50.49,14.91-14.94q31.38,31.37,62.73,62.74c45.14,45.15,91.82,91.84,137.79,137.71,8.2,8.19,13.59,16.5,16,24.69S1480.82,1470,1477.84,1479.77Z"/><path class="cls-5" d="M353.66,555.54c-14-8-28.26-15.66-42.45-23.38-11.09-6-22.21-12-34.5-18.61-.22,4.44-.49,7.43-.49,10.41,0,19.91.31,39.82-.2,59.72-.18,7,2.31,10.5,8.33,13.55,14.13,7.16,27.87,15.07,41.78,22.66,10.54,5.74,21.11,11.45,33,17.92,0-26.31.14-51.07-.24-75.83C358.9,559.77,356,556.86,353.66,555.54Z"/><path class="cls-5" d="M385.52,564.35c-.38,10.86-.16,21.75-.16,32.63v41.09c20.45-11.17,38.52-23,58.12-31.19,20.37-8.47,28.76-20.52,25.7-42.83-2.2-16-.43-32.62-.43-48.84-1.78-.19-2.5-.51-2.93-.28-25.66,13.88-51.35,27.71-76.84,41.92C387,558,385.61,561.75,385.52,564.35Z"/><path class="cls-5" d="M1069.62,561.81c-.2,24.8-.13,49.6-.13,74.19,1,.29,1.44.54,1.64.43,26-13.93,52-27.84,77.84-41.94,1.58-.87,3.26-3.3,3.27-5,.22-24.78.15-49.56.15-74.23-1.57-.18-2.31-.52-2.74-.28q-38.51,20.87-76.89,41.93A6.91,6.91,0,0,0,1069.62,561.81Z"/><path class="cls-5" d="M634.39,456.35c22.39,10.54,43.71,23.35,66.83,35.94,0-26.3.14-51.09-.24-75.87,0-2.22-3-5.15-5.27-6.46-13.51-7.71-27.24-15-40.9-22.49L618.6,367.75c-.24,4.49-.52,7.47-.53,10.44,0,16.51,1,33.11-.34,49.51C616.54,442,621.07,450.07,634.39,456.35Z"/><path class="cls-5" d="M468.77,910c-27.81,15.19-53.95,29.39-79.93,43.84a7.92,7.92,0,0,0-3.32,5.83c-.22,24.52-.14,49-.14,75.31,20-10.89,37.55-22.55,56.69-30.31,21.94-8.9,30.41-22.32,27.11-45.84C467,943.44,468.77,927.46,468.77,910Z"/><path class="cls-5" d="M353.5,952.37c-10.5-6.08-21.26-11.71-31.92-17.51l-45.32-24.74c0,26.56-.09,51.39.18,76.21,0,1.86,2.21,4.39,4.05,5.41,25.55,14.19,51.22,28.17,78.67,43.19,0-26.47.14-51.29-.24-76.11C358.88,956.6,355.84,953.72,353.5,952.37Z"/><path class="cls-5" d="M805.78,795.39c2.21-1.24,4.55-4.61,4.59-7,.33-24.2.2-48.4.2-74.91-27.91,15.27-54,29.42-79.92,44-1.92,1.07-3.06,5-3.1,7.68-.26,17.71-.14,35.43-.14,53.15v20.16C754.73,823.5,780.34,809.61,805.78,795.39Z"/><path class="cls-5" d="M966.42,595.88c15.9,9.1,32.05,17.73,48.14,26.49,9.16,5,18.35,9.91,28.72,15.51,0-18.41-1.64-35.34.42-51.81,2.61-20.86-4.35-32.77-23.91-41-20.12-8.46-38.73-20.51-59.87-32,0,26.6-.2,50.81.28,75C960.25,590.76,963.66,594.31,966.42,595.88Z"/><path class="cls-5" d="M727.57,419.8c-.32,16.5-.16,33-.16,49.53v23.05c27.38-14.94,53.05-28.87,78.57-43.05,2-1.14,4.35-4.1,4.38-6.24.31-24.54.19-49.09.19-75.58-28,15.3-53.95,29.32-79.63,43.82C728.82,412.51,727.62,416.88,727.57,419.8Z"/><path class="cls-5" d="M697.55,757.05c-25.73-14.38-51.64-28.46-79.45-43.67,0,26.76-.17,51.34.28,75.9,0,2.42,3.51,5.55,6.13,7,21.45,12,43.08,23.69,64.67,35.45,3.67,2,7.39,3.91,12.05,6.37,0-25.91.1-50.21-.15-74.49C701.05,761.37,699.42,758.09,697.55,757.05Z"/><path class="cls-5" d="M1149.73,911.88c-25.44,13.78-50.88,27.53-76.21,41.51-1.8,1-3.84,3.6-3.86,5.48-.26,24.81-.17,49.62-.17,76.06,27.39-15,53.52-29.17,79.53-43.58a7,7,0,0,0,3.23-5c.21-24.81.14-49.62.14-74.48C1150.89,911.85,1150.18,911.64,1149.73,911.88Z"/><path class="cls-5" d="M1036.9,952.13c-23.08-12.87-46.32-25.45-69.54-38.06-2-1.1-4.22-1.85-7.46-3.25,0,17.35,1.81,33.72-.43,49.52-3.22,22.69,5.47,35,26,43.66,19.58,8.25,37.69,20,57.78,30.9,0-26.28.17-51.05-.28-75.81C1043,956.69,1039.51,953.58,1036.9,952.13Z"/><path class="cls-5" d="M810.6,1065c-27.94,15.28-54,29.47-80,43.93-1.64.92-3,3.88-3.05,5.9-.2,24.48-.13,49-.13,75.11,27.33-14.92,53-28.74,78.38-43.06,2.47-1.4,4.48-5.79,4.58-8.86.49-14.28.22-28.58.22-42.88Z"/><path class="cls-5" d="M695.53,1107.36c-14.6-8.29-29.39-16.27-44.14-24.31-10.56-5.75-21.15-11.44-33.25-18,0,26.59-.15,51.41.26,76.21,0,2.2,3.3,5,5.71,6.37,10.79,6.2,21.83,12,32.75,17.92,14.38,7.83,28.73,15.7,44.35,24.24,0-26.44.14-51.27-.24-76.08C700.94,1111.54,697.87,1108.69,695.53,1107.36Z"/><path class="cls-5" d="M377.27,843.53c-2.73-1.51-7.88-1.08-10.77.51-21.23,11.67-42.19,23.85-63.21,35.9-4.11,2.36-8.16,4.84-13.22,7.85,26.92,14.69,52.5,28.74,78.22,42.51,2.08,1.11,5.7,1.41,7.68.35,26-13.92,51.82-28.14,78.95-43C428.07,872.3,402.82,857.64,377.27,843.53Z"/><path class="cls-5" d="M375.72,533.77c26-13.94,51.87-28.12,78.91-42.86-3.84-2.37-6.63-4.2-9.53-5.86-16.46-9.45-33.91-17.54-49.17-28.65-16.65-12.13-30.31-11.84-47.08,0-18.17,12.78-38.42,22.6-58.94,34.4,27.22,14.83,53.07,29,79,42.93A8.36,8.36,0,0,0,375.72,533.77Z"/><path class="cls-5" d="M1061.68,532.67c15.76-8.12,31.23-16.81,46.79-25.33,9.67-5.3,19.31-10.63,30.32-16.68-27.57-15.78-53.69-30.78-79.92-45.58-1.46-.81-4.29-.47-5.87.42-26,14.68-51.81,29.54-79.18,45.22,26.94,14.71,52.26,28.7,77.83,42.22C1054.27,534.33,1059,534.08,1061.68,532.67Z"/><path class="cls-5" d="M718.38,733.77c25.75-13.79,51.34-27.85,78.52-42.69-21.51-12.35-42.44-22.83-61.63-35.87-14.77-10-26.36-10.57-41.37-.23-19.36,13.31-40.63,23.84-62,36.09,27,14.74,52.82,28.95,78.82,42.87A9.45,9.45,0,0,0,718.38,733.77Z"/><path class="cls-5" d="M718.67,387.55c25.75-13.72,51.33-27.77,77-41.74-.4-.71-.48-1.09-.7-1.22-25.76-15-51.49-30-77.37-44.79a8,8,0,0,0-6.68.16c-25.94,14.63-51.75,29.48-79,45.09,27.06,14.79,52.63,28.88,78.38,42.62A10.38,10.38,0,0,0,718.67,387.55Z"/><path class="cls-5" d="M1061.08,843.5c-2.72-1.5-7.82-1-10.75.6-14.79,7.91-29.23,16.47-43.78,24.82C996,875,985.46,881.06,973.89,887.73c27,14.7,52.54,28.74,78.26,42.51,2.09,1.12,5.71,1.49,7.68.44,26-13.9,51.81-28.12,79.06-43C1111.89,872.24,1086.64,857.6,1061.08,843.5Z"/><path class="cls-5" d="M717.31,997.28c-2-1.1-6,0-8.3,1.28-24.1,13.56-48.07,27.37-72,41.15a38.32,38.32,0,0,0-4.26,3.36c26.17,14.27,51.49,28.18,77,41.79,2.32,1.24,6.3,1.68,8.46.53,26-13.84,51.76-28.05,78.77-42.8C769.66,1027,743.6,1011.93,717.31,997.28Z"/><path class="cls-4" d="M1178.8,893.35c.12-9.71-3.66-15.36-12-20-29.9-16.65-59.4-34-89.26-50.77-5.8-3.25-8.34-6.66-8.29-13.66.37-44.23.31-88.48,0-132.72,0-6.07,1.64-9.4,7.16-12.34,30.49-16.24,60.65-33.07,91.08-49.41,7.31-3.93,11.24-8.88,11.17-17.58-.27-34.27-.2-68.54,0-102.81,0-7.33-2.69-12.36-9.07-16q-51.93-29.55-103.69-59.4c-6.67-3.86-12.5-3.81-19.2.07q-51.3,29.72-102.92,58.86c-7,4-10.41,9.32-10.15,17.34.23,6.94.05,13.9.05,22-2.78-1.42-3.89-1.88-4.89-2.51-29-18.16-58.15-36.18-86.92-54.75-2.8-1.8-4.84-6.93-4.88-10.54q-.56-49.07-.08-98.14c.1-9.58-3.47-15.51-11.82-20.18Q775.44,303,726.3,274.21c-8.62-5.06-15.61-4.79-24.15.24Q653.07,303.31,603.31,331c-8.47,4.72-11.75,10.75-11.65,20.24.35,32.39,0,64.8.27,97.2,0,5.91-1.38,9.56-6.71,12.82-27.35,16.72-54.42,33.92-81.6,50.92-2.43,1.52-5,2.79-8.69,4.83,0-7-.44-12.36.09-17.58,1.15-11.33-3.38-18.38-13.49-24-32.69-18.05-65-36.73-97.25-55.63-8.21-4.81-15-5.1-23.36-.22Q311,448.92,260.48,477.22c-7.83,4.4-10.69,10.14-10.61,18.88.3,33,.38,66.06,0,99.08-.12,9.78,3.83,15.33,12.23,19.79,30.23,16,60.1,32.76,90.27,48.92,5,2.7,7,5.69,7,11.52q-.37,67.29,0,134.59c0,5.67-1.64,8.89-6.71,11.73C321.67,839.12,291,857,260.12,874.42c-7.07,4-10.27,9.07-10.22,17.19q.33,50.94,0,101.88c0,8,2.77,13.26,10.09,17.18q51.42,27.58,102.4,55.95c7,3.92,13.09,3.77,20.1-.13q41.19-23,82.86-45c3-1.59,8.65-1.65,11.4.14q55.14,36,109.62,73c2.89,2,5.13,6.85,5.29,10.48.62,13.69.66,27.43.11,41.11-.39,10,3.46,16,12.33,20.71,35.67,19,71,38.72,106.47,58.15h7.47c35.75-19.56,71.42-39.27,107.31-58.57,8.12-4.36,11.84-10.09,11.54-19.33-.44-13.38.14-26.8-.22-40.18-.17-6.18,1.53-10.17,7-13.76q53.91-35.29,107.29-71.42c5-3.35,8.53-2.93,13.43-.21,26.9,15,54.1,29.48,81,44.56,7.63,4.28,14.12,4.31,21.81,0q49.75-27.68,100-54.52c8.1-4.33,11.71-9.9,11.6-19.23Q1178.23,942.89,1178.8,893.35Zm-26.41-378.1c0,24.67.07,49.45-.15,74.23,0,1.71-1.69,4.14-3.27,5-25.88,14.1-51.87,28-77.84,41.94-.2.11-.59-.14-1.64-.43,0-24.59-.07-49.39.13-74.19a6.91,6.91,0,0,1,3.14-4.91q38.34-21.15,76.89-41.93C1150.08,514.73,1150.82,515.07,1152.39,515.25ZM1053,445.5c1.58-.89,4.41-1.23,5.87-.42,26.23,14.8,52.35,29.8,79.92,45.58-11,6-20.65,11.38-30.32,16.68-15.56,8.52-31,17.21-46.79,25.33-2.73,1.41-7.41,1.66-10,.27-25.57-13.52-50.89-27.51-77.83-42.22C1001.19,475,1027.05,460.18,1053,445.5Zm-93.08,67.57c21.14,11.49,39.75,23.54,59.87,32,19.56,8.23,26.52,20.14,23.91,41-2.06,16.47-.42,33.4-.42,51.81-10.37-5.6-19.56-10.53-28.72-15.51-16.09-8.76-32.24-17.39-48.14-26.49-2.76-1.57-6.17-5.12-6.22-7.81C959.72,563.88,959.92,539.67,959.92,513.07Zm-138.35-35q52,33,104.41,65.36c5.77,3.54,8.46,7.28,7.86,14.08-.58,6.49-.13,13.07-.13,19.61,6.81,21.91-5.83,32.26-22.8,42.31-27.8,16.48-54.52,34.83-81.47,52.73-4.6,3.06-7.85,3.05-12.5.34q-41.52-24.19-83.4-47.75c-4.76-2.67-6.29-5.72-6.24-11q.38-42,0-84.06c0-5.27,1.38-8.38,6.23-11q37.86-20.18,75.34-41.09C813.63,475,817,475.18,821.57,478.07Zm-94,287.06c0-2.64,1.18-6.61,3.1-7.68,25.89-14.57,52-28.72,79.92-44,0,26.51.13,50.71-.2,74.91,0,2.41-2.38,5.78-4.59,7-25.44,14.22-51,28.11-78.37,43.05V818.28C727.41,800.56,727.29,782.84,727.55,765.13Zm-95.64-74.06c21.36-12.25,42.63-22.78,62-36.09,15-10.34,26.6-9.8,41.37.23,19.19,13,40.12,23.52,61.63,35.87-27.18,14.84-52.77,28.9-78.52,42.69a9.45,9.45,0,0,1-7.65.17C684.73,720,658.89,705.81,631.91,691.07Zm69.32,147c-4.66-2.46-8.38-4.36-12.05-6.37C667.59,820,646,808.3,624.51,796.3c-2.62-1.47-6.09-4.6-6.13-7-.45-24.56-.28-49.14-.28-75.9,27.81,15.21,53.72,29.29,79.45,43.67,1.87,1,3.5,4.32,3.53,6.58C701.33,787.91,701.23,812.21,701.23,838.12Zm109.13-395c0,2.14-2.33,5.1-4.38,6.24-25.52,14.18-51.19,28.11-78.57,43.05V469.33c0-16.51-.16-33,.16-49.53,0-2.92,1.25-7.29,3.35-8.47,25.68-14.5,51.64-28.52,79.63-43.82C810.55,394,810.67,418.55,810.36,443.09ZM710.88,300a8,8,0,0,1,6.68-.16c25.88,14.78,51.61,29.8,77.37,44.79.22.13.3.51.7,1.22-25.63,14-51.21,28-77,41.74a10.38,10.38,0,0,1-8.42.12c-25.75-13.74-51.32-27.83-78.38-42.62C659.13,329.44,684.94,314.59,710.88,300ZM617.73,427.7c1.36-16.4.3-33,.34-49.51,0-3,.29-5.95.53-10.44l36.21,19.72c13.66,7.45,27.39,14.78,40.9,22.49,2.31,1.31,5.24,4.24,5.27,6.46.38,24.78.24,49.57.24,75.87-23.12-12.59-44.44-25.4-66.83-35.94C621.07,450.07,616.54,442,617.73,427.7Zm-122.55,128c.16-3.61,2.47-8.53,5.37-10.38Q554,511.11,608.11,478c2.86-1.75,8.46-1.66,11.54,0,25.32,13.31,50.26,27.32,75.51,40.76,4.9,2.61,6.31,5.76,6.19,11-.32,14-.11,28-.11,42s-.22,28,.11,42c.12,5.26-1.38,8.37-6.18,11.07C667,640.63,639.05,657,610.8,672.69c-2.7,1.5-7.94,1.33-10.56-.34q-50.36-32.1-100.13-65.12c-2.67-1.77-4.83-6.25-5-9.55C494.61,583.69,494.56,569.65,495.18,555.67Zm-26.43-40.46c0,16.22-1.77,32.8.43,48.84,3.06,22.31-5.33,34.36-25.7,42.83-19.6,8.16-37.67,20-58.12,31.19V597c0-10.88-.22-21.77.16-32.63.09-2.6,1.48-6.39,3.46-7.5,25.49-14.21,51.18-28,76.84-41.92C466.25,514.7,467,515,468.75,515.21ZM359.17,637.81c-11.93-6.47-22.5-12.18-33-17.92-13.91-7.59-27.65-15.5-41.78-22.66-6-3.05-8.51-6.57-8.33-13.55.51-19.9.16-39.81.2-59.72,0-3,.27-6,.49-10.41,12.29,6.63,23.41,12.58,34.5,18.61,14.19,7.72,28.42,15.38,42.45,23.38,2.31,1.32,5.24,4.23,5.27,6.44C359.31,586.74,359.17,611.5,359.17,637.81Zm-69.26-147c20.52-11.8,40.77-21.62,58.94-34.4,16.77-11.8,30.43-12.09,47.08,0,15.26,11.11,32.71,19.2,49.17,28.65,2.9,1.66,5.69,3.49,9.53,5.86-27,14.74-52.91,28.92-78.91,42.86a8.36,8.36,0,0,1-6.77-.08C343,519.76,317.13,505.59,289.91,490.76Zm69.25,544.17c-27.45-15-53.12-29-78.67-43.19-1.84-1-4-3.55-4.05-5.41-.27-24.82-.18-49.65-.18-76.21l45.32,24.74c10.66,5.8,21.42,11.43,31.92,17.51,2.34,1.35,5.38,4.23,5.42,6.45C359.3,983.64,359.16,1008.46,359.16,1034.93ZM376,930.65c-2,1.06-5.6.76-7.68-.35-25.72-13.77-51.3-27.82-78.22-42.51,5.06-3,9.11-5.49,13.22-7.85,21-12.05,42-24.23,63.21-35.9,2.89-1.59,8-2,10.77-.51,25.55,14.11,50.8,28.77,77.65,44.14C427.79,902.51,402,916.73,376,930.65Zm66.1,74.05c-19.14,7.76-36.7,19.42-56.69,30.31,0-26.27-.08-50.79.14-75.31a7.92,7.92,0,0,1,3.32-5.83c26-14.45,52.12-28.65,79.93-43.84,0,17.43-1.75,33.41.41,48.83C472.48,982.38,464,995.8,442.07,1004.7Zm32-136q-41.06-24.12-82.63-47.35c-4.83-2.71-6.25-5.81-6.23-11.07q.27-67.31,0-134.61c0-5.79,1.85-8.85,6.9-11.54q37.08-19.74,73.75-40.24c4.81-2.7,8.12-2.32,12.56.59,35.65,23.43,71.53,46.49,107.06,70.09,3.16,2.1,5.87,7.18,6.07,11,.73,13.67.29,27.41.29,41.12,0,13.4.44,26.82-.28,40.18-.21,3.9-2.79,9-5.92,11.21C553,821.52,520,844.43,487.31,867.73,482.72,871,479.32,871.73,474.11,868.67Zm117.6,183.65c.46,3.94.07,8,.07,14.12-32.72-21.78-63.29-42-93.67-62.56-1.79-1.2-3.09-4.47-3.1-6.79-.17-31.77-.27-63.54.2-95.3.06-3.88,2.5-9.14,5.57-11.35q49.62-35.75,100-70.46c2.54-1.75,7.85-2,10.6-.55q42.46,22.47,84.38,46c2.57,1.44,5.23,5.43,5.26,8.27q.57,46.71,0,93.42c0,3.06-3.13,7.24-6,8.9-29.53,17.3-59,34.65-89.13,50.94C594.94,1032.88,590.31,1040.34,591.71,1052.32Zm109.5,137.49c-15.62-8.54-30-16.41-44.35-24.24-10.92-6-22-11.72-32.75-17.92-2.41-1.38-5.68-4.17-5.71-6.37-.41-24.8-.26-49.62-.26-76.21,12.1,6.54,22.69,12.23,33.25,18,14.75,8,29.54,16,44.14,24.31,2.34,1.33,5.41,4.18,5.44,6.37C701.35,1138.54,701.21,1163.37,701.21,1189.81Zm8.46-105c-25.48-13.61-50.8-27.52-77-41.79a38.32,38.32,0,0,1,4.26-3.36c24-13.78,47.95-27.59,72-41.15,2.34-1.32,6.34-2.38,8.3-1.28,26.29,14.65,52.35,29.71,79.59,45.31-27,14.75-52.79,29-78.77,42.8C716,1086.54,712,1086.1,709.67,1084.86ZM810.38,1138c-.1,3.07-2.11,7.46-4.58,8.86-25.39,14.32-51,28.14-78.38,43.06,0-26.15-.07-50.63.13-75.11,0-2,1.41-5,3.05-5.9,26-14.46,52.06-28.65,80-43.93v30.14C810.6,1109.41,810.87,1123.71,810.38,1138Zm123.29-140.5a9.28,9.28,0,0,1-3.4,6.66q-44.92,30.24-90.14,60c-.45.3-1.17.18-3.33.44,0-5.56-.34-10.53.07-15.42.84-9.9-3.24-16.1-12-21-30.18-16.78-59.89-34.4-90-51.23-5.74-3.21-7.63-6.7-7.56-13.08q.5-43.92,0-87.83c-.06-5.71,1.55-8.91,6.67-11.64q41.16-22,81.93-44.67c5-2.8,8.56-2.74,13.37.69,32.93,23.5,66.18,46.58,99.08,70.14a14,14,0,0,1,5.17,9.71C933.9,932.7,933.86,965.1,933.67,997.49ZM953,869.17c-2.45,1.36-7.35,1.11-9.66-.49q-51.08-35.38-101.59-71.56a13,13,0,0,1-4.75-9q-.54-42.06,0-84.12c.05-3,2.53-7.06,5.11-8.76q54.55-36,109.6-71.33a11.62,11.62,0,0,1,9.86-.42c25.57,13.56,51,27.39,76.15,41.71,2.85,1.62,5.22,6.66,5.29,10.16.48,22.43.24,44.87.24,67.3,0,22.75.25,45.5-.26,68.24-.08,3.45-2.81,8.25-5.76,10Q995.46,845.59,953,869.17Zm90.25,165.73c-20.09-10.93-38.2-22.65-57.78-30.9-20.55-8.66-29.24-21-26-43.66,2.24-15.8.43-32.17.43-49.52,3.24,1.4,5.44,2.15,7.46,3.25,23.22,12.61,46.46,25.19,69.54,38.06,2.61,1.45,6,4.56,6.09,7C1043.44,983.85,1043.27,1008.62,1043.27,1034.9Zm16.56-104.22c-2,1.05-5.59.68-7.68-.44-25.72-13.77-51.31-27.81-78.26-42.51,11.57-6.67,22.1-12.76,32.66-18.81,14.55-8.35,29-16.91,43.78-24.82,2.93-1.57,8-2.1,10.75-.6,25.56,14.1,50.81,28.74,77.81,44.16C1111.64,902.56,1085.82,916.78,1059.83,930.68Zm92.42,55.65a7,7,0,0,1-3.23,5c-26,14.41-52.14,28.62-79.53,43.58,0-26.44-.09-51.25.17-76.06,0-1.88,2.06-4.49,3.86-5.48,25.33-14,50.77-27.73,76.21-41.51.45-.24,1.16,0,2.66,0C1152.39,936.71,1152.46,961.52,1152.25,986.33Z"/></svg>