<svg id="Layer_1" data-name="Layer 1" xmlns="http://www.w3.org/2000/svg" viewBox="0 0 1596 1596"><defs><style>.cls-1{fill:#f7ca69;}.cls-2{fill:#81287f;}.cls-3{fill:#33b2ba;}.cls-4{fill:#f36f26;}.cls-5{fill:#fff;}</style></defs><path class="cls-1" d="M625.39,1534.5c-18-6.81-31.88-19.84-48-36C534,1455,489.87,1411,447.15,1368.37c-44-43.93-89.6-89.37-134.27-134.17-11.47-11.51-23.43-16.64-38.78-16.64h-.94c-25.53.36-51.54.41-76.7.46-31.13.06-63.33.12-95.06.76l-1.93,0c-19.94,0-30.7-5.89-37.47-20.84V831.5c6.63-15.08,17.54-20.77,39.12-20.77h.26c34.43.08,69.94.12,108.54.12,87.59,0,176.65-.21,262.77-.41q51.93-.12,103.86-.23c-6.19,6.17-12.38,12.31-18.45,18.33-24.24,24-49.3,48.89-73,74.5-28.43,30.77-42.81,70-40.5,110.43a138.76,138.76,0,0,0,48.4,98.06c24.51,21.1,54.45,33.71,75.24,40.57A241.56,241.56,0,0,0,644,1164.52c42.89,0,85.64-11.88,127.06-35.3,28.41-16.06,53.79-37,78.34-57.3l3.37-2.78c12.66-10.44,23.9-22.24,34.77-33.65,5.23-5.49,10.63-11.16,16-16.47,1.07-1.06,1.92-1.83,2.58-2.37.66.54,1.52,1.3,2.59,2.35,30.71,30.23,61.87,61.06,92,90.88l34,33.63c7.24,7.16,14.72,14.56,22,21.86,24.35,24.33,29,57.17,11.43,81.73-11.12,15.61-27.61,24.2-46.43,24.2-11.11,0-22.56-2.88-34-8.57a24.93,24.93,0,0,0-5.29-1.86c-.51-.13-1.14-.3-2-.54a16.69,16.69,0,0,0-4.57-.64,16.5,16.5,0,0,0-14.68,24c17,33.22,14.21,58.65-8.89,80-11.52,10.67-23.76,15.86-37.42,15.86-11.37,0-24.17-3.64-38-10.81a16.49,16.49,0,0,0-22.81,21c.86,2.06,1.6,3.85,2.26,5.45,1.3,3.13,2.32,5.59,3.38,8,11.52,26.64,3.18,56.66-20.27,73a59.31,59.31,0,0,1-34,10.79,58.21,58.21,0,0,1-40.31-16.33c-10.82-10.32-21.42-21.55-31.68-32.4-4.7-5-9.56-10.11-14.41-15.14A16.48,16.48,0,0,0,698,1421l-3.27,2.18a16.51,16.51,0,0,0-6.1,19.91c.55,1.36,1.12,2.71,1.69,4.07,1.1,2.61,2.14,5.08,3,7.44,5.67,16.11,4.86,32.89-2.27,47.23S671,1527,654.65,1532.2c-2.26.72-4.33,1.55-6.18,2.3Z"/><path class="cls-2" d="M536.44,826.79c-21.19,21.05-42.78,42.72-63.42,65.05-31.49,34.09-47.42,77.62-44.85,122.57A155.13,155.13,0,0,0,482.28,1124c26.56,22.86,58.62,36.4,80.83,43.73A258.06,258.06,0,0,0,644,1181c45.78,0,91.26-12.6,135.18-37.44,29.67-16.78,55.63-38.21,80.73-58.93l3.36-2.78c13.42-11.07,25-23.23,36.21-35q3.46-3.63,6.8-7.11c27.65,27.24,55.55,54.85,82.61,81.63l31.49,31.15,2.7,2.67c7.24,7.16,14.72,14.55,22,21.83,9.51,9.51,15.31,20.54,16.76,31.93a39.62,39.62,0,0,1-7.1,28.55c-8.06,11.31-19.47,17.28-33,17.28-8.55,0-17.52-2.3-26.66-6.84a41.42,41.42,0,0,0-8.52-3.07c-.51-.13-1-.24-1.54-.41a33,33,0,0,0-38.49,46.76c6.84,13.35,9.84,25,8.92,34.74-.56,5.84-2.65,14.85-14.34,25.67-11.1,10.28-20.27,11.47-26.21,11.47-8.71,0-18.95-3-30.44-9a33,33,0,0,0-45.62,42c.87,2.07,1.61,3.86,2.27,5.46,1.31,3.14,2.33,5.62,3.45,8.2C853,1429.2,847,1451,830,1462.73a42.8,42.8,0,0,1-24.55,7.84,41.79,41.79,0,0,1-28.91-11.76c-10.51-10-20.51-20.61-31.08-31.8-4.73-5-9.62-10.17-14.54-15.27a33,33,0,0,0-42.12-4.5l-3.27,2.19a33,33,0,0,0-12.2,39.81q.87,2.15,1.77,4.26c1,2.38,2,4.63,2.61,6.53,4.18,11.87,3.66,24.09-1.47,34.41s-14.62,18.19-26.66,22c-1.54.5-3,1-4.3,1.52h-16.7c-13.81-6-25.74-17.3-39.57-31.18-43.32-43.43-87.46-87.45-130.14-130-44.08-44-89.66-89.42-134.34-134.24-14.42-14.46-30.93-21.49-50.47-21.49h-1.17c-25.42.36-51.37.41-76.47.46-31.22.06-63.5.12-95.39.76-.54,0-1.07,0-1.6,0-7.17,0-12.73-1-16-3-.86-.51-2.77-1.65-4.92-5.29V835.36c2-3.52,3.83-4.54,4.74-5.06,2.47-1.4,7.58-3.07,17.87-3.07h.23c34.42.08,69.88.12,108.39.12,87.58,0,176.61-.21,262.7-.41l64-.15m65.93-33.13h-5.69c-129,.23-258,.68-386.95.68q-54.16,0-108.31-.12h-.31c-26.76,0-45.8,8.32-55.61,34v373c9.82,24.92,28.32,34,54,34l2.27,0c57.2-1.16,114.43-.42,171.64-1.22h.72c11.33,0,19.14,3.8,27.1,11.79,88,88.26,176.47,176,264.48,264.28,16.82,16.86,33.74,33,56.84,40.87h29.14c2.67-1,5.3-2.22,8-3.09,42.54-13.63,64-56.7,49.19-98.84-1.45-4.14-3.28-8.15-4.93-12.23l3.26-2.19c15.49,16,30.46,32.64,46.58,48a74.57,74.57,0,0,0,51.7,20.89,75.86,75.86,0,0,0,43.4-13.75c29.85-20.77,40.6-59.28,26-93.07-1.57-3.63-3-7.29-5.56-13.29,15.91,8.24,31.15,12.66,45.61,12.66,17.4,0,33.67-6.4,48.63-20.26,30.76-28.47,31.17-63,12.36-99.67a34.81,34.81,0,0,1,4.5,1.32c13.94,6.92,28,10.29,41.35,10.29,23.77,0,45.31-10.7,59.87-31.12,22.17-31.1,16.81-73-13.21-103q-12.36-12.36-24.82-24.62-61.63-60.94-123.3-121.84c-5.48-5.39-9.83-8.07-14.17-8.07s-8.71,2.72-14.17,8.11c-16.58,16.38-31.79,34.37-49.68,49.14-25.33,20.89-50.93,42.38-79.33,58.44C725,1136.33,685.05,1148,644,1148a224.29,224.29,0,0,1-70.57-11.59c-24.75-8.17-50.07-20.56-69.65-37.4-54.87-47.23-57.14-130-6.54-184.79,34.25-37.07,70.86-72,106.38-107.84,3.24-3.27,6.22-6.8,11.62-12.73Z"/><path class="cls-3" d="M499.58,690c-2,0-2.65,0-6.72-5.2-68.47-87.3-94.22-200.5-70.64-310.59s93.41-202.76,191.6-254.34C669.91,90.43,729.76,75.49,791.7,75.49A379.44,379.44,0,0,1,1027.38,158a371.86,371.86,0,0,1,84.95,95.81,380.94,380.94,0,0,1,49.19,125.83c21.67,108.4-1.32,209.33-68.34,300.14-8.29-6.62-16.85-13.45-25.5-20-52.29-39.36-111-60.16-169.63-60.16-71.73,0-139.49,30.07-196,86.95a11.61,11.61,0,0,1-5.76,2.63c-32.18.28-64.93.32-96.6.36-32.77,0-66.66.09-100,.4ZM663.63,357.74c-15.51,0-29.85,6.24-41.49,18.05-24.22,24.56-22.28,62,4.6,89s53.91,54.08,80.34,80.35c14.75,14.66,30.54,22.1,46.94,22.1s31.84-7.31,46.3-21.73c54.42-54.25,107.38-107.28,157.41-157.62,12.4-12.48,19.61-28.17,20.29-44.17a57.91,57.91,0,0,0-17.41-44c-11.4-11.33-26.07-17.57-41.29-17.57-16.63,0-33.22,7.36-46.71,20.72-16,15.83-32.14,32-47.75,47.67L811.8,363.68c-15.75,15.78-31.49,31.57-47.73,47.87l-10.64,10.67-5.29-5.42c-12.62-12.95-24.53-25.18-36.86-37.48C697.32,365.4,680.4,357.74,663.63,357.74Z"/><path class="cls-2" d="M791.72,92a362.88,362.88,0,0,1,225.37,78.94,355.52,355.52,0,0,1,81.2,91.57,364.68,364.68,0,0,1,47,120.4c10.69,53.47,10.07,105.43-1.83,154.45-9.94,40.93-28,80.76-53.72,118.7-4-3.15-8.08-6.29-12.18-9.38-55.18-41.53-117.27-63.48-179.56-63.48-75.28,0-146.26,31-205.46,89.61-31,.25-62.41.29-92.87.33-31.06,0-63.12.08-94.79.35a351.18,351.18,0,0,1-66.61-142.4,361.7,361.7,0,0,1-8.14-76.88,368.36,368.36,0,0,1,32.05-149.63,361,361,0,0,1,38.9-66.78A351.1,351.1,0,0,1,621.49,134.51a373.58,373.58,0,0,1,84.61-32.17A360.61,360.61,0,0,1,791.7,92h0M753.56,398.72c-10.34-10.6-20.32-20.81-30.63-31.08-17.07-17-38.13-26.4-59.3-26.4-19.73,0-38.64,8.15-53.24,23-30.86,31.3-28.91,78.52,4.64,112.27,26.82,27,53.88,54,80.41,80.42,22.37,22.23,44.2,26.9,58.58,26.9s36-4.6,58-26.54C866.33,503.05,919.31,450,969.43,399.57c15.31-15.4,24.22-35,25.08-55.09a74.26,74.26,0,0,0-22.27-56.42c-14.52-14.42-33.31-22.36-52.92-22.36-21,0-41.72,9.05-58.32,25.49-16,15.88-32.2,32.09-47.84,47.77l-13,13.06c-15.37,15.4-30.73,30.82-46.56,46.7M791.7,59c-62,0-125.4,14.7-185.56,46.3C391,218.32,329.88,503.77,479.88,695c5.11,6.52,9.89,11.52,19.7,11.52h.27c65.53-.6,131.07-.18,196.6-.75,5.87,0,13.16-3.3,17.33-7.5,54.08-54.46,118.6-82.08,184.27-82.08,54.19,0,109.17,18.8,159.71,56.85,12.75,9.59,25.09,19.72,37.94,29.85,2-2.19,3.65-3.87,5.09-5.75,73.36-95.46,100.44-203,76.92-320.71C1139,182.87,971.6,59,791.7,59ZM753.31,445.72c24.41-24.5,47.27-47.45,70.16-70.38,20.23-20.26,40.41-40.56,60.75-60.7,10.71-10.61,23.1-15.94,35.1-15.94C930,298.7,940.4,303,949,311.48c17.73,17.61,16.74,45-3,64.83q-78.49,79-157.36,157.57c-11.32,11.29-23,16.91-34.65,16.91-11.85,0-23.72-5.78-35.31-17.3q-40.26-40-80.27-80.28c-20.74-20.87-22.5-47.63-4.55-65.84,8.64-8.76,19-13.13,29.73-13.13,12.16,0,24.81,5.6,36,16.76,17.78,17.73,35.18,35.84,53.68,54.72Z"/><path class="cls-4" d="M1143,1343.59c33.2-30.67,53.33-74.72,55.64-122.42,2.48-51.46-16-100.71-50.84-135.14q-37.14-36.75-74.24-73.55c-28.23-28-57.42-56.92-86.17-85.35-25.74-25.46-53-38.36-81.14-38.36-28.42,0-56.05,13.19-82.11,39.21q-7.36,7.35-14.68,14.77c-20.17,20.35-41,41.4-63,59.67C714,1029.35,679.83,1043,645,1043a142,142,0,0,1-16.41-1,153.19,153.19,0,0,1-42.63-11.86c-11.59-5-18.89-12.59-20.57-21.27-1.73-8.91,2.37-18.95,11.54-28.26,32.79-33.3,63.34-64,93.39-93.8l19.2-19.08c34-33.74,69.09-68.64,104.15-102.32,30.66-29.45,67-45,105-45,37.3,0,73.19,15,103.8,43.44,38,35.34,81.79,52.51,133.7,52.51h1.69c77.61-.56,153.47-.61,237.48-.61H1408q37.5,0,75,0c28.16,0,38.11,9.78,38.11,37.4q0,171.15,0,342.32c0,12.94-2.78,22.25-8.25,27.68s-15,8.24-28.14,8.27q-18.21,0-36.41.09c-19.63,0-39.94.11-59.89.11s-37.42-.06-53.59-.18h-.57c-11,0-26.41,2.45-33.81,23.63-9.85,28.18-25.13,50-45.42,64.77s-45.57,22.65-75.26,23.42c-9.23.23-19.12.34-31.14.34Z"/><path class="cls-2" d="M898.65,736.94c33.06,0,65.07,13.5,92.57,39,40.68,37.77,89.44,56.92,144.93,56.92H1138c77.58-.57,153.55-.62,237.71-.62h32.1c27.86,0,51.32,0,75.18,0h.11c10.56,0,16.29,2,18,3.64s3.53,7.1,3.53,17.26c0,109.29,0,225.74,0,342.31,0,9.33-1.82,14.43-3.37,16s-6.91,3.47-16.55,3.49l-36.33.09c-19.66,0-40,.11-59.94.11s-37.33-.06-53.45-.17h-.72c-30.79,0-43.85,18.86-49.38,34.69-8.72,24.95-22,44.09-39.57,56.88s-39.56,19.54-65.75,20.24c21.14-29.92,33.7-66.28,35.56-104.79,2.7-56.12-17.6-109.94-55.72-147.66-24.81-24.55-50-49.55-74.41-73.72-28.17-27.93-57.3-56.81-86-85.18-28.94-28.62-60.14-43.13-92.74-43.13-33,0-64.5,14.81-93.77,44-5,5-9.93,10-14.74,14.83-20.81,21-40.47,40.83-61.85,58.59-29.81,24.76-59.54,36.79-90.91,36.79a126.92,126.92,0,0,1-14.49-.85,136.89,136.89,0,0,1-38-10.59c-7.38-3.22-10.52-7-11-9.28-.47-2.45,1.11-7.46,7.1-13.55,32.73-33.23,63.23-63.87,93.26-93.67l19.22-19.09c33.92-33.7,69-68.54,103.94-102.12,27.53-26.44,59.89-40.42,93.6-40.42m0-33c-41.07,0-82,16.57-116.46,49.62-41.67,40-82.53,80.89-123.55,121.59q-47,46.68-93.52,93.94c-26.72,27.13-20.83,61,14.2,76.23a169.82,169.82,0,0,0,47.31,13.12,158.7,158.7,0,0,0,18.31,1.07c42.17,0,79.38-17.31,112-44.4,27.92-23.18,53.08-49.75,78.83-75.45,22.92-22.89,46.68-34.39,70.45-34.39,23.42,0,46.86,11.16,69.54,33.59q80.26,79.38,160.4,158.9c65.86,65.17,60.51,181.21-11.28,239.7-9.19,7.49-19.25,13.9-31.15,22.41,19.1,0,37.19.23,54.88.23,10.62,0,21.1-.08,31.57-.35,66.45-1.71,113.75-36.09,135.82-99.24,3.58-10.24,8.58-12.57,18.23-12.57h.46q26.86.19,53.71.18c32.11,0,64.22-.15,96.33-.2,35.48-.07,52.85-17.27,52.86-52.45q0-171.17,0-342.32c0-36.71-17.33-53.9-54.51-53.9H1483q-37.61,0-75.18,0h-32.1c-79.32,0-158.65,0-238,.62h-1.57c-47.49,0-87.64-15.76-122.47-48.1-34.38-31.92-74.75-47.85-115-47.85Z"/><path class="cls-5" d="M753.31,445.72c24.41-24.5,47.27-47.45,70.16-70.38,20.23-20.26,40.41-40.56,60.75-60.7s46.55-21.26,64.76-3.16c17.73,17.61,16.74,45-3,64.83q-78.49,79-157.36,157.57c-22.8,22.74-46.95,22.49-70-.39q-40.26-40-80.27-80.28c-20.74-20.87-22.5-47.63-4.55-65.84,18.42-18.68,44.65-17.39,65.74,3.63C717.41,408.73,734.81,426.84,753.31,445.72Z"/></svg>